<?xml version="1.0" standalone="no"?>
<!DOCTYPE svg PUBLIC "-//W3C//DTD SVG 1.1//EN" "http://www.w3.org/Graphics/SVG/1.1/DTD/svg11.dtd" >
<svg xmlns="http://www.w3.org/2000/svg">
<metadata>
Created by FontPrep 20130207 at Thu Oct 27 11:54:44 2016
 By elian
Copyright (c) 2013 by Juan Pablo del Peral (huertatipografica.com.ar)
</metadata>
<defs>
<font id="62ddd7bad5cebe68aeeb1eab7d07ef36" horiz-adv-x='1024' >
  <font-face 
    font-family="AlegreyaSans-Italic"
    font-weight="400"
    font-style="italic"
    font-stretch="normal"
    units-per-em="2048"
    panose-1="0 0 5 0 0 0 0 0 0 0"
    ascent="1638"
    descent="-410"
    x-height="948"
    cap-height="1311"
    bbox="-559 -537 2365.02 2034"
    underline-thickness="77"
    underline-position="-299"
    slope="-7"
    unicode-range="U+0020-FB02"
  />
<missing-glyph horiz-adv-x="342" 
 />
    <glyph glyph-name="Idieresis" unicode="&#xa8;I" horiz-adv-x="530" 
d="M326 408l-43 -408h-154l57 395l107 916h153zM538 1700q40 0 61.5 -22.5t21.5 -62.5t-24 -64.5t-62 -24.5q-84 0 -84 84q0 41 23.5 65.5t63.5 24.5zM283 1700q39 0 60.5 -22.5t21.5 -62.5t-24 -64.5t-62 -24.5q-84 0 -84 84q0 41 24.5 65.5t63.5 24.5z" />
    <glyph glyph-name="Odieresis" unicode="&#xa8;O" horiz-adv-x="1251" 
d="M719 1196q-465 0 -465 -664q0 -420 324 -419q233 0 351 172t118 497q0 414 -328 414zM737 1325q225 0 348 -137t123 -387q0 -381 -168 -599t-475 -218q-221 0 -345 142t-124 396q0 377 167 590t474 213zM933 1700q40 0 61.5 -22.5t21.5 -62.5t-23.5 -64.5t-62.5 -24.5
q-84 0 -84 84q0 41 23.5 65.5t63.5 24.5zM606 1702q39 0 61.5 -23.5t22.5 -62.5t-23.5 -64.5t-62.5 -25.5q-84 0 -84 86q0 41 23.5 65.5t62.5 24.5z" />
    <glyph glyph-name="Yacute" unicode="&#xb4;Y" horiz-adv-x="1028" 
d="M567 477l-14 -94l-43 -383h-154l60 383l10 96l-291 832h162l14 -72l201 -596h14l373 592l39 76h168zM483 1483l-28 69q217 109 391 211l16 -4l41 -90l-6 -18q-80 -39 -395 -176z" />
    <glyph glyph-name="idieresis" unicode="&#xa8;i" horiz-adv-x="446" 
d="M254 223l-8 -217l-156 -14l107 743l8 199l151 14zM445 1327q40 0 61.5 -22.5t21.5 -62.5t-23.5 -64.5t-62.5 -24.5q-84 0 -84 84q0 41 23.5 65.5t63.5 24.5zM191 1327q39 0 60 -22.5t21 -62.5t-23.5 -64.5t-62.5 -24.5q-84 0 -84 84q0 41 25 65.5t64 24.5z" />
    <glyph glyph-name="odieresis" unicode="&#xa8;o" horiz-adv-x="841" 
d="M502 829q-139 0 -213 -141t-74 -381q0 -106 29.5 -154.5t97.5 -48.5q135 0 209 143.5t74 385.5q0 104 -28.5 150t-94.5 46zM768 636.5q0 -280.5 -119 -458.5t-330 -196q-126 16 -185.5 96t-59.5 227q0 281 122.5 459t331.5 190h17q223 -37 223 -317.5zM702 1327
q82 0 82 -84q0 -41 -23.5 -65.5t-62.5 -24.5q-84 0 -84 84q0 41 24 65.5t64 24.5zM375 1329q39 0 61.5 -23.5t22.5 -62.5t-23.5 -64.5t-62.5 -25.5q-84 0 -84 86q0 41 23.5 65.5t62.5 24.5z" />
    <glyph glyph-name="yacute" unicode="&#xb4;y" horiz-adv-x="833" 
d="M815 765.5q0 -106.5 -100 -284.5l-236 -415q-143 -252 -265 -358.5t-257 -106.5q-82 0 -160 32l-8 131l16 13q82 -31 150 -31q184 0 344 240l-184 948l149 14l121 -766h27l184 350q74 137 74 216.5t-49 146.5l6 20l141 33q47 -76 47 -182.5zM303 1065l-43 61
q195 162 332 297l18 -2l58 -80l-4 -18q-205 -162 -345 -260z" />
    <glyph glyph-name="Itilde" unicode="&#x7e;I" horiz-adv-x="530" 
d="M326 408l-43 -408h-154l57 395l107 916h153zM520 1636q41 0 109 93h16l47 -52v-14l-112 -137l-17 -6q-39 6 -145.5 39.5t-120.5 33.5q-25 0 -43 -18l-18 -19q-8 -8 -23.5 -26.5t-24.5 -28.5h-14l-49 51v15l113 135l16 8q39 -6 145.5 -40t120.5 -34z" />
    <glyph glyph-name="itilde" unicode="&#x7e;i" horiz-adv-x="446" 
d="M254 223l-8 -217l-156 -14l107 743l8 199l151 14zM205 1221q-41 0 -109 -93h-14l-49 52v14l112 135l17 8q39 -6 145.5 -39.5t120.5 -33.5q25 0 43 18l19 18q8 8 23 27t24 29h16l47 -51v-15l-113 -137l-16 -6q-39 6 -145.5 40t-120.5 34z" />
    <glyph glyph-name="Utilde" unicode="&#x7e;U" horiz-adv-x="1222" 
d="M573 -14q-211 0 -321.5 100t-110.5 283q0 59 9 110l24 178l78 654h151l-108 -813q-6 -49 -6 -92q0 -283 278 -283q326 0 365 356l96 832h154l-107 -815q-27 -244 -159 -377t-343 -133zM623.5 1599q-17.5 0 -26.5 -4t-21.5 -14t-21.5 -19.5t-26.5 -27.5t-27.5 -29h-19
l-47 51v15l125 137l19 6q43 -4 166.5 -39t141 -35t27 4.5t22.5 14.5t21.5 18.5t26.5 27.5t29 30h14l49 -52v-14l-125 -137l-18 -8q-41 4 -166 39.5t-142.5 35.5z" />
    <glyph glyph-name="utilde" unicode="&#x7e;u" horiz-adv-x="964" 
d="M295 160q61 0 167.5 146.5t239.5 422.5v6l11 199l151 14l-102 -725l-8 -217l-156 -14l64 459h-13q-193 -330 -358 -459h-23q-70 16 -114.5 61t-42.5 115l2 27l84 528l16 215l152 12l-107 -686l-4 -43q-2 -61 41 -61zM445.5 1227q-17.5 0 -26.5 -4t-21.5 -14.5
t-21.5 -19.5t-26.5 -27.5t-27.5 -28.5h-19l-47 51v14l125 137l18 6q43 -4 167 -38.5t141.5 -34.5t26.5 4q23 10 55 44t45 46h14l49 -51v-15l-125 -137l-18 -8q-41 4 -166 40t-142.5 36z" />
    <glyph glyph-name="Etilde" unicode="&#x7e;E" horiz-adv-x="944" 
d="M430 1180l-57 -443l235 -4l205 6l10 -14l-28 -119l-217 4l-224 -2l-26 -200l-31 -277l252 -4l297 8l6 -14l-27 -121h-696l59 395l107 916h698l6 -15l-26 -120l-291 8zM813 1640q29 0 115 95h14l49 -52v-14l-125 -137l-18 -8q-41 4 -166 39.5t-142.5 35.5t-26.5 -4
t-21.5 -14t-21.5 -19.5t-26.5 -27.5t-27.5 -29h-19l-47 51v15l125 137l19 6q43 -4 166.5 -39t152.5 -35z" />
    <glyph glyph-name="etilde" unicode="&#x7e;e" horiz-adv-x="765" 
d="M483.5 844q-98.5 0 -170.5 -101.5t-92 -271.5q360 119 361 289q0 84 -98.5 84zM719 770q0 -242 -504 -412q0 -244 129 -243q68 0 134.5 53t111.5 139l24 -2l52 -72q-141 -207 -320 -247h-27q-250 20 -249 329q0 272 127 451.5t329 187.5q193 -20 193 -184zM386 1229
q-17 0 -26.5 -4t-21.5 -14.5t-21.5 -19.5t-27 -27.5t-27.5 -28.5h-18l-47 51v14l125 137l18 6q43 -4 167 -38.5t141 -34.5q16 0 26 4q23 10 54 42.5t46 47.5h14l50 -51v-15l-125 -137l-19 -8q-41 4 -166 40t-142 36z" />
    <glyph glyph-name="Ytilde" unicode="&#x7e;Y" horiz-adv-x="1028" 
d="M567 477l-14 -94l-43 -383h-154l60 383l10 96l-291 832h162l14 -72l201 -596h14l373 592l39 76h168zM798.5 1640q28.5 0 114.5 95h15l49 -52v-14l-125 -137l-18 -8q-41 4 -166 39.5t-142.5 35.5t-27 -4t-21.5 -14t-21.5 -19.5t-26.5 -27.5t-28 -29h-18l-47 51v15l125 137
l18 6q43 -4 167 -39t152.5 -35z" />
    <glyph glyph-name="ytilde" unicode="&#x7e;y" horiz-adv-x="833" 
d="M815 765.5q0 -106.5 -100 -284.5l-236 -415q-143 -252 -265 -358.5t-257 -106.5q-82 0 -160 32l-8 131l16 13q82 -31 150 -31q184 0 344 240l-184 948l149 14l121 -766h27l184 350q74 137 74 216.5t-49 146.5l6 20l141 33q47 -76 47 -182.5zM590.5 1268q17.5 0 27 4
t22.5 14t21.5 18.5t27 28t28.5 29.5h14l49 -51v-15l-125 -137l-18 -8q-41 4 -166 40t-142.5 36t-26.5 -4t-21.5 -14.5t-21.5 -19.5t-26.5 -27.5t-27.5 -28.5h-19l-47 51v14l125 137l19 6q43 -4 166.5 -38.5t141 -34.5z" />
    <glyph glyph-name="fi" unicode="fi" horiz-adv-x="1019" 
d="M646 1329q-86 0 -140 -60q-55 -60 -70 -169l-24 -178h379l118 26l15 -8l-101 -717l-10 -217l-156 -14l107 743l4 84h-371l-116 -848l-11 -219l-155 -12l151 1079h-141l-10 10l12 93h154l18 139q29 189 119 285t256 96l217 -45l6 -15l-37 -120l-24 -5q-104 72 -190 72z
" />
    <glyph glyph-name="fl" unicode="fl" horiz-adv-x="1030" 
d="M1001 1442l-170 -1219l-10 -217l-153 -14l174 1237l2 82q-102 31 -188 31t-144 -60q-57 -59 -74 -170l-26 -190h221l12 -17l-14 -86h-234l-116 -848l-11 -219l-153 -12l149 1079h-141l-10 10l14 93h152l20 153q57 381 391 381l195 -24z" />
    <glyph glyph-name="f_j" unicode="fj" horiz-adv-x="1024" 
d="M644 1329q-86 0 -139 -59q-54 -59 -69 -170l-24 -178h376l121 26l13 -8l-103 -719l-18 -184q-20 -160 -85 -256t-204 -178l-49 69l2 19q94 67 138 141t59 197l100 706l4 84h-369l-116 -848l-11 -219l-155 -12l151 1079h-141l-10 10l12 93h154l18 139q29 189 119 285
t256 96l215 -45l6 -15l-37 -120l-24 -5q-104 72 -190 72z" />
    <glyph glyph-name="Gtilde" unicode="&#x7e;G" horiz-adv-x="1177" 
d="M780 1323q195 0 369 -94l-53 -146l-19 -4q-162 113 -323 113q-246 0 -375 -171t-129 -499q0 -207 86 -305t266 -98q104 0 258 49l27 160l20 184l144 12l-25 -176l-29 -285q-225 -78 -405 -77q-246 0 -373 136t-127 386q0 389 180 602t508 213zM742 1675q124 -35 150 -35
t48 22t40 42t30 31h14l49 -52v-14l-125 -137l-18 -8q-41 4 -166 40t-150 35t-56 -31q-30 -30 -60 -63h-19l-47 51v15l125 137l18 6q43 -4 167 -39z" />
    <glyph glyph-name="gtilde" unicode="&#x7e;g" horiz-adv-x="903" 
d="M262 -289q102 0 182 84q82 84 103 242l55 393h-22q-145 -254 -301 -381l-209 -155q-20 -16 -21 -35q2 -55 56 -102q55 -46 157 -46zM298 193q16 0 66 58t128 183t151 281l2 20l2 45l-125 47q-135 0 -211 -125t-75 -311q0 -133 34 -181q12 -17 28 -17zM98 340
q0 229 119 402t334 208h10l127 -45l96 49l21 -12l-100 -711l-17 -153q-31 -225 -163 -354t-312 -130q-131 0 -217 75t-111 212l9 17l286 180l2 18q-84 76 -84 244zM569 1191q-125 36 -147 36t-46 -21q-23 -21 -42 -42q-20 -21 -31 -31h-18l-47 51v14l124 137l19 6
q43 -5 167 -39t141 -34t33 7t49 41q33 35 44 46h14l50 -51v-15l-125 -137l-19 -8q-41 4 -166 40z" />
    <glyph glyph-name=".notdef" horiz-adv-x="342" 
 />
    <glyph glyph-name=".null" horiz-adv-x="0" 
 />
    <glyph glyph-name="nonmarkingreturn" horiz-adv-x="681" 
 />
    <glyph glyph-name="space" unicode=" " horiz-adv-x="299" 
 />
    <glyph glyph-name="exclam" unicode="!" horiz-adv-x="534" 
d="M232 172q90 0 88 -87q0 -42 -26 -69q-24 -27 -67 -26q-86 0 -86 90q1 40 25 66t66 26zM473 1331l-151 -889l-95 -10l-14 21l109 874l18 19l119 6z" />
    <glyph glyph-name="quotedbl" unicode="&#x22;" horiz-adv-x="571" 
d="M586 1294l-94 -368l-80 -13l-13 15l58 370l118 9zM346 1294l-92 -368l-80 -13l-12 15l55 370l121 9z" />
    <glyph glyph-name="numbersign" unicode="#" horiz-adv-x="1050" 
d="M657 750h-225l-55 -242h225zM762 750l-55 -242h219l10 -10l-8 -84h-244l-78 -348h-90l-10 14l76 334h-228l-78 -348h-90l-10 14l76 334h-199l-12 10l8 84h223l56 242h-203l-12 10l8 84h227l76 332h90l10 -15l-71 -317h225l76 332h90l10 -15l-72 -317h215l13 -10l-11 -84
h-237z" />
    <glyph glyph-name="dollar" unicode="$" horiz-adv-x="872" 
d="M602 274q0 80 -119 146l-43 -320q72 20 117 70t45 104zM283 748q0 -82 129 -148l43 318q-80 -12 -126 -62t-46 -108zM729 299q0 -109 -82 -196t-221 -107l-33 -260h-78l-12 14l29 240q-158 4 -275 69l25 131l20 9q94 -96 242 -109l51 373q-181 82 -220 169q-19 42 -19 95
q0 111 86 196t227 99l35 287h76l18 -17l-37 -268q104 -4 211 -47l-35 -125l-22 -6q-84 68 -164 76l-49 -365q167 -75 209 -166q18 -41 18 -92z" />
    <glyph glyph-name="percent" unicode="%" horiz-adv-x="1697" 
d="M1325 606q-113 0 -171 -82t-58 -229q0 -201 164 -201q115 0 174 81t59 228q0 203 -168 203zM1348 713q122 0 188 -73t66 -210q0 -206 -94 -322t-265 -116q-123 0 -189 74t-65 208q0 205 94 322q95 117 265 117zM475 1212q-113 0 -171 -80t-58 -229q0 -203 164 -203
q115 0 174 81t59 229q0 202 -168 202zM498 1319q124 0 188 -73t64 -208q0 -208 -92 -324t-267 -116q-123 0 -187 74t-65 211q-1 207 93 321t266 115zM1427 1348l9 -27l-1155 -1507l-62 39l-8 24l1155 1509z" />
    <glyph glyph-name="ampersand" unicode="&#x26;" horiz-adv-x="1300" 
d="M270 324q0 -104 79 -166t231 -62t241 87q90 87 90 231t-90 219l-301 -12q-250 -111 -250 -297zM684 1329q156 0 322 -74l-41 -131l-25 -4q-142 88 -276 88t-206 -62t-71 -170q0 -108 56 -170t153 -71l571 31l193 25l14 -23l-33 -111l-352 -16l-4 -10q61 -90 62 -219
q-1 -184 -133 -308t-349 -122q-217 0 -333 87t-115 232q0 240 303 373v8q-172 82 -172 287q0 164 116 262t320 98z" />
    <glyph glyph-name="quotesingle" unicode="'" horiz-adv-x="331" 
d="M346 1294l-92 -368l-80 -13l-12 15l55 370l121 9z" />
    <glyph glyph-name="parenleft" unicode="(" horiz-adv-x="587" 
d="M260 278q0 -156 46 -279q46 -124 161 -222l-2 -15l-64 -51h-14q-137 111 -194 248t-57 313q-2 788 454 1084h14l51 -51l-2 -15q-393 -271 -393 -1012z" />
    <glyph glyph-name="parenright" unicode=")" horiz-adv-x="587" 
d="M469 795q0 -785 -455 -1084h-14l-51 51l2 15q393 271 393 1011q0 154 -47 278t-160 224l2 15l64 51h14q137 -113 195 -249t57 -312z" />
    <glyph glyph-name="asterisk" unicode="*" horiz-adv-x="765" 
d="M453 1071l2 -18l-123 -189q-41 14 -107 54v14l172 170zM559 1102l127 -187q-27 -47 -82 -84l-14 3l-94 227l47 43zM549 1221l205 73q39 -57 51 -106l-6 -8l-230 -35l-26 59zM408 1217l-11 -66l-16 -6l-205 69q0 76 17 119l14 4zM559 1487l-45 -244l-65 -8l-11 14l-2 232
q55 18 115 18z" />
    <glyph glyph-name="plus" unicode="+" horiz-adv-x="976" 
d="M604 958l-45 -360h359l12 -12l-21 -97h-364l-43 -364l-99 -8l-10 12l43 360h-360l-10 13l22 96h361l45 365l98 8z" />
    <glyph glyph-name="comma" unicode="," horiz-adv-x="468" 
d="M285 37q0 -131 -189 -268l-51 49v12q113 90 113 180q0 53 -64 94v17q50 33 107 51q84 -53 84 -135z" />
    <glyph glyph-name="hyphen" unicode="-" horiz-adv-x="630" 
d="M586 598l-13 -98l-503 -70l-13 14l13 99l503 69z" />
    <glyph glyph-name="period" unicode="." horiz-adv-x="471" 
d="M98 80q0 40 24 66t66 26q41 0 65 -22q23 -22 23 -65q0 -42 -24 -69q-24 -26 -66 -26q-40 0 -64 24t-24 66z" />
    <glyph glyph-name="slash" unicode="/" horiz-adv-x="589" 
d="M643 1370l-532 -1601h-107l-10 16l532 1604h105z" />
    <glyph glyph-name="zero" unicode="0" horiz-adv-x="1089" 
d="M594 891q-180 0 -276 -119t-97 -326q0 -324 283 -323q180 0 277 116t98 322q0 330 -285 330zM614 1030q188 0 289 -110q100 -111 101 -334q0 -272 -136 -436t-379 -164q-190 0 -290 110t-101 332q0 270 137 436t379 166z" />
    <glyph glyph-name="one" unicode="1" horiz-adv-x="702" 
d="M520 1010l-82 -586l-43 -424h-153l57 406l53 446l-276 -78l-13 10l15 121l422 121z" />
    <glyph glyph-name="two" unicode="2" horiz-adv-x="929" 
d="M524 1026q115 0 188 -59q72 -59 72 -149t-66 -183q-66 -94 -247 -285l-213 -223l4 -6h381l174 12l8 -12l-37 -129l-202 8h-461l-76 -4l-10 8l14 96l318 320q141 141 200 218t59 134t-38 90q-39 33 -107 33q-152 0 -299 -141h-18l-8 118q184 154 364 154z" />
    <glyph glyph-name="three" unicode="3" horiz-adv-x="841" 
d="M428 1028q146 0 228 -66q81 -66 81 -164q-1 -100 -65 -189t-183 -144v-6q221 -59 222 -258q-1 -170 -145 -285t-361 -115q-106 0 -205 21l6 137l17 12q94 -47 198 -47q152 0 246 73t94 193q0 86 -63 136t-183 55h-118l-9 12l19 107l88 2q96 0 189 75t94 181q0 66 -44 104
t-120 39q-121 0 -273 -123h-16l-8 123q165 127 311 127z" />
    <glyph glyph-name="four" unicode="4" horiz-adv-x="980" 
d="M170 281h393l70 550h-12zM891 266l-23 -108l-184 4h-10l-37 -338l-12 -12l-117 -11l-8 11l47 350h-387l-131 -4l-11 14l13 104l602 744h145l-92 -739h195z" />
    <glyph glyph-name="five" unicode="5" horiz-adv-x="851" 
d="M729 227q1 -180 -151 -304t-375 -124q-84 0 -195 19l4 137l15 12q109 -47 211 -47q154 0 248 82t96 209q0 162 -228 209l-190 37l-12 14l65 528l29 25l108 -4h277l184 6l6 -10l-28 -123l-13 -10l-145 10h-309l-43 -328l127 -26q319 -68 319 -312z" />
    <glyph glyph-name="six" unicode="6" horiz-adv-x="958" 
d="M518 598q-150 0 -285 -123q-6 -49 -6 -96q0 -281 230 -281q141 0 202 85t61 193t-51 166q-53 56 -151 56zM554 713q132 0 220 -89t88 -225t-84 -264q-43 -67 -128 -109t-199 -42q-178 0 -272 102q-93 102 -93 281q0 231 152 455q78 116 221 220t336 175h10l117 -72
l-2 -17q-516 -166 -648 -495l11 -12q139 92 271 92z" />
    <glyph glyph-name="seven" unicode="7" horiz-adv-x="851" 
d="M303 1020h471l86 4l-12 -115l-510 -880l-121 -238l-123 39l-4 25l606 1036h-434l-153 -14l-11 16l27 131z" />
    <glyph glyph-name="eight" unicode="8" horiz-adv-x="970" 
d="M717 322q-1 94 -59 142t-181 97q-117 -45 -169 -82q-97 -68 -96 -171t61 -158q60 -56 175 -56t192 67t77 161zM553 1102q-98 0 -165 -58q-66 -58 -66 -148q0 -89 48 -135t144 -87q106 43 170 101q63 58 64 155q0 172 -195 172zM195 877q0 151 102 243q103 92 255 92
t236 -72t84 -198q0 -201 -239 -309l-2 -10q103 -51 159 -113t56 -174q0 -154 -113 -252t-286 -98t-269 81t-96 208t75 201t205 132l3 8q-82 46 -126 104t-44 157z" />
    <glyph glyph-name="nine" unicode="9" horiz-adv-x="958" 
d="M451 424q152 0 284 123q6 49 6 96q0 281 -229 281q-140 0 -202 -85t-62 -193t52 -166q53 -56 151 -56zM883 655q0 -231 -152 -455q-78 -116 -221 -220t-336 -175h-10l-117 72l2 17q516 166 647 495l-10 12q-137 -92 -270 -92t-220 89q-87 90 -87 212q0 200 124 326
q103 102 283 102t274 -102t93 -281z" />
    <glyph glyph-name="colon" unicode=":" horiz-adv-x="468" 
d="M188 172q86 0 86 -86q0 -43 -24 -70q-24 -26 -66 -26q-40 0 -64 24t-24 66q0 40 24 66t68 26zM258 725q84 0 84 -86q0 -43 -25 -69t-65 -25q-88 0 -88 88q0 41 26 67t68 25z" />
    <glyph glyph-name="semicolon" unicode=";" horiz-adv-x="468" 
d="M283 37q0 -129 -189 -268l-53 49v12q113 90 113 180q0 53 -64 94v17q50 33 107 51q86 -53 86 -135zM256 725q84 0 84 -86q0 -43 -25 -69t-65 -25q-88 0 -88 88q0 41 26 67t68 25z" />
    <glyph glyph-name="less" unicode="&#x3c;" horiz-adv-x="1019" 
d="M944 858l-8 -14l-737 -293v-10l669 -275l-34 -88l-19 -12l-745 313l16 127l14 17l820 325z" />
    <glyph glyph-name="equal" unicode="=" horiz-adv-x="978" 
d="M911 416l-8 -97h-833l-13 13l11 96h831zM954 754l-10 -97h-833l-11 13l9 96h833z" />
    <glyph glyph-name="greater" unicode="&#x3e;" horiz-adv-x="1030" 
d="M963 623l12 -17l-14 -127l-826 -313l-14 12l-15 88l742 275v10l-666 293l-6 14l45 90z" />
    <glyph glyph-name="question" unicode="?" horiz-adv-x="677" 
d="M160 80q0 40 24 66t66 26q40 0 64 -22t24 -65q0 -42 -25 -69t-65 -26q-88 0 -88 90zM739 1057q0 -176 -207 -299l-186 -113l-4 -8l-14 -199l-111 -12l-10 14l12 234l12 20l211 119q154 84 154 213q0 190 -379 215l-10 16l41 86l18 11q229 -14 351 -91t122 -206z" />
    <glyph glyph-name="at" unicode="@" horiz-adv-x="1685" 
d="M654 145q20 -1 77 61t143 202t162 313l2 12l2 55l-127 46q-151 -2 -239 -142t-88 -344q0 -203 68 -203zM1622 611q0 -289 -178 -447t-512 -172l61 434h-18q-164 -279 -338 -440h-29q-154 90 -153 321q0 328 218 521q114 101 267 124h10l131 -45l90 45l21 -10l-102 -719
l-7 -119q207 27 320 157t113 343q0 250 -162 400t-434 147q-330 -2 -534 -211t-204 -540t213 -520t574 -189l4 -17l-49 -77q-385 6 -618 217q-232 210 -232 582t237 615q238 243 623 242q312 0 500 -176t188 -466z" />
    <glyph glyph-name="A" unicode="A" horiz-adv-x="1122" 
d="M788 494l-122 657h-15l-307 -657l217 -2zM1024 0h-156l-12 127l-43 235l-278 5l-252 -5l-107 -227l-51 -135h-154l623 1311h176z" />
    <glyph glyph-name="B" unicode="B" horiz-adv-x="1048" 
d="M442 121q174 0 270 74q95 74 95 208q0 180 -213 205l-242 -2l-26 -198l-29 -281q75 -6 145 -6zM805 1014q0 172 -211 172h-160l-63 -449l215 -6q219 50 219 283zM733 684q231 -68 231 -272t-140 -313q-140 -108 -416 -107q-176 0 -277 8h-2l59 395l107 916h2l334 4
q158 0 245 -71t87 -204q-1 -260 -230 -356z" />
    <glyph glyph-name="C" unicode="C" horiz-adv-x="1024" 
d="M737 1323q199 0 334 -100l-49 -142l-16 -4q-119 115 -287 115q-221 0 -342 -169t-121 -478q0 -207 84 -316.5t251 -109.5t331 125l18 -11l-33 -145q-176 -102 -352 -102q-219 0 -339 140t-120 396q0 375 170 588t471 213z" />
    <glyph glyph-name="D" unicode="D" horiz-adv-x="1269" 
d="M575 117q233 0 361.5 171t128.5 492q0 412 -348 412q-137 0 -285 -8l-106 -776l-29 -279q188 -12 278 -12zM1227 809q0 -383 -178.5 -602t-503.5 -219q-201 0 -414 12h-2l59 395l107 916h2l436 10q236 0 365 -133t129 -379z" />
    <glyph glyph-name="E" unicode="E" horiz-adv-x="944" 
d="M430 1180l-57 -443l235 -4l205 6l10 -14l-28 -119l-217 4l-224 -2l-26 -200l-29 -277l250 -4l297 8l6 -14l-27 -121h-696l59 395l107 916h698l6 -15l-26 -120l-291 8z" />
    <glyph glyph-name="F" unicode="F" horiz-adv-x="849" 
d="M430 1180l-61 -467l211 -4l204 4l9 -15l-29 -118l-215 6l-197 -2l-24 -176l-43 -408h-156l59 395l107 916h661l11 -15l-33 -122l-281 10z" />
    <glyph glyph-name="G" unicode="G" horiz-adv-x="1177" 
d="M780 1323q197 0 367 -94l-51 -146l-19 -4q-162 113 -323 113q-246 0 -375 -171t-129 -499q0 -207 86 -305t266 -98q104 0 258 49l27 160l18 184l146 12l-25 -176l-29 -285q-225 -78 -405 -77q-246 0 -373 136t-127 386q0 389 180 602t508 213z" />
    <glyph glyph-name="H" unicode="H" horiz-adv-x="1337" 
d="M1257 1311l-120 -903l-43 -408h-154l57 395l23 201l-348 6l-320 -6l-26 -188l-41 -408h-156l59 395l105 916h156l-80 -580l331 -6l336 6l66 580h155z" />
    <glyph glyph-name="I" unicode="I" horiz-adv-x="530" 
d="M326 408l-41 -408h-156l59 395l105 916h156z" />
    <glyph glyph-name="J" unicode="J" horiz-adv-x="608" 
d="M516 1311l-119 -877l-18 -192q-20 -154 -109.5 -255.5t-283.5 -193.5l-49 86l2 19q147 78 214.5 153.5t82.5 190.5l110 944l-244 -2l-14 14l25 113h403z" />
    <glyph glyph-name="K" unicode="K" horiz-adv-x="1064" 
d="M1139 1311l-584 -619q203 -338 459 -659l-6 -19q-72 -20 -150 -32l-14 10q-283 399 -455 696l2 12l481 500l93 111h174zM326 408l-43 -408h-156l61 395l105 916h156z" />
    <glyph glyph-name="L" unicode="L" horiz-adv-x="811" 
d="M764 115l-27 -115h-612l59 395l105 916h155l-120 -903l-31 -277h465z" />
    <glyph glyph-name="M" unicode="M" horiz-adv-x="1542" 
d="M1360 0h-137l22 399l17 668h-13l-463 -915h-129l-217 915h-14l-145 -655l-86 -412h-132l295 1311h174l41 -199l175 -760h14l383 772l86 187h174z" />
    <glyph glyph-name="N" unicode="N" horiz-adv-x="1337" 
d="M1133 383l-43 -383h-160l-514 1065h-15l-79 -635l-48 -430h-145l57 389l111 922h160l514 -1065h12l131 1059l146 10z" />
    <glyph glyph-name="O" unicode="O" horiz-adv-x="1251" 
d="M719 1196q-465 0 -465 -664q0 -420 324 -419q233 0 351 172t118 497q0 414 -328 414zM737 1325q225 0 348 -137t123 -387q0 -381 -169 -599t-476 -218q-219 0 -343 142t-124 396q0 379 167 591t474 212z" />
    <glyph glyph-name="P" unicode="P" horiz-adv-x="1019" 
d="M852 936q0 129 -54 187t-175 65l-191 -6l-80 -588l223 -4q123 16 200 116t77 230zM487 465h-151l-51 -465h-156l59 395l107 916h2l360 4q164 0 258 -86t95 -254q0 -225 -142 -367t-381 -143z" />
    <glyph glyph-name="Q" unicode="Q" horiz-adv-x="1245" 
d="M254 532q0 -420 324 -419q233 0 351 172t118 497q0 414 -328 414q-465 0 -465 -664zM563 -16q-219 0 -343 142t-124 396q0 379 167 591t474 212q225 0 348 -137t123 -387q0 -315 -118 -522t-338 -271q270 -213 626 -274l2 -23q-33 -63 -65 -98l-15 -4q-406 90 -698 375
h-39z" />
    <glyph glyph-name="R" unicode="R" horiz-adv-x="1083" 
d="M852 971q0 205 -229 217l-193 -6l-76 -559l236 -7q262 80 262 355zM1012 993q0 -156 -83 -276.5t-233 -186.5q117 -248 265 -493l-5 -19q-74 -29 -145 -36l-16 14q-133 256 -230 496h-227l-12 -84l-41 -408h-156l59 395l107 916h2l365 4q166 0 258 -83t92 -239z" />
    <glyph glyph-name="S" unicode="S" horiz-adv-x="923" 
d="M591.5 1323q165.5 0 307.5 -63l-43 -146l-29 -8q-106 90 -230 90t-196.5 -64.5t-72.5 -142.5t51 -133t125 -98t147.5 -92.5t124.5 -125t51 -171.5q0 -162 -128 -272.5t-316 -110.5t-344 92l39 158l20 8q119 -131 297 -131q121 0 199 66.5t78 148.5t-51.5 139t-123 100
t-144 90.5t-124 122t-51.5 172.5q0 158 124 264.5t289.5 106.5z" />
    <glyph glyph-name="T" unicode="T" horiz-adv-x="956" 
d="M1018 1296l-29 -118l-213 10h-129l-104 -780l-43 -408h-154l60 395l88 793h-125l-224 -10l-10 14l29 119h846z" />
    <glyph glyph-name="U" unicode="U" horiz-adv-x="1222" 
d="M573 -14q-211 0 -321.5 100t-110.5 283q0 59 9 110l104 832h149l-108 -813q-6 -49 -6 -92q0 -283 278 -283q324 0 367 356l94 832h154l-107 -815q-25 -244 -158 -377t-344 -133z" />
    <glyph glyph-name="V" unicode="V" horiz-adv-x="1093" 
d="M567 0h-178l-256 1311h158l12 -129l193 -1022h10l479 1016l49 135h152z" />
    <glyph glyph-name="W" unicode="W" horiz-adv-x="1738" 
d="M1214 0h-157l-148 774h-14l-352 -774h-162l-236 1311h154l4 -121l182 -1018h15l368 809l-65 330h160l12 -135l182 -1004h14l465 1008l45 131h146z" />
    <glyph glyph-name="X" unicode="X" horiz-adv-x="1148" 
d="M694 674l332 -674h-178l-39 104l-236 459l-356 -469l-61 -94h-164l506 672l-320 639h178l39 -101l217 -428l324 428l63 101h166z" />
    <glyph glyph-name="Y" unicode="Y" horiz-adv-x="1028" 
d="M567 477l-14 -94l-41 -383h-156l60 383l10 94l-291 834h162l14 -72l201 -596h16l371 592l39 76h168z" />
    <glyph glyph-name="Z" unicode="Z" horiz-adv-x="1030" 
d="M1044 1198l-837 -1073h520l184 14l7 -12l-27 -131l-225 4h-549l-111 -6l14 115l840 1075h-487l-185 -13l-8 11l31 131l750 -2l98 2z" />
    <glyph glyph-name="bracketleft" unicode="[" horiz-adv-x="589" 
d="M662 1313l-11 -74l-248 -22l-167 -1375l241 -22l-8 -76l-12 -10l-359 20l103 776l88 775l364 20z" />
    <glyph glyph-name="backslash" unicode="\" horiz-adv-x="595" 
d="M180 1389l420 -1604l-12 -16h-107l-420 1601l15 19h104z" />
    <glyph glyph-name="bracketright" unicode="]" horiz-adv-x="589" 
d="M-55 -254l10 74l248 24l168 1375l-242 20l8 76l13 10l356 -20l-100 -775l-89 -776l-364 -20z" />
    <glyph glyph-name="asciicircum" unicode="^" horiz-adv-x="866" 
d="M799 272l-13 -16l-92 -20l-194 653h-11l-370 -649l-19 -11l-82 35l412 733l19 9h129z" />
    <glyph glyph-name="underscore" unicode="_" horiz-adv-x="923" 
d="M872 -190l-20 -93h-963l-10 13l21 90h962z" />
    <glyph glyph-name="grave" unicode="`" 
d="M346 1421l16 2q143 -137 334 -297l-43 -61l-16 -2q-158 111 -346 260l-2 18z" />
    <glyph glyph-name="a" unicode="a" horiz-adv-x="899" 
d="M272 154q20 0 74.5 59t136.5 196.5t156 311.5l2 12l2 49l-127 45q-141 0 -225 -138q-84 -139 -84 -337q1 -198 65 -198zM801 942l-101 -719l-10 -217l-155 -14l59 420h-21q-150 -262 -321 -426h-29q-156 88 -155.5 320t126 420.5t353.5 225.5h10l127 -47l98 49z" />
    <glyph glyph-name="b" unicode="b" horiz-adv-x="903" 
d="M692 584.5q0 197.5 -61 197.5q-25 0 -79 -59t-136 -193.5t-156 -306.5l-4 -80l123 -34q143 0 228 139t85 336.5zM645 952h29q156 -92 155.5 -323t-127.5 -420t-354 -223h-8l-133 30l-105 19l168 1194l4 198l156 15l-129 -916h23q141 252 321 426z" />
    <glyph glyph-name="c" unicode="c" horiz-adv-x="684" 
d="M213 350q0 -127 28.5 -181t92.5 -54q113 0 209 186h22l49 -70q-63 -109 -131.5 -164t-160.5 -81h-25q-119 20 -173 93t-54 248t48 312t158.5 224t270.5 87l131 -41l12 -22l-41 -121l-33 -6q-66 72 -137 71q-123 0 -194.5 -129t-71.5 -352z" />
    <glyph glyph-name="d" unicode="d" horiz-adv-x="903" 
d="M272 154q20 0 73.5 59t136.5 194.5t159 307.5l8 65l-129 47q-145 0 -231 -139q-86 -138 -86 -336q1 -198 69 -198zM874 1442l-169 -1219l-11 -217l-155 -14l59 420h-20q-152 -260 -326 -426h-31q-156 88 -155.5 320t128.5 422t355 224h10l109 -39l45 316l6 198z" />
    <glyph glyph-name="e" unicode="e" horiz-adv-x="765" 
d="M483 844q-98 0 -169.5 -101.5t-90.5 -269.5q358 115 359 287q-1 84 -99 84zM719 770q0 -240 -502 -412q0 -244 129 -243q68 0 132.5 53t111.5 139l24 -2l54 -72q-143 -207 -322 -247h-24q-252 20 -252 329q0 272 127 451.5t329 187.5q193 -20 193 -184z" />
    <glyph glyph-name="f" unicode="f" horiz-adv-x="573" 
d="M644 1329q-83 0 -138 -59t-70 -170l-24 -178h221l12 -17l-14 -86h-232l-55 -411l-63 -437l-9 -219l-155 -12l149 1079h-141l-10 10l12 93h154l20 139q51 381 377 381l186 -29l6 -14l-41 -111l-22 -4q-80 45 -163 45z" />
    <glyph glyph-name="g" unicode="g" horiz-adv-x="903" 
d="M260.5 -289q102.5 0 183 84t103.5 242l53 393h-20q-145 -256 -304 -381l-208 -155q-18 -16 -19 -35q2 -55 55.5 -101.5t156 -46.5zM298 193q15 0 65.5 57t127 181t148.5 278l4 26l4 47l-125 45q-135 0 -210.5 -124.5t-75.5 -285.5q0 -224 62 -224zM213 -406
q-131 0 -217 75t-111 212l6 17l289 180l2 18q-84 76 -84 244q0 229 119 402t334 208h10l127 -45l96 49l21 -12l-100 -711l-17 -153q-31 -225 -163 -354.5t-312 -129.5z" />
    <glyph glyph-name="h" unicode="h" horiz-adv-x="960" 
d="M668 782q-59 0 -167 -149.5t-241 -425.5l-10 -201l-156 -14l176 1237l4 198l156 15l-133 -955h18q193 338 357 465h22q72 -16 116 -62t42 -116l-86 -553l-12 -215l-158 -14l113 700l2 27q0 63 -43 63z" />
    <glyph glyph-name="i" unicode="i" horiz-adv-x="446" 
d="M254 223l-8 -217l-156 -14l107 743l8 199l151 14zM322 1354q84 0 84 -88q0 -43 -25 -69t-66 -26t-64.5 25t-23.5 66t26 66.5t69 25.5z" />
    <glyph glyph-name="j" unicode="j" horiz-adv-x="475" 
d="M381 938l-100 -717l-19 -184q-20 -160 -86.5 -256t-212.5 -178l-51 69l2 19q102 68 148.5 140.5t60.5 197.5l100 704l4 86h-153l-11 10l13 93h145l154 20zM340 1354q84 0 84 -88q0 -43 -24.5 -69t-65.5 -26t-64.5 25t-23.5 66t25.5 66.5t68.5 25.5z" />
    <glyph glyph-name="k" unicode="k" horiz-adv-x="946" 
d="M893 750q0 -199 -297 -377q135 -221 235 -359l-8 -14l-127 -25l-14 9q-100 152 -221 381l4 26q279 172 278 322q0 70 -49 69q-68 0 -180.5 -146.5t-255.5 -440.5l-6 -189l-156 -14l174 1237l6 198l156 15l-133 -942h20q117 180 201 285.5t174 162.5l31 2
q168 -34 168 -200z" />
    <glyph glyph-name="l" unicode="l" horiz-adv-x="458" 
d="M260 223l-10 -217l-154 -14l174 1237l6 198l154 15z" />
    <glyph glyph-name="m" unicode="m" horiz-adv-x="1468" 
d="M1176 782q-59 0 -170 -153.5t-246 -435.5l-10 -187l-158 -14l113 700l2 27q0 63 -43 63q-59 0 -167 -149.5t-241 -425.5l-10 -201l-156 -14l107 743l10 199l151 14l-65 -461h18q199 342 357 465h22q72 -16 116 -62t42 -116l-43 -287h18q193 338 357 465h22
q72 -16 116 -62t42 -116l-86 -553l-12 -215l-158 -14l110 700l3 27q4 63 -41 63z" />
    <glyph glyph-name="n" unicode="n" horiz-adv-x="956" 
d="M664 782q-59 0 -167 -149.5t-241 -425.5l-10 -201l-156 -14l107 743l10 199l151 14l-65 -461h18q199 342 357 465h22q72 -16 116 -62t42 -116l-86 -553l-12 -215l-158 -14l113 700l2 27q0 63 -43 63z" />
    <glyph glyph-name="o" unicode="o" horiz-adv-x="841" 
d="M502 829q-139 0 -213 -141t-74 -381q0 -106 28.5 -154.5t96.5 -48.5q137 0 211 143.5t74 385.5q0 104 -28.5 150t-94.5 46zM770 637.5q0 -279.5 -119 -458.5t-329 -197q-248 26 -248 314t122.5 467t331.5 191h17q225 -37 225 -316.5z" />
    <glyph glyph-name="p" unicode="p" horiz-adv-x="894" 
d="M692 584.5q0 197.5 -61 197.5q-25 0 -80 -60t-137 -196.5t-156 -310.5l-10 -70l131 -36q143 0 228 139t85 336.5zM647 952h29q156 -94 155.5 -324t-128.5 -419t-355 -223h-8l-111 24l-22 -166l-10 -223l-156 -14l158 1128l10 199l149 14l-57 -422h23q149 262 323 426z
" />
    <glyph glyph-name="q" unicode="q" horiz-adv-x="897" 
d="M270 154q20 0 74 59q55 59 137 197t156 311l2 12l2 49l-125 45q-143 0 -227 -138q-84 -139 -84 -337q1 -198 65 -198zM799 942l-154 -1102l-10 -219l-156 -14l115 805h-23q-150 -262 -321 -426h-29q-155 88 -155 320t127 422t354 224h8l127 -47l98 49z" />
    <glyph glyph-name="r" unicode="r" horiz-adv-x="671" 
d="M717 942l-31 -205l-14 -6l-17 2q-98 -14 -188 -134t-209 -415l-8 -178l-156 -14l107 743l10 199l149 14l-61 -450h14q152 303 353 448z" />
    <glyph glyph-name="s" unicode="s" horiz-adv-x="649" 
d="M402.5 842q-72.5 0 -116.5 -44t-44 -96.5t48 -99.5t106.5 -82t106.5 -98.5t48 -142.5q0 -125 -98.5 -209t-253.5 -86q-106 14 -205 69l39 146l22 10q86 -117 197 -117q70 0 115 45t45 96.5t-33 91.5t-78 71.5t-91 65.5q-112 83 -112 205t104 204.5t249 78.5
q88 -16 172 -51l-43 -139l-25 -8q-80 90 -152.5 90z" />
    <glyph glyph-name="t" unicode="t" horiz-adv-x="663" 
d="M352 139q74 0 183 158l24 -2l47 -64q-135 -174 -266 -241h-25q-162 29 -159 174l2 33l88 540l8 82h-133l-10 10l10 93h145l25 221l145 65l17 -10l-45 -276h251l13 -17l-10 -86h-271l-94 -575l-4 -37q0 -68 59 -68z" />
    <glyph glyph-name="u" unicode="u" horiz-adv-x="964" 
d="M295 160q59 0 167.5 149.5t239.5 425.5l11 199l151 14l-102 -725l-8 -217l-156 -14l64 459h-15q-190 -328 -356 -459h-23q-72 16 -115.5 61t-41.5 115l2 27l84 528l16 215l152 12l-109 -686l-4 -43q-2 -61 43 -61z" />
    <glyph glyph-name="v" unicode="v" horiz-adv-x="833" 
d="M815 770q0 -96 -90 -248l-307 -522h-168l-103 934l154 14l6 -164l51 -620h15l229 401q68 117 68 188t-49 142l4 20l143 33q47 -82 47 -178z" />
    <glyph glyph-name="w" unicode="w" horiz-adv-x="1396" 
d="M1233 757q0 67 -49 138l6 20l141 33q47 -76 47 -170t-88 -256l-291 -522h-159l-74 731h-16l-326 -731h-166l-111 934l152 14l2 -125l64 -649h14l287 641l47 125h161l7 -117l63 -649h12l211 391q66 125 66 192z" />
    <glyph glyph-name="x" unicode="x" horiz-adv-x="899" 
d="M780 8l-166 -20l-32 102l-144 293l-223 -295l-49 -88h-168l358 485l-211 447l160 18l29 -82l137 -282l209 272l49 82h164l-348 -465z" />
    <glyph glyph-name="y" unicode="y" horiz-adv-x="833" 
d="M815 765.5q0 -106.5 -100 -284.5l-236 -415q-143 -252 -265 -358.5t-257 -106.5q-82 0 -162 32l-6 131l16 13q82 -31 150 -31q180 0 346 242l-186 946l151 14l23 -164l96 -602h27l184 350q74 143 74 217.5t-49 145.5l6 20l141 33q47 -76 47 -182.5z" />
    <glyph glyph-name="z" unicode="z" horiz-adv-x="833" 
d="M471 123q88 0 130 58.5t48 199.5l27 12l74 -41q-8 -186 -81 -279t-202 -93q-55 0 -156.5 33.5t-158 33.5t-113.5 -59h-16l-50 45l586 778l-285 -2l-141 -16l-12 12l31 137l14 10l131 -10l389 -2l51 29l47 -45l-579 -768l59 14q33 0 104.5 -23.5t102.5 -23.5z" />
    <glyph glyph-name="braceleft" unicode="{" horiz-adv-x="589" 
d="M543 1341q45 0 102 -14l6 -12l-26 -86q-45 10 -74 10q-78 0 -115 -50t-37 -163l9 -227q0 -193 -166 -262l-2 -7q115 -53 114 -182q0 -53 -45 -196t-45 -203q0 -123 113 -123q29 0 76 10l6 -84l-10 -12q-45 -14 -105 -14q-205 0 -205 192q0 74 44 224t44 198
q0 127 -147 154l8 79q102 17 148 73t47 165l-7 217q1 313 267 313z" />
    <glyph glyph-name="bar" unicode="|" horiz-adv-x="643" 
d="M524 1622l-266 -2152l-108 -7l-11 17l264 2142l111 10z" />
    <glyph glyph-name="braceright" unicode="}" horiz-adv-x="589" 
d="M63 -274q-43 0 -100 14l-6 12l25 86q47 -10 75 -10q152 0 152 215l-10 225q0 193 166 262l2 7q-113 51 -113 182q0 55 45 199t45 202q0 121 -115 121q-29 0 -75 -10l-7 84l11 12q49 14 104 14q207 0 207 -192q0 -73 -44 -223t-44 -197q0 -129 147 -156l-10 -79
q-102 -16 -147 -72t-45 -166l4 -217q-1 -313 -267 -313z" />
    <glyph glyph-name="asciitilde" unicode="~" horiz-adv-x="983" 
d="M499 484q-157 46 -184 46t-48 -16t-33 -24t-34 -30q-24 -22 -38 -34h-19l-34 53v17l163 145l23 10q43 -6 202 -53t191 -47t133 88q9 8 13 11t6 5h18l35 -53l-2 -16l-164 -150l-20 -4q-51 6 -208 52z" />
    <glyph glyph-name="nbspace" unicode="&#xa0;" horiz-adv-x="299" 
 />
    <glyph glyph-name="exclamdown" unicode="&#xa1;" horiz-adv-x="534" 
d="M66 -383l151 889l94 10l15 -20l-109 -875l-18 -18l-119 -6zM397 868q-1 -40 -25 -66t-65 -26t-65 24t-23 64q0 40 25 68q25 27 67 26q86 0 86 -90z" />
    <glyph glyph-name="cent" unicode="&#xa2;" horiz-adv-x="796" 
d="M207 436q0 -233 119 -252l123 740q-115 -35 -179 -163t-63 -325zM86 416q0 236 95 400t284 206l53 313h76l14 -16l-47 -285h29l139 -41l12 -20l-34 -99l-29 -6q-68 59 -133 66l-125 -739q98 39 176 180l22 -2l41 -58q-109 -172 -256 -223l-57 -336h-76l-10 15l49 307
q-113 20 -168 93t-55 245z" />
    <glyph glyph-name="sterling" unicode="&#xa3;" horiz-adv-x="854" 
d="M631 1214q98 0 215 -36l-23 -117l-10 -10q-98 63 -201 63q-190 0 -219 -211l-26 -217h262l4 -10l-19 -78h-258l-34 -272q-16 -141 -109 -209v-6h342l182 12l6 -12l-26 -115l-197 4h-510l-8 12l16 80q154 29 177 219l34 287h-145l-6 12l18 76h144l24 199q18 161 114 245
t253 84z" />
    <glyph glyph-name="currency" unicode="&#xa4;" horiz-adv-x="892" 
d="M497 936q-85 0 -154 -66t-69 -150t50 -136t137 -52q85 0 153 66t68 151t-50 136t-135 51zM772 751q0 -93 -76 -176l123 -129v-16l-76 -72l-16 2l-115 138q-82 -58 -170 -58t-153 56l-146 -140l-16 2l-64 66l7 18l151 127q-39 53 -39 145t78 183l-123 127l2 18l74 68h16
l115 -139q74 55 167 55t155 -51l145 137h18l62 -65l-4 -19l-152 -129q37 -55 37 -148z" />
    <glyph glyph-name="yen" unicode="&#xa5;" horiz-adv-x="1058" 
d="M993 600l8 -8l-16 -72h-309l-117 -166l-4 -26h403l9 -11l-15 -67h-407l-29 -250h-125l37 250h-369l-8 8l15 70h372l2 37l-63 155h-285l-6 12l14 68h244l-170 418h137l15 -57l190 -457h10l328 452l33 62h135l-291 -418h262z" />
    <glyph glyph-name="brokenbar" unicode="&#xa6;" horiz-adv-x="643" 
d="M362 311l-104 -841l-106 -7l-13 17l105 835l106 13zM524 1622l-106 -860l-109 -12l-12 12l106 860l111 10z" />
    <glyph glyph-name="section" unicode="&#xa7;" horiz-adv-x="860" 
d="M651 516q0 68 -46 113t-110 93q-63 48 -83 64q-170 -80 -170 -186q0 -78 107 -162q24 -18 70 -52t66 -50q166 71 166 180zM584 1217q-86 1 -142 -49t-55 -106t63 -116t136 -105q74 -46 136 -123t62 -164t-59 -164t-162 -124q80 -84 80 -192q1 -108 -107 -195
q-108 -88 -258 -88t-264 68l33 131l19 10q104 -104 235 -104q90 0 149 49q58 49 58 103t-41 102t-100 88q-59 41 -119 86q-142 108 -142 239q0 88 62 167t164 128q-78 78 -78 184t103 194q103 87 255 87q111 0 215 -45l-34 -129l-23 -6q-100 74 -186 74z" />
    <glyph glyph-name="dieresis" unicode="&#xa8;" 
d="M571 1237q0 41 24 65t64 25q39 -1 61 -23t22 -62t-24 -64t-63 -25q-84 0 -84 84zM332 1329q40 1 62 -23t22 -63t-24 -65t-62 -25q-84 0 -84 86q0 41 23 66q24 24 63 24z" />
    <glyph glyph-name="copyright" unicode="&#xa9;" horiz-adv-x="1415" 
d="M754 952q96 0 190 -47l-22 -88l-11 -4q-70 47 -161 47q-215 0 -215 -255t213 -255q94 0 176 49l12 -4l-8 -90q-98 -47 -187 -47q-157 0 -237 88t-80 256t85 259t245 91zM723 1157q-242 1 -390 -153q-149 -154 -149 -404t148 -404t391 -153q242 0 389 154q148 153 148 403
t-148 404t-389 153zM723 1225q272 0 438 -172t166 -453t-166 -453t-438 -172t-439 172t-167 453t167 453t439 172z" />
    <glyph glyph-name="ordfeminine" unicode="&#xaa;" horiz-adv-x="638" 
d="M288 797q10 1 42 37q75 87 176 296l6 44l4 40l-88 17q-86 -2 -135 -86t-49 -216t44 -132zM129 887q0 160 82 282.5t233 151.5h9l102 -14l78 20l14 -8l-65 -479l-11 -148l-122 -8l36 279h-16q-90 -178 -197 -281h-22q-68 27 -94.5 74t-26.5 131z" />
    <glyph glyph-name="guillemetleft" unicode="&#xab;" horiz-adv-x="808" 
d="M412 451l4 32l342 346l67 -41v-20l-295 -305l222 -307l-7 -19l-77 -43zM76 451l4 32l342 346l67 -41v-20l-294 -305l221 -307l-6 -19l-78 -43z" />
    <glyph glyph-name="logicalnot" unicode="&#xac;" horiz-adv-x="983" 
d="M881 584l-56 -459l-96 -8l-14 12l45 360h-686l-8 13l18 96h786z" />
    <glyph glyph-name="softhyphen" unicode="&#xad;" horiz-adv-x="630" 
d="M586 598l-13 -98l-503 -70l-13 14l13 99l503 69z" />
    <glyph glyph-name="registered" unicode="&#xae;" horiz-adv-x="899" 
d="M522 1155q0 66 -80 70l-53 -2l-2 -140l72 -4q63 20 63 76zM385 1024v-14l2 -127h-70l2 118l-2 279h146q133 0 133 -119q0 -80 -82 -119q45 -70 107 -145v-6q-27 -10 -70 -14q-20 15 -96 147h-70zM451 748q143 0 231 88t88 232t-87 230t-231 86t-232 -86t-87 -230
q-1 -144 87 -232t231 -88zM451 1438q168 0 269 -102t101 -268q0 -167 -101 -269q-101 -103 -269 -103q-169 0 -271 102t-102 270q0 166 102 268t271 102z" />
    <glyph glyph-name="macron" unicode="&#xaf;" 
d="M795 1284l-11 -92h-579l-12 12l10 90h579z" />
    <glyph glyph-name="degree" unicode="&#xb0;" horiz-adv-x="602" 
d="M389 1247q-74 0 -135 -57t-61 -130t46 -120q45 -47 119 -47t136 58q61 58 61 131t-46 119t-120 46zM396 1325q108 1 172 -65t65 -172q0 -106 -86 -188q-85 -83 -193 -83t-174 65t-66 171t88 189q86 83 194 83z" />
    <glyph glyph-name="plusminus" unicode="&#xb1;" horiz-adv-x="978" 
d="M844 -86l-10 -96h-834l-10 10l8 96h833zM604 958l-45 -360h359l12 -12l-21 -97h-364l-43 -364l-99 -8l-12 12l45 360h-360l-10 13l22 96h361l45 365l98 8z" />
    <glyph glyph-name="twosuperior" unicode="&#xb2;" horiz-adv-x="712" 
d="M422 1440q88 0 148 -45t60 -113t-47 -137q-48 -70 -169 -197l-168 -180l2 -4h268l133 6l4 -12l-24 -103l-164 7h-340l-55 -3l-9 7l9 77l233 236q106 111 150 167q43 56 43 98t-27 67t-76 24q-106 0 -217 -106h-14l-10 98q137 113 270 113z" />
    <glyph glyph-name="threesuperior" unicode="&#xb3;" horiz-adv-x="628" 
d="M398 1442q98 0 160 -46t62 -110t-39 -120q-40 -54 -116 -85l-2 -6q141 -37 141 -159t-98 -192t-254 -71q-80 0 -137 15l4 94l10 6q94 -16 137 -16q96 0 155 41q58 41 58 108q0 106 -147 113h-84l-8 8l14 88h61q61 0 117 43q55 43 55 92q0 96 -104 94q-78 0 -174 -65h-14
l-11 88q117 80 214 80z" />
    <glyph glyph-name="acute" unicode="&#xb4;" 
d="M639 1421l57 -80l-4 -18q-205 -162 -344 -260l-16 2l-43 61q195 162 332 297z" />
    <glyph glyph-name="micro" unicode="&#xb5;" horiz-adv-x="983" 
d="M303 150q59 0 173 156t251 448l10 180l144 12l-101 -723l-10 -217l-147 -14l65 471h-16q-205 -348 -371 -473h-22q-29 6 -50 18l-24 -168l-10 -223l-148 -14l158 1132l8 199l145 12l-98 -717l-4 -24q2 -55 47 -55z" />
    <glyph glyph-name="paragraph" unicode="&#xb6;" horiz-adv-x="991" 
d="M293 864q0 -231 244 -301l-62 -90q-166 35 -254 132t-88 249q0 213 138 335t376 122h379l10 -15l-24 -106h-152l-106 -819l-13 -107q-16 -135 -103 -235t-267 -185l-39 70l4 18q240 135 260 322l113 938h-121q-139 -12 -217 -99t-78 -229z" />
    <glyph glyph-name="periodcentered" unicode="&#xb7;" horiz-adv-x="471" 
d="M244 592q84 0 84 -88q0 -43 -25 -69q-25 -25 -65 -25t-65 24q-24 24 -23 66q0 40 26 66t68 26z" />
    <glyph glyph-name="cedilla" unicode="&#xb8;" 
d="M459 -254q0 -66 -45 -102q-45 -37 -125 -37t-139 63l16 78l10 4q53 -63 117 -63t63 55q0 31 -45 51l-96 60l49 184h92l-43 -145l68 -41q78 -41 78 -107z" />
    <glyph glyph-name="onesuperior" unicode="&#xb9;" horiz-adv-x="526" 
d="M461 1430l-64 -496l-30 -272h-129l79 636l-182 -45l-8 9l12 100l307 82z" />
    <glyph glyph-name="ordmasculine" unicode="&#xba;" horiz-adv-x="606" 
d="M418 1233q-84 0 -129 -91q-45 -92 -45 -232t75 -140q82 0 125 89q44 89 44 231t-70 143zM127 890q0 192 84 311q84 118 225 124h15q155 -25 155 -213t-83 -306t-226 -126l-12 2q-158 16 -158 208z" />
    <glyph glyph-name="guillemetright" unicode="&#xbb;" 
d="M739 475l-4 -33l-340 -346l-69 41v21l295 305l-222 307l7 18l77 43zM403 475l-4 -33l-342 -346l-69 41l2 21l293 305l-220 307l7 18l77 43z" />
    <glyph glyph-name="onequarter" unicode="&#xbc;" horiz-adv-x="1429" 
d="M866 309h238l41 316h-10zM1321 207l-123 4l-18 -201l-9 -10l-104 -6l-6 8l29 209h-244l-101 -4l-8 12l11 82l401 471h119l-60 -463h123l8 -12zM119 1133l-8 8l12 100l307 82l14 -14l-63 -496l-31 -272h-129l35 258l45 379zM1245 1321l-1155 -1507l-61 39l-9 24l1156 1509
l61 -38z" />
    <glyph glyph-name="onehalf" unicode="&#xbd;" horiz-adv-x="1454" 
d="M1126 778q88 0 148 -45t61 -113q0 -68 -48 -137q-48 -70 -169 -196l-168 -181l2 -4h269l133 7l4 -13l-25 -102l-164 6h-340l-55 -2l-8 6l8 78l234 235q106 111 149 167t43 98t-26 68q-26 24 -76 24q-106 0 -217 -107h-15l-10 99q137 112 270 112zM444 1309l-63 -496
l-31 -272h-129l35 258l45 379l-182 -45l-8 8l12 100l307 82zM1237 1348l8 -27l-1155 -1507l-61 39l-9 24l1156 1509z" />
    <glyph glyph-name="threequarters" unicode="&#xbe;" horiz-adv-x="1505" 
d="M942 309h238l41 316h-11zM1397 207l-123 4l-19 -201l-8 -10l-104 -6l-6 8l28 209h-243l-101 -4l-8 12l10 82l402 471h118l-59 -463h123l8 -12zM571 795q0 -123 -98 -193t-254 -70q-80 0 -137 15l4 94l10 6q94 -16 137 -16q96 0 155 41q58 41 58 108q0 106 -147 113h-84
l-8 8l14 88h62q61 0 116 43q55 42 55 92q1 94 -104 95q-78 0 -174 -66h-14l-10 88q117 80 214 80t159 -46q63 -47 63 -111t-40 -118t-116 -85l-2 -7q141 -37 141 -159zM1321 1321l-1155 -1507l-62 39l-8 24l1155 1509l62 -38z" />
    <glyph glyph-name="questiondown" unicode="&#xbf;" horiz-adv-x="677" 
d="M-53 -109q0 176 207 299l186 113l4 8l14 199l111 12l10 -14l-12 -234l-12 -20l-211 -119q-154 -84 -154 -213q0 -190 379 -215l10 -16l-41 -86l-18 -11q-229 14 -351 92t-122 205zM526 868q0 -40 -24 -66t-67 -26t-65 24t-22 64t25 68q25 27 65 26q88 0 88 -90z" />
    <glyph glyph-name="Agrave" unicode="&#xc0;" horiz-adv-x="1122" 
d="M788 494l-120 657h-15l-309 -657l219 -2zM1026 0h-156l-14 127l-43 235l-278 5l-252 -5l-107 -227l-49 -135h-154l623 1311h176zM907 1489l-18 -8q-227 96 -395 176l-7 16l39 90l19 4q152 -88 391 -208z" />
    <glyph glyph-name="Aacute" unicode="&#xc1;" horiz-adv-x="1122" 
d="M788 494l-120 657h-15l-309 -657l219 -2zM1026 0h-156l-14 127l-43 235l-278 5l-252 -5l-107 -227l-49 -135h-154l623 1311h176zM537 1483l-29 69q217 109 391 211l16 -4l41 -90l-6 -18q-80 -39 -395 -176z" />
    <glyph glyph-name="Acircumflex" unicode="&#xc2;" horiz-adv-x="1122" 
d="M788 494l-120 657h-15l-309 -657l219 -2zM1026 0h-156l-14 127l-43 235l-278 5l-252 -5l-107 -227l-49 -135h-154l623 1311h176zM477 1499l-24 68q115 70 256 182h45q84 -82 217 -182l-41 -68h-17q-88 59 -190 137q-131 -82 -227 -137h-19z" />
    <glyph glyph-name="Atilde" unicode="&#xc3;" horiz-adv-x="1122" 
d="M788 494l-120 657h-15l-309 -657l219 -2zM772 1311l254 -1311h-156l-14 127l-43 235l-278 5l-252 -5l-107 -227l-49 -135h-154l623 1311h176zM578.5 1599q-17.5 0 -26.5 -4t-21.5 -14t-21.5 -19.5t-26.5 -27.5t-27.5 -29h-19l-47 51v15l125 137l18 6q43 -4 167 -39
t141.5 -35t27 4.5t22.5 14.5t21.5 18.5t26.5 27.5t29 30h14l49 -52v-14l-125 -137l-18 -8q-41 4 -166 39.5t-142.5 35.5z" />
    <glyph glyph-name="Adieresis" unicode="&#xc4;" horiz-adv-x="1122" 
d="M788 494l-120 657h-15l-309 -657l219 -2zM1026 0h-156l-14 127l-43 235l-278 5l-252 -5l-107 -227l-49 -135h-154l623 1311h176zM872 1526q-84 0 -84 84q0 41 24 65.5t64 24.5q82 0 82 -84q0 -41 -23.5 -65.5t-62.5 -24.5zM547 1526q-84 0 -84 86q0 41 23.5 65.5
t62.5 24.5t61.5 -23.5t22.5 -62.5t-23.5 -64.5t-62.5 -25.5z" />
    <glyph glyph-name="Aring" unicode="&#xc5;" horiz-adv-x="1122" 
d="M788 494l-120 657h-15l-309 -657l219 -2zM1026 0h-156l-14 127l-43 235l-278 5l-252 -5l-107 -227l-49 -135h-154l623 1311h176zM711 1718q-92 0 -93 -88q0 -45 26 -69.5t68 -24.5t67.5 23.5t25.5 65.5t-24.5 67.5t-69.5 25.5zM708.5 1462q-73.5 0 -119.5 44t-46 121
t45 123t125 46t124 -46t44 -122t-49.5 -121t-123 -45z" />
    <glyph glyph-name="AE" unicode="&#xc6;" horiz-adv-x="1568" 
d="M791 655l-9 496h-10l-360 -578zM1495 121l-27 -121h-673l4 127l-6 408l-474 -109l-182 -291l-65 -135h-160l823 1311h721l8 -15l-28 -120l-314 8h-188l6 -496l430 92l10 -12l-4 -113l-436 -88l6 -442h221l320 10z" />
    <glyph glyph-name="Ccedilla" unicode="&#xc7;" horiz-adv-x="1024" 
d="M258 545q0 -426 334 -426q168 0 332 125l16 -11l-31 -145q-145 -84 -282 -98l-29 -94l68 -41q78 -41 77.5 -106.5t-45.5 -102.5t-124.5 -37t-139.5 63l17 78l10 4q53 -63 116.5 -63t63.5 55q0 31 -45 51l-96 60l35 129q-211 8 -325 147t-114 389q0 375 170 588t471 213
q197 0 336 -100l-49 -142l-18 -4q-115 115 -287 115q-219 0 -340 -169t-121 -478z" />
    <glyph glyph-name="Egrave" unicode="&#xc8;" horiz-adv-x="944" 
d="M430 1180l-57 -443l235 -4l205 6l10 -14l-28 -119l-217 4l-224 -2l-26 -200l-31 -277l252 -4l297 8l6 -14l-27 -121h-696l59 395l107 916h698l6 -15l-26 -120l-291 8zM868 1489l-18 -8q-227 96 -395 176l-6 16l38 90l19 4q152 -88 391 -208z" />
    <glyph glyph-name="Eacute" unicode="&#xc9;" horiz-adv-x="944" 
d="M430 1180l-57 -443l235 -4l205 6l10 -14l-28 -119l-217 4l-224 -2l-26 -200l-31 -277l252 -4l297 8l6 -14l-27 -121h-696l59 395l107 916h698l6 -15l-26 -120l-291 8zM498 1483l-29 69q217 109 391 211l17 -4l41 -90l-7 -18q-80 -39 -395 -176z" />
    <glyph glyph-name="Ecircumflex" unicode="&#xca;" horiz-adv-x="944" 
d="M430 1180l-57 -443l235 -4l205 6l10 -14l-28 -119l-217 4l-224 -2l-26 -200l-31 -277l252 -4l297 8l6 -14l-27 -121h-696l59 395l107 916h698l6 -15l-26 -120l-291 8zM438 1499l-24 68q115 70 256 182h45q84 -82 217 -182l-41 -68h-17q-88 59 -190 137
q-131 -82 -227 -137h-19z" />
    <glyph glyph-name="Edieresis" unicode="&#xcb;" horiz-adv-x="944" 
d="M430 1180l-57 -443l235 -4l205 6l10 -14l-28 -119l-217 4l-224 -2l-26 -200l-31 -277l252 -4l297 8l6 -14l-27 -121h-696l59 395l107 916h698l6 -15l-26 -120l-291 8zM834 1526q-84 0 -84 84q0 41 23.5 65.5t63.5 24.5t61.5 -22.5t21.5 -62.5t-23.5 -64.5t-62.5 -24.5z
M508 1526q-84 0 -84 86q0 41 23.5 65.5t62.5 24.5t61.5 -23.5t22.5 -62.5t-23.5 -64.5t-62.5 -25.5z" />
    <glyph glyph-name="Igrave" unicode="&#xcc;" horiz-adv-x="530" 
d="M326 408l-43 -408h-154l57 395l107 916h153zM221 1763l19 4q152 -88 391 -208l-29 -70l-18 -8q-227 96 -396 176l-6 16z" />
    <glyph glyph-name="Iacute" unicode="&#xcd;" horiz-adv-x="530" 
d="M326 408l-43 -408h-154l57 395l107 916h153zM612 1759l41 -90l-6 -18q-80 -39 -395 -176l-19 8l-28 69q217 109 391 211z" />
    <glyph glyph-name="Icircumflex" unicode="&#xce;" horiz-adv-x="530" 
d="M326 408l-43 -408h-154l57 395l107 916h153zM174 1499l-24 68q115 70 256 182h45q84 -82 217 -182l-41 -68h-17q-88 59 -190 137q-131 -82 -227 -137h-19z" />
    <glyph glyph-name="Eth" unicode="&#xd0;" horiz-adv-x="1318" 
d="M623 117q233 0 362 171t129 492q0 412 -350 412q-131 0 -283 -8l-63 -463h317l6 -14l-10 -97h-330l-26 -202l-29 -279q185 -12 277 -12zM1276 809q0 -383 -178 -602t-506 -219q-201 0 -414 12l60 395l24 215h-192l-7 13l13 98h198l68 590h2l436 10q238 0 367 -133
t129 -379z" />
    <glyph glyph-name="Ntilde" unicode="&#xd1;" horiz-adv-x="1337" 
d="M1133 383l-43 -383h-160l-516 1065h-13l-79 -635l-50 -430h-143l57 389l111 922h160l514 -1065h12l131 1059l146 10zM954.5 1640q28.5 0 114.5 95h14l50 -52v-14l-125 -137l-19 -8q-41 4 -166 39.5t-142 35.5t-27 -4q-25 -11 -97 -90h-18l-47 51v15l124 137l19 6
q43 -4 167 -39t152.5 -35z" />
    <glyph glyph-name="Ograve" unicode="&#xd2;" horiz-adv-x="1251" 
d="M719 1196q-465 0 -465 -664q0 -420 324 -419q233 0 351 172t118 497q0 414 -328 414zM737 1325q225 0 348 -137t123 -387q0 -381 -168 -599t-475 -218q-221 0 -345 142t-124 396q0 377 167 590t474 213zM584 1763l18 4q152 -88 391 -208l-28 -70l-19 -8q-227 96 -395 176
l-6 16z" />
    <glyph glyph-name="Oacute" unicode="&#xd3;" horiz-adv-x="1251" 
d="M719 1196q-465 0 -465 -664q0 -420 324 -419q233 0 351 172t118 497q0 414 -328 414zM737 1325q225 0 348 -137t123 -387q0 -381 -168 -599t-475 -218q-221 0 -345 142t-124 396q0 377 167 590t474 213zM973 1759l41 -90l-6 -18q-80 -39 -396 -176l-18 8l-29 69
q217 109 391 211z" />
    <glyph glyph-name="Ocircumflex" unicode="&#xd4;" horiz-adv-x="1251" 
d="M719 1196q-465 0 -465 -664q0 -420 324 -419q233 0 351 172t118 497q0 414 -328 414zM737 1325q225 0 348 -137t123 -387q0 -381 -168 -599t-475 -218q-221 0 -345 142t-124 396q0 377 167 590t474 213zM535 1499l-25 68q115 70 256 182h45q84 -82 217 -182l-41 -68h-16
q-88 59 -191 137q-131 -82 -227 -137h-18z" />
    <glyph glyph-name="Otilde" unicode="&#xd5;" horiz-adv-x="1251" 
d="M719 1196q-465 0 -465 -664q0 -420 324 -419q233 0 351 172t118 497q0 414 -328 414zM737 1325q225 0 348 -137t123 -387q0 -381 -168 -599t-475 -218q-221 0 -345 142t-124 396q0 377 167 590t474 213zM909.5 1640q28.5 0 114.5 95h14l49 -52v-14l-124 -137l-19 -8
q-41 4 -166 39.5t-142 35.5t-26.5 -4t-22 -14t-21.5 -19.5t-26.5 -27.5t-27.5 -29h-18l-48 51v15l125 137l19 6q43 -4 167 -39t152.5 -35z" />
    <glyph glyph-name="multiply" unicode="&#xd7;" horiz-adv-x="985" 
d="M866 817l-2 -18l-284 -254l221 -256l-2 -17l-82 -63l-225 256l-291 -256l-66 63l2 15l289 258l-225 254l2 18l80 62l229 -258l287 258z" />
    <glyph glyph-name="Oslash" unicode="&#xd8;" horiz-adv-x="1253" 
d="M578 113q233 0 351 172t118 497q0 211 -84 314l-543 -949q70 -34 158 -34zM254 532q0 -211 84 -317l539 948q-63 33 -158 33q-465 0 -465 -664zM1208 801q0 -381 -168 -599t-475 -218q-121 0 -213 43l-133 -234l-88 33l-6 16l137 242q-166 141 -166 438q0 377 167 590
t474 213q115 0 209 -39l111 193l88 -33l6 -19l-113 -196q170 -135 170 -430z" />
    <glyph glyph-name="Ugrave" unicode="&#xd9;" horiz-adv-x="1222" 
d="M573 -14q-211 0 -321.5 100t-110.5 283q0 59 9 110l24 178l78 654h151l-108 -813q-6 -49 -6 -92q0 -283 278 -283q326 0 365 356l96 832h154l-107 -815q-27 -244 -159 -377t-343 -133zM569 1763l19 4q152 -88 391 -208l-29 -70l-18 -8q-227 96 -395 176l-7 16z" />
    <glyph glyph-name="Uacute" unicode="&#xda;" horiz-adv-x="1222" 
d="M573 -14q-211 0 -321.5 100t-110.5 283q0 59 9 110l24 178l78 654h151l-108 -813q-6 -49 -6 -92q0 -283 278 -283q326 0 365 356l96 832h154l-107 -815q-27 -244 -159 -377t-343 -133zM958 1759l41 -90l-6 -18q-80 -39 -395 -176l-18 8l-29 69q217 109 391 211z" />
    <glyph glyph-name="Ucircumflex" unicode="&#xdb;" horiz-adv-x="1222" 
d="M573 -14q-211 0 -321.5 100t-110.5 283q0 59 9 110l24 178l78 654h151l-108 -813q-6 -49 -6 -92q0 -283 278 -283q326 0 365 356l96 832h154l-107 -815q-27 -244 -159 -377t-343 -133zM522 1499l-24 68q115 70 256 182h45q84 -82 217 -182l-41 -68h-17q-88 59 -190 137
q-131 -82 -227 -137h-19z" />
    <glyph glyph-name="Udieresis" unicode="&#xdc;" horiz-adv-x="1222" 
d="M573 -14q-211 0 -321.5 100t-110.5 283q0 59 9 110l24 178l78 654h151l-108 -813q-6 -49 -6 -92q0 -283 278 -283q326 0 365 356l96 832h154l-107 -815q-27 -244 -159 -377t-343 -133zM921 1700q40 0 61.5 -22.5t21.5 -62.5t-24 -64.5t-62 -24.5q-84 0 -84 84
q0 41 23.5 65.5t63.5 24.5zM594 1702q39 0 61.5 -23.5t22.5 -62.5t-23.5 -64.5t-62.5 -25.5q-84 0 -84 86q0 41 23.5 65.5t62.5 24.5z" />
    <glyph glyph-name="Thorn" unicode="&#xde;" horiz-adv-x="1028" 
d="M324 365l229 -5q125 16 201 116t76 230t-55 187q-54 57 -175 63l-199 -4l-73 -544zM987 745q0 -225 -141 -367t-381 -142h-156l-24 -236h-154l57 395l109 916h152l-31 -230l217 2q166 0 259 -85t93 -253z" />
    <glyph glyph-name="germandbls" unicode="&#xdf;" horiz-adv-x="1126" 
d="M836 894q-93 -86 -93 -167t106 -166q44 -35 87 -75q106 -98 105 -218q-1 -118 -98 -200t-249 -84q-113 12 -211 69l33 137l21 11q90 -113 202 -113q72 0 120 44t48 100q0 93 -105 176q-44 36 -88 74q-104 91 -104 213q0 123 90 223q37 38 75 74q93 87 91 184
q0 145 -176 145q-100 0 -167 -52t-85 -151l-155 -1147l-11 -219l-153 -12l149 1079h-143l-10 10l14 93h152l22 159q23 173 127 267t261 94t236 -65t79 -188t-93 -219q-39 -40 -77 -76z" />
    <glyph glyph-name="agrave" unicode="&#xe0;" horiz-adv-x="899" 
d="M272 154q20 0 73.5 59t135.5 196.5t156 311.5l2 12l2 49l-125 45q-141 0 -225 -138q-84 -139 -84 -337q1 -198 65 -198zM801 942l-103 -719l-10 -217l-153 -14l59 420h-21q-145 -256 -321 -426h-29q-156 88 -155.5 320t126 420.5t353.5 225.5h10l127 -45l96 47zM686 1067
l-16 -2q-158 111 -346 260l-2 18l57 80l16 2q143 -137 334 -297z" />
    <glyph glyph-name="aacute" unicode="&#xe1;" horiz-adv-x="899" 
d="M272 154q20 0 73.5 59t135.5 196.5t156 311.5l2 12l2 49l-125 45q-141 0 -225 -138q-84 -139 -84 -337q1 -198 65 -198zM801 942l-103 -719l-10 -217l-153 -14l59 420h-21q-145 -256 -321 -426h-29q-156 88 -155.5 320t126 420.5t353.5 225.5h10l127 -45l96 47zM387 1067
l-43 61q195 162 332 297l18 -2l58 -80l-4 -18q-205 -162 -345 -260z" />
    <glyph glyph-name="acircumflex" unicode="&#xe2;" horiz-adv-x="899" 
d="M272 154q20 0 73.5 59t135.5 196.5t156 311.5l2 12l2 49l-125 45q-141 0 -225 -138q-84 -139 -84 -337q1 -198 65 -198zM780 954l21 -12l-103 -719l-10 -217l-153 -14l59 420h-21q-145 -256 -321 -426h-29q-156 88 -155.5 320t126 420.5t353.5 225.5h10l127 -45z
M309 1069l-35 61q115 104 279 275h47q96 -141 211 -275l-49 -61h-17q-96 98 -182 215q-92 -92 -235 -215h-19z" />
    <glyph glyph-name="atilde" unicode="&#xe3;" horiz-adv-x="899" 
d="M272 154q20 0 73.5 59t135.5 196.5t156 311.5l2 12l2 49l-125 45q-141 0 -225 -138t-83.5 -336.5t64.5 -198.5zM780 954l21 -12l-103 -719l-10 -217l-153 -14l59 420h-21q-145 -256 -321 -426h-29q-156 88 -155.5 320t126 420.5t353.5 225.5h10l127 -45zM412.5 1229
q-17.5 0 -26.5 -4t-21.5 -14.5t-21.5 -19.5t-26.5 -27.5t-27.5 -28.5h-19l-47 51v14l125 137l19 6q43 -4 166.5 -38.5t141 -34.5t27 4t22.5 14t21.5 18.5t27 28t28.5 29.5h14l49 -51v-15l-125 -137l-18 -8q-41 4 -166 40t-142.5 36z" />
    <glyph glyph-name="adieresis" unicode="&#xe4;" horiz-adv-x="899" 
d="M272 154q20 0 73.5 59t135.5 196.5t156 311.5l2 12l2 49l-125 45q-141 0 -225 -138q-84 -139 -84 -337q1 -198 65 -198zM801 942l-103 -719l-10 -217l-153 -14l59 420h-21q-145 -256 -321 -426h-29q-156 88 -155.5 320t126 420.5t353.5 225.5h10l127 -45l96 47zM707 1155
q-84 0 -84 84q0 41 23.5 65.5t63.5 24.5t61.5 -22.5t21.5 -62.5t-23.5 -64.5t-62.5 -24.5zM381 1155q-84 0 -84 86q0 41 23.5 65.5t62.5 24.5t61.5 -23.5t22.5 -62.5t-23.5 -64.5t-62.5 -25.5z" />
    <glyph glyph-name="aring" unicode="&#xe5;" horiz-adv-x="899" 
d="M272 154q20 0 73.5 59t135.5 196.5t156 311.5l2 12l2 49l-125 45q-141 0 -225 -138q-84 -139 -84 -337q1 -198 65 -198zM801 942l-103 -719l-10 -217l-153 -14l59 420h-21q-145 -256 -321 -426h-29q-156 88 -155.5 320t126 420.5t353.5 225.5h10l127 -45l96 47zM545 1348
q-92 0 -92 -88q0 -45 25.5 -70t67.5 -25t67.5 23.5t25.5 65.5t-24.5 68t-69.5 26zM542.5 1092q-73.5 0 -119.5 44t-46 120.5t45 122.5t125 46t124 -46t44 -121.5t-49.5 -120.5t-123 -45z" />
    <glyph glyph-name="ae" unicode="&#xe6;" horiz-adv-x="1247" 
d="M281 154q25 0 76 55t127.5 179t146.5 284q36 69 59 96l-155 59q-143 0 -229.5 -138t-86.5 -336.5t62 -198.5zM981 844q-100 0 -173 -101.5t-93 -271.5q367 117 366 289q0 84 -100 84zM842 115q70 0 137.5 54t110.5 138l24 -2l51 -72q-143 -207 -321 -247h-25
q-137 14 -195.5 99t-58.5 243v39q-139 -233 -299 -381h-28q-156 88 -156 320t127 420.5t356 225.5h10l216 -80q100 76 233 82q194 -22 195 -184q0 -240 -510 -414v-26q8 -215 133 -215z" />
    <glyph glyph-name="ccedilla" unicode="&#xe7;" horiz-adv-x="684" 
d="M213 350q0 -127 28.5 -181t90.5 -54q111 0 211 186h22l49 -70q-104 -176 -245 -229l-31 -106l68 -41q78 -41 77.5 -106.5t-45.5 -102.5t-124.5 -37t-139.5 63l16 78l11 4q53 -63 116.5 -63t63.5 55q0 31 -45 51l-96 60l34 133q-106 23 -155 95.5t-49 244.5t48 309
t158.5 224t270.5 87l131 -41l12 -22l-41 -121l-33 -6q-70 72 -139 71q-121 0 -192.5 -129t-71.5 -352z" />
    <glyph glyph-name="egrave" unicode="&#xe8;" horiz-adv-x="765" 
d="M483 844q-98 0 -169.5 -101.5t-92.5 -271.5q360 119 361 289q-1 84 -99 84zM719 770q0 -242 -504 -412q0 -244 129 -243q68 0 134.5 53t111.5 139l24 -2l52 -72q-141 -207 -320 -247h-27q-250 20 -249 329q0 272 127 451.5t329 187.5q193 -20 193 -184zM659 1067l-16 -2
q-158 111 -346 260l-2 18l57 80l17 2q143 -137 333 -297z" />
    <glyph glyph-name="eacute" unicode="&#xe9;" horiz-adv-x="765" 
d="M483.5 844q-98.5 0 -170.5 -101.5t-92 -271.5q360 119 361 289q0 84 -98.5 84zM719 770q0 -242 -504 -412q0 -244 129 -243q68 0 134.5 53t111.5 139l24 -2l52 -72q-141 -207 -320 -247h-27q-250 20 -249 329q0 272 127 451.5t329 187.5q193 -20 193 -184zM725 1343
l-4 -18q-205 -162 -344 -260l-17 2l-43 61q195 162 332 297l19 -2z" />
    <glyph glyph-name="ecircumflex" unicode="&#xea;" horiz-adv-x="765" 
d="M483.5 844q-98.5 0 -170.5 -101.5t-92 -271.5q360 119 361 289q0 84 -98.5 84zM719 770q0 -242 -504 -412q0 -244 129 -243q68 0 134.5 53t111.5 139l24 -2l52 -72q-141 -207 -320 -247h-27q-250 20 -249 329q0 272 127 451.5t329 187.5q193 -20 193 -184zM526 1405h47
q96 -141 211 -275l-49 -61h-16q-96 98 -182 215q-92 -92 -236 -215h-18l-35 61q114 105 278 275z" />
    <glyph glyph-name="edieresis" unicode="&#xeb;" horiz-adv-x="765" 
d="M483.5 844q-98.5 0 -170.5 -101.5t-92 -271.5q360 119 361 289q0 84 -98.5 84zM719 770q0 -242 -504 -412q0 -244 129 -243q68 0 134.5 53t111.5 139l24 -2l52 -72q-141 -207 -320 -247h-27q-250 20 -249 329q0 272 127 451.5t329 187.5q193 -20 193 -184zM683 1329
q40 0 61.5 -22.5t21.5 -62.5t-23.5 -64.5t-62.5 -24.5q-84 0 -84 84q0 41 23.5 65.5t63.5 24.5zM354 1155q-84 0 -84 86q0 41 23.5 65.5t62.5 24.5t61.5 -23.5t22.5 -62.5t-23.5 -64.5t-62.5 -25.5z" />
    <glyph glyph-name="igrave" unicode="&#xec;" horiz-adv-x="446" 
d="M254 223l-8 -217l-156 -14l107 743l8 199l151 14zM150 1421l16 2q143 -137 334 -297l-43 -61l-17 -2q-158 111 -346 260l-2 18z" />
    <glyph glyph-name="iacute" unicode="&#xed;" horiz-adv-x="446" 
d="M254 223l-8 -217l-156 -14l107 743l8 199l151 14zM465 1421l57 -80l-4 -18q-205 -162 -344 -260l-16 2l-43 61q195 162 331 297z" />
    <glyph glyph-name="icircumflex" unicode="&#xee;" horiz-adv-x="446" 
d="M254 223l-8 -217l-156 -14l107 743l8 199l151 14zM80 1067l-35 61q115 104 279 275h47q96 -141 211 -275l-50 -61h-16q-96 98 -182 215q-92 -92 -236 -215h-18z" />
    <glyph glyph-name="eth" unicode="&#xf0;" horiz-adv-x="894" 
d="M365 98q139 0 215 144t77 391q0 63 -10 139q-35 63 -121 64q-139 0 -217 -144t-78 -385q0 -111 32 -160t102 -49zM803 1317l-215 -105q213 -238 209 -571q0 -283 -121 -462t-330 -197q-250 28 -251 311q-1 285 122 461t330 186h16q25 -4 39 -8q-49 121 -145 217
l-260 -125l-13 6l-22 76l221 108q-96 76 -231 136l2 20l102 74h10q152 -70 252 -164l246 121l14 -6z" />
    <glyph glyph-name="ntilde" unicode="&#xf1;" horiz-adv-x="956" 
d="M664 782q-59 0 -167 -149.5t-241 -425.5l-10 -201l-156 -14l107 743l10 199l149 14l-63 -461h18q199 342 357 465h22q72 -16 116 -62t42 -116l-86 -553l-12 -215l-158 -14l113 700l2 27q0 63 -43 63zM445.5 1227q-17.5 0 -26.5 -4t-21.5 -14.5t-21.5 -19.5t-26.5 -27.5
t-27.5 -28.5h-19l-47 51v14l125 137l18 6q43 -4 167 -38.5t141.5 -34.5t26.5 4q23 10 55 44t45 46h14l49 -51v-15l-125 -137l-18 -8q-41 4 -166 40t-142.5 36z" />
    <glyph glyph-name="ograve" unicode="&#xf2;" horiz-adv-x="841" 
d="M502 829q-139 0 -213 -141t-74 -381q0 -106 29.5 -154.5t97.5 -48.5q135 0 209 143.5t74 385.5q0 104 -28.5 150t-94.5 46zM768 636.5q0 -280.5 -119 -458.5t-330 -196q-126 16 -185.5 96t-59.5 227q0 281 122.5 459t331.5 190h17q223 -37 223 -317.5zM371 1421l16 2
q143 -137 334 -297l-43 -61l-16 -2q-158 111 -347 260l-2 18z" />
    <glyph glyph-name="oacute" unicode="&#xf3;" horiz-adv-x="841" 
d="M502 829q-139 0 -213 -141t-74 -381q0 -106 29.5 -154.5t97.5 -48.5q135 0 209 143.5t74 385.5q0 104 -28.5 150t-94.5 46zM768 636.5q0 -280.5 -119 -458.5t-330 -196q-126 16 -185.5 96t-59.5 227q0 281 122.5 459t331.5 190h17q223 -37 223 -317.5zM686 1421l57 -80
l-4 -18q-205 -162 -344 -260l-16 2l-43 61q195 162 332 297z" />
    <glyph glyph-name="ocircumflex" unicode="&#xf4;" horiz-adv-x="841" 
d="M502 829q-139 0 -213 -141t-74 -381q0 -106 29.5 -154.5t97.5 -48.5q135 0 209 143.5t74 385.5q0 104 -28.5 150t-94.5 46zM768 636.5q0 -280.5 -119 -458.5t-330 -196q-126 16 -185.5 96t-59.5 227q0 281 122.5 459t331.5 190h17q223 -37 223 -317.5zM301 1067l-35 61
q115 104 279 275h47q96 -141 211 -275l-49 -61h-17q-96 98 -182 215q-92 -92 -236 -215h-18z" />
    <glyph glyph-name="otilde" unicode="&#xf5;" horiz-adv-x="841" 
d="M502 829q-139 0 -213 -141t-74 -381q0 -106 29.5 -154.5t97.5 -48.5q135 0 209 143.5t74 385.5q0 104 -28.5 150t-94.5 46zM768 636.5q0 -280.5 -119 -458.5t-330 -196q-126 16 -185.5 96t-59.5 227q0 281 122.5 459t331.5 190h17q223 -37 223 -317.5zM404.5 1227
q-17.5 0 -26.5 -4t-21.5 -14.5t-21.5 -19.5t-26.5 -27.5t-27.5 -28.5h-19l-47 51v14l125 137l18 6q43 -4 167 -38.5t141.5 -34.5t26.5 4q23 10 55 44t45 46h14l49 -51v-15l-125 -137l-18 -8q-41 4 -166 40t-142.5 36z" />
    <glyph glyph-name="divide" unicode="&#xf7;" horiz-adv-x="978" 
d="M457 274q80 0 80 -84q0 -40 -24 -64t-62 -24q-82 0 -82 84q0 39 23 64q24 24 65 24zM926 586l-11 -97h-833l-10 13l8 96h831zM543 993q39 -1 61 -23t21 -61q0 -39 -24 -63t-62 -25q-82 0 -82 84q0 41 23 65q24 23 63 23z" />
    <glyph glyph-name="oslash" unicode="&#xf8;" horiz-adv-x="841" 
d="M342 104q135 0 209 143.5t74 385.5q0 66 -13 108l-307 -632q21 -5 37 -5zM215 307q0 -70 12 -117l312 635q-20 4 -37 4q-139 0 -213 -141t-74 -381zM74 305q0 281 122.5 459t331.5 190h17q4 0 51 -12l90 182l78 -37l10 -16l-88 -180q82 -78 82 -248q0 -287 -119 -465
t-330 -196q-40 5 -69 16l-113 -234l-86 39l-6 15l115 231q-86 80 -86 256z" />
    <glyph glyph-name="ugrave" unicode="&#xf9;" horiz-adv-x="964" 
d="M295 160q61 0 167.5 146.5t239.5 422.5v6l11 199l151 14l-102 -725l-8 -217l-156 -14l64 459h-13q-193 -330 -358 -459h-23q-70 16 -114.5 61t-42.5 115l2 27l84 528l16 215l152 12l-107 -686l-4 -43q-2 -61 41 -61zM719 1065l-17 -2q-158 111 -346 260l-2 18l58 80l16 2
q143 -137 334 -297z" />
    <glyph glyph-name="uacute" unicode="&#xfa;" horiz-adv-x="964" 
d="M295 160q61 0 167.5 146.5t239.5 422.5v6l11 199l151 14l-102 -725l-8 -217l-156 -14l64 459h-13q-193 -330 -358 -459h-23q-70 16 -114.5 61t-42.5 115l2 27l84 528l16 215l152 12l-107 -686l-4 -43q-2 -61 41 -61zM420 1065l-43 61q195 162 332 297l18 -2l57 -80
l-4 -18q-205 -162 -344 -260z" />
    <glyph glyph-name="ucircumflex" unicode="&#xfb;" horiz-adv-x="964" 
d="M295 160q61 0 167.5 146.5t239.5 422.5v6l11 199l151 14l-102 -725l-8 -217l-156 -14l64 459h-13q-193 -330 -358 -459h-23q-70 16 -114.5 61t-42.5 115l2 27l84 528l16 215l152 12l-107 -686l-4 -43q-2 -61 41 -61zM344 1067l-35 61q115 104 279 275h47
q96 -141 211 -275l-49 -61h-17q-96 98 -182 215q-92 -92 -236 -215h-18z" />
    <glyph glyph-name="udieresis" unicode="&#xfc;" horiz-adv-x="964" 
d="M295 160q61 0 167.5 146.5t239.5 422.5v6l11 199l151 14l-102 -725l-8 -217l-156 -14l64 459h-13q-193 -330 -358 -459h-23q-70 16 -114.5 61t-42.5 115l2 27l84 528l16 215l152 12l-107 -686l-4 -43q-2 -61 41 -61zM739 1153q-84 0 -84 84q0 41 23.5 65.5t63.5 24.5
t61.5 -22.5t21.5 -62.5t-23.5 -64.5t-62.5 -24.5zM414 1153q-84 0 -84 86q0 41 23.5 65.5t62.5 24.5t61.5 -23.5t22.5 -62.5t-23.5 -64.5t-62.5 -25.5z" />
    <glyph glyph-name="thorn" unicode="&#xfe;" horiz-adv-x="913" 
d="M696 584q0 198 -61 198q-23 0 -77 -59t-137 -195t-157 -307l-10 -76l131 -36q143 0 227 139q84 138 84 336zM836 630q0 -230 -127 -420t-355 -224h-10l-108 24l-23 -164l-10 -225l-156 -14l225 1620l9 200l151 13l-127 -918h23q151 264 323 430h31q154 -92 154 -322z" />
    <glyph glyph-name="ydieresis" unicode="&#xff;" horiz-adv-x="833" 
d="M815 765.5q0 -106.5 -100 -284.5l-236 -415q-143 -252 -265 -358.5t-257 -106.5q-82 0 -160 32l-8 131l16 13q82 -31 150 -31q184 0 344 240l-184 948l149 14l121 -766h27l184 350q74 137 74 216.5t-49 146.5l6 20l141 33q47 -76 47 -182.5zM623 1153q-84 0 -84 84
q0 41 23.5 65.5t63.5 24.5t61.5 -22.5t21.5 -62.5t-23.5 -64.5t-62.5 -24.5zM297 1153q-84 0 -84 86q0 41 23.5 65.5t62.5 24.5t61.5 -23.5t22.5 -62.5t-23.5 -64.5t-62.5 -25.5z" />
    <glyph glyph-name="Amacron" unicode="&#x100;" horiz-adv-x="1122" 
d="M788 494l-120 657h-15l-309 -657l219 -2zM1026 0h-156l-14 127l-43 235l-278 5l-252 -5l-107 -227l-49 -135h-154l623 1311h176zM422 1565l-12 12l10 90h579l13 -10l-11 -92h-579z" />
    <glyph glyph-name="amacron" unicode="&#x101;" horiz-adv-x="899" 
d="M272 154q20 0 73.5 59t135.5 196.5t156 311.5l2 12l2 49l-125 45q-141 0 -225 -138q-84 -139 -84 -337q1 -198 65 -198zM780 954l21 -12l-103 -719l-10 -217l-153 -14l59 420h-21q-145 -256 -321 -426h-29q-156 88 -155.5 320t126 420.5t353.5 225.5h10l127 -45z
M846 1286l-10 -92h-580l-12 12l10 90h580z" />
    <glyph glyph-name="Abreve" unicode="&#x102;" horiz-adv-x="1122" 
d="M788 494l-120 657h-15l-309 -657l219 -2zM1026 0h-156l-14 127l-43 235l-278 5l-252 -5l-107 -227l-49 -135h-154l623 1311h176zM702 1483q-100 0 -164.5 47t-82.5 135l51 53h24q27 -123 169 -123t204 123h25l37 -53q-81 -182 -263 -182z" />
    <glyph glyph-name="abreve" unicode="&#x103;" horiz-adv-x="899" 
d="M272 154q20 0 73.5 59t135.5 196.5t156 311.5l2 12l2 49l-125 45q-141 0 -225 -138q-84 -139 -84 -337q1 -198 65 -198zM801 942l-103 -719l-10 -217l-153 -14l59 420h-21q-145 -256 -321 -426h-29q-156 88 -155.5 320t126 420.5t353.5 225.5h10l127 -45l96 47zM522 1079
q-213 0 -233 234l49 59h22q18 -180 168 -180t207 180h25l37 -59q-76 -234 -275 -234z" />
    <glyph glyph-name="Aogonek" unicode="&#x104;" horiz-adv-x="1122" 
d="M788 494l-120 657h-15l-309 -657l219 -2zM842 -401q-57 0 -94 34.5t-37 88t32.5 110.5t126.5 168l-14 127l-43 235l-278 5l-252 -5l-107 -227l-49 -135h-154l623 1311h176l254 -1311h-41q-166 -166 -166 -240q0 -55 49 -55q57 0 129 88h9l8 -90q-82 -104 -172 -104z" />
    <glyph glyph-name="aogonek" unicode="&#x105;" horiz-adv-x="917" 
d="M272 154q20 0 73.5 59t135.5 196.5t156 311.5l2 12l2 49l-125 45q-141 0 -225 -138q-84 -139 -84 -337q1 -198 65 -198zM477 -238q0 -59 64.5 -59t120.5 76h6l28 -82q-90 -100 -178 -100q-61 0 -102 38.5t-41 95t33.5 111t126.5 154.5l59 416h-21q-145 -256 -321 -426
h-29q-156 88 -155.5 320t126 420.5t353.5 225.5h10l127 -45l96 47l21 -12l-103 -719l-10 -217l-45 -4q-98 -106 -132 -155.5t-34 -84.5z" />
    <glyph glyph-name="Cacute" unicode="&#x106;" horiz-adv-x="1024" 
d="M258 545q0 -426 334 -426q168 0 332 125l16 -11l-31 -145q-180 -102 -354 -102q-219 0 -339 140t-120 396q0 375 170 588t471 213q197 0 336 -100l-49 -142l-18 -4q-115 115 -287 115q-219 0 -340 -169t-121 -478zM932 1759l41 -90l-6 -18q-80 -39 -396 -176l-18 8
l-29 69q217 109 391 211z" />
    <glyph glyph-name="cacute" unicode="&#x107;" horiz-adv-x="684" 
d="M213 350q0 -127 28.5 -181t90.5 -54q111 0 211 186h22l49 -70q-63 -106 -131.5 -162.5t-160.5 -82.5h-27q-119 20 -172 93t-53 248t48 312t158.5 224t270.5 87l131 -41l12 -22l-41 -121l-33 -6q-70 72 -139 71q-121 0 -192.5 -129t-71.5 -352zM659 1423l58 -80l-4 -18
q-205 -162 -344 -260l-17 2l-43 61q195 162 332 297z" />
    <glyph glyph-name="Ccircumflex" unicode="&#x108;" horiz-adv-x="1024" 
d="M258 545q0 -426 334 -426q168 0 332 125l16 -11l-31 -145q-180 -102 -354 -102q-219 0 -339 140t-120 396q0 375 170 588t471 213q197 0 336 -100l-49 -142l-18 -4q-115 115 -287 115q-219 0 -340 -169t-121 -478zM494 1499l-25 68q115 70 256 182h45q84 -82 217 -182
l-41 -68h-16q-88 59 -191 137q-131 -82 -227 -137h-18z" />
    <glyph glyph-name="ccircumflex" unicode="&#x109;" horiz-adv-x="684" 
d="M213 350q0 -127 28.5 -181t90.5 -54q111 0 211 186h22l49 -70q-63 -106 -131.5 -162.5t-160.5 -82.5h-27q-119 20 -172 93t-53 248t48 312t158.5 224t270.5 87l131 -41l12 -22l-41 -121l-33 -6q-70 72 -139 71q-121 0 -192.5 -129t-71.5 -352zM274 1069l-34 61
q115 104 278 275h47q96 -141 211 -275l-49 -61h-16q-96 98 -183 215q-92 -92 -235 -215h-19z" />
    <glyph glyph-name="Cdotaccent" unicode="&#x10a;" horiz-adv-x="1024" 
d="M258 545q0 -426 334 -426q168 0 332 125l16 -11l-31 -145q-180 -102 -354 -102q-219 0 -339 140t-120 396q0 375 170 588t471 213q197 0 336 -100l-49 -142l-18 -4q-115 115 -287 115q-219 0 -340 -169t-121 -478zM733 1726q84 0 84 -88q0 -43 -24.5 -68.5t-65.5 -25.5
t-64.5 24.5t-23.5 65.5t25.5 66.5t68.5 25.5z" />
    <glyph glyph-name="cdotaccent" unicode="&#x10b;" horiz-adv-x="684" 
d="M213 350q0 -127 28.5 -181t90.5 -54q111 0 211 186h22l49 -70q-63 -106 -131.5 -162.5t-160.5 -82.5h-27q-119 20 -172 93t-53 248t48 312t158.5 224t270.5 87l131 -41l12 -22l-41 -121l-33 -6q-70 72 -139 71q-121 0 -192.5 -129t-71.5 -352zM516 1356q84 0 84 -88
q0 -43 -24.5 -68.5t-65.5 -25.5t-64.5 24.5t-23.5 65.5t25.5 66.5t68.5 25.5z" />
    <glyph glyph-name="Ccaron" unicode="&#x10c;" horiz-adv-x="1024" 
d="M258 545q0 -426 334 -426q168 0 332 125l16 -11l-31 -145q-180 -102 -354 -102q-219 0 -339 140t-120 396q0 375 170 588t471 213q197 0 336 -100l-49 -142l-18 -4q-115 115 -287 115q-219 0 -340 -169t-121 -478zM524 1733q96 -67 191 -136q80 51 225 136h18l25 -66
q-131 -82 -254 -184h-45q-115 104 -217 184l39 66h18z" />
    <glyph glyph-name="ccaron" unicode="&#x10d;" horiz-adv-x="684" 
d="M213 350q0 -127 28.5 -181t90.5 -54q111 0 211 186h22l49 -70q-63 -106 -131.5 -162.5t-160.5 -82.5h-27q-119 20 -172 93t-53 248t48 312t158.5 224t270.5 87l131 -41l12 -22l-41 -121l-33 -6q-70 72 -139 71q-121 0 -192.5 -129t-71.5 -352zM745 1407l33 -64
q-59 -55 -272 -272h-47q-100 147 -217 272l49 64h18q109 -119 180 -217q80 80 236 217h20z" />
    <glyph glyph-name="Dcaron" unicode="&#x10e;" horiz-adv-x="1269" 
d="M575 117q233 0 361.5 171t128.5 492q0 412 -348 412q-133 0 -285 -8l-106 -776l-29 -279q184 -12 278 -12zM1227 809q0 -383 -178.5 -602t-503.5 -219q-201 0 -414 12h-2l59 395l107 916h2l436 10q236 0 365 -133t129 -379zM717 1483h-45q-115 104 -217 184l39 66h18
l190 -136q80 51 226 136h18l25 -66q-131 -82 -254 -184z" />
    <glyph glyph-name="dcaron" unicode="&#x10f;" horiz-adv-x="1032" 
d="M270 154q18 0 73.5 59t139.5 196.5t158 311.5l8 59l-131 47q-143 0 -229 -138q-86 -139 -86 -337q-1 -198 67 -198zM1149 1325l-88 -348l-76 -12l-12 12l55 354l111 6zM719 1427l155 15l-169 -1219l-11 -217l-155 -14l59 420h-20q-147 -254 -326 -426h-33
q-154 88 -153.5 320t128.5 422t355 224h10l109 -39l45 316z" />
    <glyph glyph-name="Dcroat" unicode="&#x110;" horiz-adv-x="1269" 
d="M575 117q233 0 361.5 171t128.5 492q0 412 -348 412q-133 0 -285 -8l-106 -776l-29 -279q184 -12 278 -12zM1227 809q0 -383 -178.5 -602t-503.5 -219q-201 0 -414 12h-2l59 395l107 916h2l436 10q236 0 365 -133t129 -379zM426 1565l-12 12l10 90h580l12 -10l-10 -92
h-580z" />
    <glyph glyph-name="dcroat" unicode="&#x111;" horiz-adv-x="927" 
d="M270 154q18 0 73.5 59t139.5 196.5t158 311.5l8 59l-131 47q-143 0 -229 -138q-86 -139 -86 -337q-1 -198 67 -198zM1001 1141h-170l-126 -918l-11 -217l-155 -14l59 420h-20q-147 -254 -326 -426h-33q-154 88 -153.5 320t128.5 422t355 224h10l109 -39l32 228h-243
l-13 10l11 84h258l6 192l155 15l-28 -207h151l13 -14z" />
    <glyph glyph-name="Emacron" unicode="&#x112;" horiz-adv-x="944" 
d="M430 1180l-57 -443l235 -4l205 6l10 -14l-28 -119l-217 4l-224 -2l-26 -200l-31 -277l252 -4l297 8l6 -14l-27 -121h-696l59 395l107 916h698l6 -15l-26 -120l-291 8zM383 1565l-12 12l10 90h580l12 -10l-10 -92h-580z" />
    <glyph glyph-name="emacron" unicode="&#x113;" horiz-adv-x="765" 
d="M483.5 844q-98.5 0 -170.5 -101.5t-92 -271.5q360 119 361 289q0 84 -98.5 84zM719 770q0 -242 -504 -412q0 -244 129 -243q68 0 134.5 53t111.5 139l24 -2l52 -72q-141 -207 -320 -247h-27q-250 20 -249 329q0 272 127 451.5t329 187.5q193 -20 193 -184zM819 1286
l-10 -92h-580l-12 12l10 90h580z" />
    <glyph glyph-name="Ebreve" unicode="&#x114;" horiz-adv-x="944" 
d="M430 1180l-57 -443l235 -4l205 6l10 -14l-28 -119l-217 4l-224 -2l-26 -200l-31 -277l252 -4l297 8l6 -14l-27 -121h-696l59 395l107 916h698l6 -15l-26 -120l-291 8zM664 1483q-100 0 -165 47t-83 135l51 53h25q27 -123 169 -123t203 123h25l37 -53q-80 -182 -262 -182z
" />
    <glyph glyph-name="ebreve" unicode="&#x115;" horiz-adv-x="765" 
d="M483.5 844q-98.5 0 -170.5 -101.5t-92 -271.5q360 119 361 289q0 84 -98.5 84zM719 770q0 -242 -504 -412q0 -244 129 -243q68 0 134.5 53t111.5 139l24 -2l52 -72q-141 -207 -320 -247h-27q-250 20 -249 329q0 272 127 451.5t329 187.5q193 -20 193 -184zM496 1079
q-213 0 -234 234l49 59h23q18 -180 167.5 -180t207.5 180h24l37 -59q-75 -234 -274 -234z" />
    <glyph glyph-name="Edotaccent" unicode="&#x116;" horiz-adv-x="944" 
d="M430 1180l-57 -443l235 -4l205 6l10 -14l-28 -119l-217 4l-224 -2l-26 -200l-31 -277l252 -4l297 8l6 -14l-27 -121h-696l59 395l107 916h698l6 -15l-26 -120l-291 8zM672 1544q-41 0 -64.5 24.5t-23.5 65.5t25.5 66.5t68.5 25.5q84 0 84 -88q0 -43 -24.5 -68.5
t-65.5 -25.5z" />
    <glyph glyph-name="edotaccent" unicode="&#x117;" horiz-adv-x="765" 
d="M483 844q-98 0 -169.5 -101.5t-92.5 -271.5q360 119 361 289q-1 84 -99 84zM719 770q0 -242 -504 -412q0 -244 129 -243q68 0 134.5 53t111.5 139l24 -2l52 -72q-141 -207 -320 -247h-27q-250 20 -249 329q0 272 127 451.5t329 187.5q193 -20 193 -184zM518 1174
q-41 0 -64.5 24.5t-23.5 65.5t25.5 66.5t68.5 25.5q84 0 84 -88q0 -43 -24.5 -68.5t-65.5 -25.5z" />
    <glyph glyph-name="Eogonek" unicode="&#x118;" horiz-adv-x="944" 
d="M588 -215q0 -84 82 -84q72 0 143 82h8l23 -78q-102 -109 -199 -108q-72 0 -116 45t-44 116.5t52 147.5l65 94h-473l59 395l107 916h698l6 -15l-26 -120l-291 8l-252 -4l-57 -443l235 -4l205 6l10 -14l-28 -119l-217 4l-224 -2l-26 -200l-31 -277l252 -4l297 8l6 -14
l-27 -121h-129l-73 -113q-35 -59 -35 -102z" />
    <glyph glyph-name="eogonek" unicode="&#x119;" horiz-adv-x="765" 
d="M483 844q-98 0 -169.5 -101.5t-92.5 -271.5q360 119 361 289q-1 84 -99 84zM719 770q0 -242 -504 -412q0 -244 129 -243q68 0 134.5 53t111.5 139l24 -2l52 -72q-70 -100 -136 -153l-127 -193q-35 -59 -34 -102q0 -84 82 -84q72 0 143 82h8l23 -78q-102 -109 -199 -108
q-72 0 -116 45t-44 116.5t51 147.5l62 88l-33 -8h-27q-250 20 -249 329q0 272 127 451.5t329 187.5q193 -20 193 -184z" />
    <glyph glyph-name="Ecaron" unicode="&#x11a;" horiz-adv-x="944" 
d="M430 1180l-57 -443l235 -4l205 6l10 -14l-28 -119l-217 4l-224 -2l-26 -200l-31 -277l252 -4l297 8l6 -14l-27 -121h-696l59 395l107 916h698l6 -15l-26 -120l-291 8zM469 1733q130 -91 190 -136q80 51 226 136h18l25 -66q-131 -82 -254 -184h-45q-115 104 -217 184
l39 66h18z" />
    <glyph glyph-name="ecaron" unicode="&#x11b;" horiz-adv-x="765" 
d="M483.5 844q-98.5 0 -170.5 -101.5t-92 -271.5q360 119 361 289q0 84 -98.5 84zM719 770q0 -242 -504 -412q0 -244 129 -243q68 0 134.5 53t111.5 139l24 -2l52 -72q-141 -207 -320 -247h-27q-250 20 -249 329q0 272 127 451.5t329 187.5q193 -20 193 -184zM514 1071h-47
q-100 147 -217 272l49 64h18q109 -119 181 -217q80 80 235 217h21l32 -64q-59 -55 -272 -272z" />
    <glyph glyph-name="Gcircumflex" unicode="&#x11c;" horiz-adv-x="1177" 
d="M780 1323q195 0 369 -94l-53 -146l-19 -4q-162 113 -323 113q-246 0 -375 -171t-129 -499q0 -207 86 -305t266 -98q104 0 258 49l27 160l20 184l144 12l-25 -176l-29 -285q-225 -78 -405 -77q-246 0 -373 136t-127 386q0 389 180 602t508 213zM520 1499l-24 68
q115 70 256 182h45q84 -82 217 -182l-41 -68h-17q-88 59 -190 137q-131 -82 -227 -137h-19z" />
    <glyph glyph-name="gcircumflex" unicode="&#x11d;" horiz-adv-x="903" 
d="M261.5 -289q101.5 0 183 84t102.5 242l55 393h-22q-145 -254 -301 -381l-209 -155q-20 -16 -21 -35q2 -55 56.5 -101.5t156 -46.5zM298 193q15 0 65.5 58t128 183t151.5 281l2 20l2 45l-125 47q-135 0 -210.5 -124.5t-75.5 -285.5q0 -224 62 -224zM213 -406
q-131 0 -217 75t-111 212l9 17l286 180l2 18q-84 76 -84 244q0 229 119 402t334 208h10l127 -45l96 49l21 -12l-100 -711l-17 -153q-31 -225 -163 -354.5t-312 -129.5zM324 1067l-35 61q115 104 278 275h47q96 -141 211 -275l-49 -61h-16q-96 98 -182 215q-92 -92 -236 -215
h-18z" />
    <glyph glyph-name="Gbreve" unicode="&#x11e;" horiz-adv-x="1177" 
d="M780 1323q195 0 369 -94l-53 -146l-19 -4q-162 113 -323 113q-246 0 -375 -171t-129 -499q0 -207 86 -305t266 -98q104 0 258 49l27 160l20 184l144 12l-25 -176l-29 -285q-225 -78 -405 -77q-246 0 -373 136t-127 386q0 389 180 602t508 213zM745 1483q-100 0 -164.5 47
t-82.5 135l51 53h24q27 -123 169 -123t204 123h25l37 -53q-80 -182 -263 -182z" />
    <glyph glyph-name="gbreve" unicode="&#x11f;" horiz-adv-x="903" 
d="M261.5 -289q101.5 0 183 84t102.5 242l55 393h-22q-145 -254 -301 -381l-209 -155q-20 -16 -21 -35q2 -55 56.5 -101.5t156 -46.5zM298 193q15 0 65.5 58t128 183t151.5 281l2 20l2 45l-125 47q-135 0 -210.5 -124.5t-75.5 -285.5q0 -224 62 -224zM213 -406
q-131 0 -217 75t-111 212l9 17l286 180l2 18q-84 76 -84 244q0 229 119 402t334 208h10l127 -45l96 49l21 -12l-100 -711l-17 -153q-31 -225 -163 -354.5t-312 -129.5zM537 1077q-213 0 -234 234l49 59h23q18 -180 167.5 -180t207.5 180h24l37 -59q-75 -234 -274 -234z" />
    <glyph glyph-name="Gdotaccent" unicode="&#x120;" horiz-adv-x="1177" 
d="M780 1323q195 0 369 -94l-53 -146l-19 -4q-162 113 -323 113q-246 0 -375 -171t-129 -499q0 -207 86 -305t266 -98q104 0 258 49l27 160l20 184l144 12l-25 -176l-29 -285q-225 -78 -405 -77q-246 0 -373 136t-127 386q0 389 180 602t508 213zM760 1726q84 0 84 -88
q0 -43 -24.5 -68.5t-65.5 -25.5t-64.5 24.5t-23.5 65.5t25.5 66.5t68.5 25.5z" />
    <glyph glyph-name="gdotaccent" unicode="&#x121;" horiz-adv-x="903" 
d="M261.5 -289q101.5 0 183 84t102.5 242l55 393h-22q-145 -254 -301 -381l-209 -155q-20 -16 -21 -35q2 -55 56.5 -101.5t156 -46.5zM298 193q15 0 65.5 58t128 183t151.5 281l2 20l2 45l-125 47q-135 0 -210.5 -124.5t-75.5 -285.5q0 -224 62 -224zM213 -406
q-131 0 -217 75t-111 212l9 17l286 180l2 18q-84 76 -84 244q0 229 119 402t334 208h10l127 -45l96 49l21 -12l-100 -711l-17 -153q-31 -225 -163 -354.5t-312 -129.5zM559 1171q-41 0 -64.5 25t-23.5 66t25.5 66.5t68.5 25.5q84 0 84 -88q0 -43 -24.5 -69t-65.5 -26z" />
    <glyph glyph-name="Gcommaaccent" unicode="&#x122;" horiz-adv-x="1177" 
d="M711 -244q0 -121 -174 -250l-52 45l2 13q104 86 105 168q0 47 -60 90v12q50 33 99 49q80 -51 80 -127zM780 1323q195 0 369 -94l-53 -146l-19 -4q-162 113 -323 113q-246 0 -375 -171t-129 -499q0 -207 86 -305t266 -98q104 0 258 49l27 160l20 184l144 12l-25 -176
l-29 -285q-225 -78 -405 -77q-246 0 -373 136t-127 386q0 389 180 602t508 213z" />
    <glyph glyph-name="gcommaaccent" unicode="&#x123;" horiz-adv-x="903" 
d="M261.5 -289q101.5 0 183 84t102.5 242l55 393h-22q-145 -254 -301 -381l-209 -155q-20 -16 -21 -35q2 -55 56.5 -101.5t156 -46.5zM298 193q15 0 65.5 58t128 183t151.5 281l2 20l2 45l-125 47q-135 0 -210.5 -124.5t-75.5 -285.5q0 -224 62 -224zM213 -406
q-131 0 -217 75t-111 212l9 17l286 180l2 18q-84 76 -84 244q0 229 119 402t334 208h10l127 -45l96 49l21 -12l-100 -711l-17 -153q-31 -225 -163 -354.5t-312 -129.5zM506 1206.5q0 108.5 137 245.5l57 -39v-12q-80 -86 -79.5 -161t73.5 -103v-15q-27 -26 -86 -63
q-102 39 -102 147.5z" />
    <glyph glyph-name="Hcircumflex" unicode="&#x124;" horiz-adv-x="1337" 
d="M1257 1311l-120 -903l-43 -408h-154l57 395l23 201l-348 6l-322 -6l-24 -188l-43 -408h-154l57 395l107 916h153l-77 -580l333 -6l334 6l66 580h155zM580 1499l-25 68q115 70 256 182h45q84 -82 217 -182l-41 -68h-16q-88 59 -191 137q-131 -82 -227 -137h-18z" />
    <glyph glyph-name="hcircumflex" unicode="&#x125;" horiz-adv-x="960" 
d="M668 782q-59 0 -167 -149.5t-241 -425.5l-10 -201l-156 -14l176 1237l4 198l156 15l-133 -955h18q197 338 357 465h22q72 -16 116 -62t42 -116l-86 -553l-12 -215l-158 -14l113 700l2 27q0 63 -43 63zM152 1622l-25 68q115 70 256 182h45q84 -82 217 -182l-41 -68h-16
q-88 59 -191 137q-131 -82 -227 -137h-18z" />
    <glyph glyph-name="Hbar" unicode="&#x126;" horiz-adv-x="1392" 
d="M1090 979h-664l-33 -248l332 -6l336 6zM1374 979h-137l-76 -571l-45 -408h-151l57 395l22 201l-350 6l-319 -6l-25 -188l-43 -408h-153l57 395l68 584h-121l-6 10l8 101h131l26 221h154l-29 -221h660l24 221h156l-29 -221h121l8 -13z" />
    <glyph glyph-name="hbar" unicode="&#x127;" horiz-adv-x="1083" 
d="M752 782q-59 0 -167 -149.5t-241 -425.5l-10 -201l-156 -14l164 1149h-149l-13 10l8 84h166l4 192l156 15l-29 -207h246l12 -14l-6 -80h-266l-90 -654h18q193 338 357 465h22q72 -16 116 -62t42 -116l-86 -553l-12 -215l-158 -14l113 700l2 27q0 63 -43 63z" />
    <glyph glyph-name="Imacron" unicode="&#x12a;" horiz-adv-x="530" 
d="M326 408l-43 -408h-154l57 395l107 916h153zM637 1657l-6 -92h-445l-10 12l8 90h443z" />
    <glyph glyph-name="imacron" unicode="&#x12b;" horiz-adv-x="446" 
d="M254 223l-8 -217l-156 -14l107 743l8 199l151 14zM545 1284l-6 -92h-445l-10 12l8 90h443z" />
    <glyph glyph-name="Ibreve" unicode="&#x12c;" horiz-adv-x="530" 
d="M326 408l-43 -408h-154l57 395l107 916h153zM399 1483q-100 0 -164.5 47t-82.5 135l51 53h24q27 -123 169 -123t204 123h25l37 -53q-80 -182 -263 -182z" />
    <glyph glyph-name="ibreve" unicode="&#x12d;" horiz-adv-x="446" 
d="M254 223l-8 -217l-156 -14l107 743l8 199l151 14zM299 1190q150 0 207 180h24l37 -59q-76 -233 -274 -234q-213 0 -234 234l50 59h22q18 -180 168 -180z" />
    <glyph glyph-name="Iogonek" unicode="&#x12e;" horiz-adv-x="530" 
d="M74 -240q0 -57 59 -57t113 72h6l29 -80q-88 -98 -172 -98q-59 0 -98.5 37.5t-39.5 94t33 112t125 163.5l57 391l107 916h153l-120 -903l-43 -408h-54q-90 -106 -122.5 -156.5t-32.5 -83.5z" />
    <glyph glyph-name="iogonek" unicode="&#x12f;" horiz-adv-x="446" 
d="M43 -240q0 -57 59 -57t113 72h6l29 -80q-88 -98 -160.5 -98t-110.5 37.5t-38 94t30.5 109.5t118.5 156l107 741l8 199l151 14l-102 -725l-8 -217l-45 -4q-92 -106 -125 -157.5t-33 -84.5zM322 1354q84 0 84 -88q0 -43 -25 -69t-66 -26t-64.5 25t-23.5 66t26 66.5t69 25.5
z" />
    <glyph glyph-name="Idotaccent" unicode="&#x130;" horiz-adv-x="530" 
d="M326 408l-43 -408h-154l57 395l107 916h153zM414 1726q84 0 84 -88q0 -43 -24.5 -68.5t-65.5 -25.5t-65 24.5t-24 65.5t26 66.5t69 25.5z" />
    <glyph glyph-name="dotlessi" unicode="&#x131;" horiz-adv-x="446" 
d="M254 223l-8 -217l-156 -14l107 743l8 199l151 14z" />
    <glyph glyph-name="IJ" unicode="&#x132;" horiz-adv-x="1136" 
d="M1047 1311l-119 -877l-19 -192q-20 -154 -109 -255.5t-284 -193.5l-49 86l2 19q147 78 215 153.5t82 190.5l111 944l-244 -2l-15 14l25 113h404zM293 1311h153l-120 -903l-43 -408h-154l57 395z" />
    <glyph glyph-name="ij" unicode="&#x133;" horiz-adv-x="921" 
d="M827 938l-100 -717l-18 -184q-20 -160 -87 -256t-212 -178l-52 69l2 19q100 68 147.5 141.5t61.5 196.5l99 704l6 86h-156l-10 10l14 93h146l151 20zM254 223l-8 -217l-156 -14l107 743l8 199l151 14zM786 1354q84 0 84 -88q0 -43 -24.5 -69t-65.5 -26t-64.5 25t-23.5 66
t25.5 66.5t68.5 25.5zM322 1354q84 0 84 -88q0 -43 -25 -69t-66 -26t-64.5 25t-23.5 66t26 66.5t69 25.5z" />
    <glyph glyph-name="Jcircumflex" unicode="&#x134;" horiz-adv-x="608" 
d="M516 1311l-119 -877l-18 -192q-20 -154 -108.5 -255.5t-284.5 -193.5l-49 86l2 19q147 78 214.5 153.5t82.5 190.5l110 944l-244 -2l-14 14l25 113h403zM385 1749h45q84 -82 217 -182l-41 -68h-16q-88 59 -191 137q-131 -82 -227 -137h-18l-25 68q115 69 256 182z" />
    <glyph glyph-name="jcircumflex" unicode="&#x135;" horiz-adv-x="475" 
d="M381 938l-100 -717l-19 -184q-20 -160 -86.5 -256t-212.5 -178l-51 69l2 19q102 68 148.5 140.5t60.5 197.5l100 704l4 86h-153l-11 10l13 93h145l154 20zM98 1067l-35 61q115 104 279 275h47q96 -141 211 -275l-49 -61h-16q-96 98 -183 215q-92 -92 -235 -215h-19z" />
    <glyph glyph-name="Kcommaaccent" unicode="&#x136;" horiz-adv-x="1064" 
d="M641 -244q0 -121 -174 -250l-51 45l2 13q104 86 104 168q0 47 -59 90v12q49 33 98 49q80 -51 80 -127zM1139 1311l-584 -619q190 -322 459 -659l-6 -19q-68 -20 -150 -32l-14 10q-266 371 -455 696l2 12l481 500l93 111h174zM326 408l-45 -408h-154l59 395l107 916h153z
" />
    <glyph glyph-name="kcommaaccent" unicode="&#x137;" horiz-adv-x="946" 
d="M449 -117q80 -51 79 -127q0 -121 -174 -250l-51 45l2 13q104 86 105 168q0 47 -60 90v12q50 33 99 49zM893 750q0 -199 -297 -377q135 -221 235 -359l-8 -14l-127 -25l-14 9q-92 139 -223 381l6 26q279 174 278 322q0 70 -49 69q-68 0 -180.5 -146.5t-255.5 -440.5
l-6 -189l-156 -14l174 1237l6 198l156 15l-133 -942h20q113 176 199 282.5t176 165.5l31 2q168 -34 168 -200z" />
    <glyph glyph-name="kgreenlandic" unicode="&#x138;" horiz-adv-x="954" 
d="M895 750q0 -201 -299 -377q125 -203 238 -359l-5 -14l-129 -25l-16 9q-94 141 -227 381l6 26q285 174 285 322q0 70 -54 69q-68 0 -182.5 -146.5t-259.5 -442.5l-6 -187l-156 -14l107 743l8 199l151 14l-63 -454h20q123 186 208 291.5t175 162.5l29 2q170 -34 170 -200z
" />
    <glyph glyph-name="Lacute" unicode="&#x139;" horiz-adv-x="811" 
d="M766 115l-29 -115h-612l59 395l107 916h153l-120 -903l-31 -277h465zM233 1483l-28 69q217 109 391 211l16 -4l41 -90l-6 -18q-80 -39 -395 -176z" />
    <glyph glyph-name="lacute" unicode="&#x13a;" horiz-adv-x="458" 
d="M260 223l-8 -217l-156 -14l174 1237l6 198l156 15zM592 1882l41 -90l-6 -18q-80 -39 -396 -177l-18 9l-29 69q217 109 391 211z" />
    <glyph glyph-name="Lcommaaccent" unicode="&#x13b;" horiz-adv-x="811" 
d="M410 -117q80 -51 79 -127q0 -121 -174 -250l-51 45l2 13q104 86 105 168q0 47 -60 90v12q50 33 99 49zM766 115l-29 -115h-612l59 395l107 916h153l-120 -903l-31 -277h465z" />
    <glyph glyph-name="lcommaaccent" unicode="&#x13c;" horiz-adv-x="458" 
d="M250 -244q0 -121 -174 -250l-51 45l2 13q104 86 104 168q0 47 -59 90v12q49 33 98 49q80 -51 80 -127zM260 223l-8 -217l-156 -14l174 1237l6 198l156 15z" />
    <glyph glyph-name="Lcaron" unicode="&#x13d;" horiz-adv-x="827" 
d="M858 1180l-88 -349l-78 -12l-10 12l53 353l113 8zM758 131l8 -16l-29 -115h-612l59 395l107 916h153l-120 -903l-31 -277h465z" />
    <glyph glyph-name="lcaron" unicode="&#x13e;" horiz-adv-x="503" 
d="M657 1309l-88 -348l-75 -13l-13 13l56 354l110 6zM260 223l-8 -217l-156 -14l174 1237l6 198l156 15z" />
    <glyph glyph-name="Ldot" unicode="&#x13f;" horiz-adv-x="811" 
d="M672 680q-41 0 -64.5 24.5t-23.5 65.5t24.5 66.5t66.5 25.5t64.5 -23.5t22.5 -64.5t-24.5 -67.5t-65.5 -26.5zM766 115l-29 -115h-612l59 395l107 916h153l-120 -903l-31 -277h465z" />
    <glyph glyph-name="ldot" unicode="&#x140;" horiz-adv-x="495" 
d="M492 662q41 0 64.5 -24t23.5 -65t-25 -67.5t-65.5 -26.5t-64.5 24.5t-24 65.5t25 67t66 26zM260 223l-8 -217l-156 -14l174 1237l6 198l156 15z" />
    <glyph glyph-name="Lslash" unicode="&#x141;" horiz-adv-x="831" 
d="M782 115l-26 -115h-615l62 395l22 203l-153 -80l-17 10l-16 93l201 104l67 586h156l-70 -506l275 141l16 -8l18 -92l-325 -170l-37 -268l-29 -277h463z" />
    <glyph glyph-name="lslash" unicode="&#x142;" horiz-adv-x="497" 
d="M340 737l-72 -514l-8 -217l-156 -14l97 680l-135 -68l-7 6l-24 105l184 94l60 420l6 198l155 15l-80 -568l144 74l8 -4l25 -104z" />
    <glyph glyph-name="Nacute" unicode="&#x143;" horiz-adv-x="1337" 
d="M1133 383l-43 -383h-160l-516 1065h-13l-79 -635l-50 -430h-143l57 389l111 922h160l514 -1065h12l131 1059l146 10zM1018 1759l41 -90l-6 -18q-80 -39 -396 -176l-18 8l-29 69q217 109 391 211z" />
    <glyph glyph-name="nacute" unicode="&#x144;" horiz-adv-x="956" 
d="M664 782q-59 0 -167 -149.5t-241 -425.5l-10 -201l-156 -14l107 743l10 199l149 14l-63 -461h18q199 342 357 465h22q72 -16 116 -62t42 -116l-86 -553l-12 -215l-158 -14l113 700l2 27q0 63 -43 63zM420 1065l-43 61q195 162 332 297l18 -2l57 -80l-4 -18
q-205 -162 -344 -260z" />
    <glyph glyph-name="Ncommaaccent" unicode="&#x145;" horiz-adv-x="1337" 
d="M690 -244q0 -121 -174 -250l-51 45l2 13q104 86 104 168q0 47 -59 90v12q49 33 98 49q80 -51 80 -127zM1133 383l-43 -383h-160l-516 1065h-13l-79 -635l-50 -430h-143l57 389l111 922h160l514 -1065h12l131 1059l146 10z" />
    <glyph glyph-name="ncommaaccent" unicode="&#x146;" horiz-adv-x="956" 
d="M502 -244q0 -121 -174 -250l-52 45l3 13q104 86 104 168q0 47 -59 90v12q49 33 98 49q80 -51 80 -127zM664 782q-59 0 -167 -149.5t-241 -425.5l-10 -201l-156 -14l107 743l10 199l149 14l-63 -461h18q199 342 357 465h22q72 -16 116 -62t42 -116l-86 -553l-12 -215
l-158 -14l113 700l2 27q0 63 -43 63z" />
    <glyph glyph-name="Ncaron" unicode="&#x147;" horiz-adv-x="1337" 
d="M1133 383l-43 -383h-160l-516 1065h-13l-79 -635l-50 -430h-143l57 389l111 922h160l514 -1065h12l131 1059l146 10zM610 1733q96 -67 191 -136q80 51 225 136h18l25 -66q-131 -82 -254 -184h-45q-115 104 -217 184l39 66h18z" />
    <glyph glyph-name="ncaron" unicode="&#x148;" horiz-adv-x="956" 
d="M664 782q-59 0 -167 -149.5t-241 -425.5l-10 -201l-156 -14l107 743l10 199l149 14l-63 -461h18q199 342 357 465h22q72 -16 116 -62t42 -116l-86 -553l-12 -215l-158 -14l113 700l2 27q0 63 -43 63zM573 1069h-47q-100 147 -217 272l49 64h19q109 -119 180 -217
q80 80 236 217h20l33 -64q-60 -55 -273 -272z" />
    <glyph glyph-name="Eng" unicode="&#x14a;" horiz-adv-x="1355" 
d="M1139 383l-29 -270q-20 -152 -108 -250t-279 -189l-51 86l4 19q203 111 260 225l-524 1059h-13l-125 -1063h-145l59 389l107 922h162l520 -1059h14l125 1053l148 10z" />
    <glyph glyph-name="eng" unicode="&#x14b;" horiz-adv-x="970" 
d="M672 952h22q70 -16 115 -62t43 -116l-2 -26l-90 -527l-23 -184q-25 -162 -91 -257t-204 -177l-51 69l2 19q98 68 145 141q46 74 62 197l105 651l2 27q2 76 -39 75q-59 0 -168 -152t-242 -442l-8 -182l-156 -14l107 743l10 199l149 14l-63 -461h18q201 346 357 465z" />
    <glyph glyph-name="Omacron" unicode="&#x14c;" horiz-adv-x="1251" 
d="M719 1196q-465 0 -465 -664q0 -420 324 -419q233 0 351 172t118 497q0 414 -328 414zM737 1325q225 0 348 -137t123 -387q0 -381 -168 -599t-475 -218q-221 0 -345 142t-124 396q0 377 167 590t474 213zM1069 1657l-10 -92h-580l-12 12l10 90h580z" />
    <glyph glyph-name="omacron" unicode="&#x14d;" horiz-adv-x="841" 
d="M502 829q-139 0 -213 -141t-74 -381q0 -106 29.5 -154.5t97.5 -48.5q135 0 209 143.5t74 385.5q0 104 -28.5 150t-94.5 46zM768 636.5q0 -280.5 -119 -458.5t-330 -196q-126 16 -185.5 96t-59.5 227q0 281 122.5 459t331.5 190h17q223 -37 223 -317.5zM838 1284l-11 -92
h-579l-12 12l10 90h579z" />
    <glyph glyph-name="Obreve" unicode="&#x14e;" horiz-adv-x="1251" 
d="M719 1196q-465 0 -465 -664q0 -420 324 -419q233 0 351 172t118 497q0 414 -328 414zM737 1325q225 0 348 -137t123 -387q0 -381 -168 -599t-475 -218q-221 0 -345 142t-124 396q0 377 167 590t474 213zM760 1483q-100 0 -165 47t-83 135l51 53h25q27 -123 169 -123
t204 123h24l37 -53q-80 -182 -262 -182z" />
    <glyph glyph-name="obreve" unicode="&#x14f;" horiz-adv-x="841" 
d="M502 829q-139 0 -213 -141t-74 -381q0 -106 29.5 -154.5t97.5 -48.5q135 0 209 143.5t74 385.5q0 104 -28.5 150t-94.5 46zM768 636.5q0 -280.5 -119 -458.5t-330 -196q-126 16 -185.5 96t-59.5 227q0 281 122.5 459t331.5 190h17q223 -37 223 -317.5zM520 1190
q150 0 207 180h25l36 -59q-76 -233 -274 -234q-213 0 -233 234l49 59h22q18 -180 168 -180z" />
    <glyph glyph-name="Ohungarumlaut" unicode="&#x150;" horiz-adv-x="1251" 
d="M719 1196q-465 0 -465 -664q0 -420 324 -419q233 0 351 172t118 497q0 414 -328 414zM737 1325q225 0 348 -137t123 -387q0 -381 -168 -599t-475 -218q-221 0 -345 142t-124 396q0 377 167 590t474 213zM811 1470l-51 48q199 215 225 245h12l74 -49l-2 -16
q-53 -53 -240 -225zM520 1470l-51 48q166 176 225 245h17l69 -49v-16q-104 -102 -241 -225z" />
    <glyph glyph-name="ohungarumlaut" unicode="&#x151;" horiz-adv-x="841" 
d="M502 829q-139 0 -213 -141t-74 -381q0 -106 29.5 -154.5t97.5 -48.5q135 0 209 143.5t74 385.5q0 104 -28.5 150t-94.5 46zM768 636.5q0 -280.5 -119 -458.5t-330 -196q-126 16 -185.5 96t-59.5 227q0 281 122.5 459t331.5 190h17q223 -37 223 -317.5zM612 1063l-53 47
q139 145 279 313h16l70 -53v-14q-121 -125 -295 -293h-17zM324 1063l-54 47q139 145 279 313h16l70 -53v-14q-121 -125 -295 -293h-16z" />
    <glyph glyph-name="OE" unicode="&#x152;" horiz-adv-x="1665" 
d="M776 1208q-256 0 -390 -173t-134 -492q0 -438 385 -439q117 0 186 21q53 14 62 68l104 913q8 66 -16 76q-74 26 -197 26zM807 1335q61 0 165.5 -12t157.5 -12h580l8 -15l-28 -120l-279 8h-262l-55 -447l219 -4l221 6l8 -14l-29 -119l-229 4l-213 -2l-55 -477l239 -4
l308 8l10 -14l-29 -121h-577q-59 2 -182 -11.5t-181 -13.5q-244 0 -377 147.5t-133 412.5q0 371 190.5 585.5t522.5 214.5z" />
    <glyph glyph-name="oe" unicode="&#x153;" horiz-adv-x="1323" 
d="M356 100q139 0 215 144.5t76 388.5q0 106 -30.5 153.5t-96.5 47.5q-141 0 -217 -142.5t-76 -384.5q0 -109 30.5 -158t98.5 -49zM1149 760q0 84 -100 84t-173 -101.5t-92 -271.5q365 119 365 289zM1286 770q0 -240 -508 -412q0 -244 131 -243q70 0 137.5 54t110.5 138
l25 -2l51 -72q-143 -207 -322 -247h-22q-186 20 -227 188q-117 -174 -324 -192q-130 16 -191 96t-61 229q0 279 124 457t335 190h18q168 -27 203 -182q121 174 326 182q194 -19 194 -184z" />
    <glyph glyph-name="Racute" unicode="&#x154;" horiz-adv-x="1083" 
d="M852 971q0 205 -229 217l-193 -6l-76 -559l236 -7q262 80 262 355zM1012 992q0 -155 -83 -275.5t-231 -186.5q117 -250 263 -493l-3 -19q-76 -29 -145 -36l-18 14q-145 289 -230 496h-227l-12 -84l-43 -408h-154l57 395l109 916h2l365 4q164 0 257 -84t93 -239zM526 1438
l-43 61q195 162 332 297l19 -2l57 -80l-4 -18q-205 -162 -344 -260z" />
    <glyph glyph-name="racute" unicode="&#x155;" horiz-adv-x="671" 
d="M717 942l-31 -205l-12 -6l-19 2q-98 -14 -188 -134t-209 -415l-8 -178l-156 -14l107 743l10 199l149 14l-61 -450h16q145 299 351 448zM350 1065l-43 61q195 162 332 297l18 -2l58 -80l-4 -18q-205 -162 -344 -260z" />
    <glyph glyph-name="Rcommaaccent" unicode="&#x156;" horiz-adv-x="1083" 
d="M559 -244q0 -121 -174 -250l-51 45l2 13q104 86 104 168q0 47 -59 90v12q49 33 98 49q80 -51 80 -127zM852 971q0 205 -229 217l-193 -6l-76 -559l236 -7q262 80 262 355zM1012 992q0 -155 -83 -275.5t-231 -186.5q117 -250 263 -493l-3 -19q-76 -29 -145 -36l-18 14
q-145 289 -230 496h-227l-12 -84l-43 -408h-154l57 395l109 916h2l365 4q164 0 257 -84t93 -239z" />
    <glyph glyph-name="rcommaaccent" unicode="&#x157;" horiz-adv-x="671" 
d="M254 -244q0 -121 -174 -250l-51 45l2 13q104 86 104 168q0 47 -59 90v12q49 33 98 49q80 -51 80 -127zM717 942l-31 -205l-12 -6l-19 2q-98 -14 -188 -134t-209 -415l-8 -178l-156 -14l107 743l10 199l149 14l-61 -450h16q145 299 351 448z" />
    <glyph glyph-name="Rcaron" unicode="&#x158;" horiz-adv-x="1083" 
d="M852 971q0 205 -229 217l-193 -6l-76 -559l236 -7q262 80 262 355zM1012 992q0 -155 -83 -275.5t-231 -186.5q117 -250 263 -493l-3 -19q-76 -29 -145 -36l-18 14q-145 289 -230 496h-227l-12 -84l-43 -408h-154l57 395l109 916h2l365 4q164 0 257 -84t93 -239zM678 1442
h-47q-100 147 -217 272l49 64h18q109 -119 181 -217q80 80 235 217h21l32 -64q-59 -55 -272 -272z" />
    <glyph glyph-name="rcaron" unicode="&#x159;" horiz-adv-x="671" 
d="M299 498h16q145 299 351 448l51 -4l-31 -205l-12 -6l-19 2q-98 -14 -188 -134t-209 -415l-8 -178l-156 -14l107 743l10 199l149 14zM502 1069h-47q-100 147 -217 272l49 64h18q109 -119 180 -217q80 80 236 217h20l33 -64q-59 -55 -272 -272z" />
    <glyph glyph-name="Sacute" unicode="&#x15a;" horiz-adv-x="923" 
d="M591.5 1323q165.5 0 307.5 -63l-43 -146l-27 -8q-106 90 -230 90t-196.5 -64.5t-72.5 -142.5t51 -133t125 -98t147.5 -92.5t124.5 -125t51 -171.5q0 -162 -128 -272.5t-317 -110.5t-345 92l39 158l20 8q119 -131 297 -131q121 0 199 66.5t78 148.5t-51.5 139t-123 100
t-144 90.5t-124 122t-51.5 172.5q0 158 124 264.5t289.5 106.5zM756 1794l57 -80l-4 -18q-205 -162 -344 -260l-16 2l-43 61q195 162 331 297z" />
    <glyph glyph-name="sacute" unicode="&#x15b;" horiz-adv-x="649" 
d="M403.5 842q-73.5 0 -117.5 -44t-44 -96.5t49 -99.5t106.5 -82t106.5 -98.5t49 -142.5q0 -125 -99.5 -209t-254.5 -86q-106 14 -205 69l39 146l22 10q86 -117 199 -117q70 0 114 45t44 96.5t-32 91.5t-78 71.5t-92 65.5q-110 81 -110 204t104 205.5t249 78.5
q82 -16 172 -51l-45 -139l-25 -8q-78 90 -151.5 90zM586 1421l57 -80l-4 -18q-205 -162 -344 -260l-16 2l-43 61q195 162 331 297z" />
    <glyph glyph-name="Scircumflex" unicode="&#x15c;" horiz-adv-x="923" 
d="M591.5 1323q165.5 0 307.5 -63l-43 -146l-27 -8q-106 90 -230 90t-196.5 -64.5t-72.5 -142.5t51 -133t125 -98t147.5 -92.5t124.5 -125t51 -171.5q0 -162 -128 -272.5t-317 -110.5t-345 92l39 158l20 8q119 -131 297 -131q121 0 199 66.5t78 148.5t-51.5 139t-123 100
t-144 90.5t-124 122t-51.5 172.5q0 158 124 264.5t289.5 106.5zM371 1440l-35 61q115 104 278 275h48q96 -141 210 -275l-49 -61h-16q-96 98 -182 215q-92 -92 -236 -215h-18z" />
    <glyph glyph-name="scircumflex" unicode="&#x15d;" horiz-adv-x="649" 
d="M403.5 842q-73.5 0 -117.5 -44t-44 -96.5t49 -99.5t106.5 -82t106.5 -98.5t49 -142.5q0 -125 -99.5 -209t-254.5 -86q-106 14 -205 69l39 146l22 10q86 -117 199 -117q70 0 114 45t44 96.5t-32 91.5t-78 71.5t-92 65.5q-110 81 -110 204t104 205.5t249 78.5
q82 -16 172 -51l-45 -139l-25 -8q-78 90 -151.5 90zM201 1067l-35 61q115 104 278 275h48q96 -141 210 -275l-49 -61h-16q-96 98 -182 215q-92 -92 -236 -215h-18z" />
    <glyph glyph-name="Scedilla" unicode="&#x15e;" horiz-adv-x="923" 
d="M591.5 1323q165.5 0 307.5 -63l-43 -146l-27 -8q-106 90 -230 90t-196.5 -64.5t-72.5 -142.5t51 -133t125 -98t147.5 -92.5t124.5 -125t51 -171.5q0 -152 -115.5 -260.5t-293.5 -120.5l-27 -92l68 -41q78 -41 78 -106.5t-45 -102.5t-125 -37t-140 63l17 78l10 4
q53 -63 117 -63t63 55q0 31 -45 51l-96 60l35 131q-162 14 -291 90l39 158l20 8q119 -131 297 -131q121 0 199 66.5t78 148.5t-51.5 139t-123 100t-144 90.5t-124 122t-51.5 172.5q0 158 124 264.5t289.5 106.5z" />
    <glyph glyph-name="scedilla" unicode="&#x15f;" horiz-adv-x="649" 
d="M403.5 842q-73.5 0 -117.5 -44t-44 -96.5t49 -99.5t106.5 -82t106.5 -98.5t49 -155t-70.5 -169t-187.5 -103.5l-29 -98l68 -41q78 -41 78 -106.5t-45 -102.5t-125 -37t-140 63l17 78l10 4q53 -63 117 -63t63 55q0 31 -45 51l-96 60l35 127h-4q-106 14 -205 69l39 146
l22 10q86 -117 199 -117q70 0 114 45t44 96.5t-32 91.5t-78 71.5t-92 65.5q-110 81 -110 204t104 205.5t249 78.5q82 -16 172 -51l-45 -139l-25 -8q-78 90 -151.5 90z" />
    <glyph glyph-name="Scaron" unicode="&#x160;" horiz-adv-x="923" 
d="M591.5 1323q165.5 0 307.5 -63l-43 -146l-27 -8q-106 90 -230 90t-196.5 -64.5t-72.5 -142.5t51 -133t125 -98t147.5 -92.5t124.5 -125t51 -171.5q0 -162 -128 -272.5t-317 -110.5t-345 92l39 158l20 8q119 -131 297 -131q121 0 199 66.5t78 148.5t-51.5 139t-123 100
t-144 90.5t-124 122t-51.5 172.5q0 158 124 264.5t289.5 106.5zM842 1778l32 -64q-59 -55 -272 -272h-47q-100 147 -217 272l49 64h19q109 -119 180 -217q80 80 235 217h21z" />
    <glyph glyph-name="scaron" unicode="&#x161;" horiz-adv-x="649" 
d="M403.5 842q-73.5 0 -117.5 -44t-44 -96.5t49 -99.5t106.5 -82t106.5 -98.5t49 -142.5q0 -125 -99.5 -209t-254.5 -86q-106 14 -205 69l39 146l22 10q86 -117 199 -117q70 0 114 45t44 96.5t-32 91.5t-78 71.5t-92 65.5q-110 81 -110 204t104 205.5t249 78.5
q82 -16 172 -51l-45 -139l-25 -8q-78 90 -151.5 90zM672 1405l33 -64q-59 -55 -273 -272h-47q-100 147 -217 272l49 64h19q109 -119 180 -217q80 80 235 217h21z" />
    <glyph glyph-name="Tcedilla" unicode="&#x162;" horiz-adv-x="956" 
d="M415.5 -381q-67.5 0 -130.5 64l16 71l10 2q45 -63 102.5 -63t57.5 57q0 27 -35 55l-90 58l35 137h-35l60 395l88 793h-125l-224 -10l-10 14l29 119h846l8 -15l-29 -118l-213 10h-129l-104 -780l-43 -408h-41l-27 -104l62 -39q72 -47 71.5 -106.5t-41.5 -95.5t-108.5 -36z
" />
    <glyph glyph-name="tcedilla" unicode="&#x163;" horiz-adv-x="663" 
d="M352 139q76 0 185 158l24 -2l45 -64q-121 -156 -229 -221l-35 -114l68 -41q78 -41 77.5 -106.5t-45.5 -102.5t-124.5 -37t-139.5 63l17 78l10 4q53 -63 116.5 -63t63.5 55q0 31 -45 51l-96 60l37 141q-127 41 -125 166l2 33l90 540l8 82h-133l-12 10l12 93h145l23 221
l145 65l17 -10l-45 -276h251l15 -17l-12 -86h-271l-92 -575l-4 -37q0 -68 57 -68z" />
    <glyph glyph-name="Tcaron" unicode="&#x164;" horiz-adv-x="956" 
d="M1018 1296l-29 -118l-213 10h-129l-104 -780l-43 -408h-154l60 395l88 793h-125l-224 -10l-10 14l29 119h846zM616 1442h-47q-100 147 -217 272l49 64h19q109 -119 180 -217q80 80 236 217h20l33 -64q-60 -55 -273 -272z" />
    <glyph glyph-name="tcaron" unicode="&#x165;" horiz-adv-x="663" 
d="M352 139q76 0 185 158l24 -2l45 -64q-135 -174 -266 -241h-23q-164 29 -161 174l2 33l90 540l8 82h-133l-12 10l12 93h145l23 221l145 65l17 -10l-45 -276h251l15 -17l-12 -86h-271l-92 -575l-4 -37q0 -68 57 -68zM559 1016l-12 12l55 352l111 9l10 -13l-88 -348z" />
    <glyph glyph-name="Tbar" unicode="&#x166;" horiz-adv-x="956" 
d="M647 1188l-63 -479h192l12 -13l-6 -86h-213l-26 -202l-43 -408h-154l60 395l24 215h-184l-13 13l9 86h198l54 479h-125l-224 -10l-10 14l29 119h846l8 -15l-29 -118l-213 10h-129z" />
    <glyph glyph-name="tbar" unicode="&#x167;" horiz-adv-x="679" 
d="M360 139q78 0 183 158l24 -2l47 -64q-135 -174 -266 -241h-24q-162 29 -160 174l2 33l49 299h-141l-13 12l9 86h161l25 143l8 82h-133l-12 10l10 93h147l23 221l145 65l17 -10l-45 -276h252l12 -17l-10 -86h-271l-34 -225h217l14 -12l-8 -86h-240l-41 -252l-4 -37
q0 -68 57 -68z" />
    <glyph glyph-name="Umacron" unicode="&#x16a;" horiz-adv-x="1222" 
d="M573 -14q-211 0 -321.5 100t-110.5 283q0 59 9 110l24 178l78 654h151l-108 -813q-6 -49 -6 -92q0 -283 278 -283q326 0 365 356l96 832h154l-107 -815q-27 -244 -159 -377t-343 -133zM1057 1657l-10 -92h-580l-12 12l10 90h579z" />
    <glyph glyph-name="umacron" unicode="&#x16b;" horiz-adv-x="964" 
d="M295 160q61 0 167.5 146.5t239.5 422.5v6l11 199l151 14l-102 -725l-8 -217l-156 -14l64 459h-13q-193 -330 -358 -459h-23q-70 16 -114.5 61t-42.5 115l2 27l84 528l16 215l152 12l-107 -686l-4 -43q-2 -61 41 -61zM879 1284l-11 -92h-579l-13 12l11 90h579z" />
    <glyph glyph-name="Ubreve" unicode="&#x16c;" horiz-adv-x="1222" 
d="M573 -14q-211 0 -321.5 100t-110.5 283q0 59 9 110l24 178l78 654h151l-108 -813q-6 -49 -6 -92q0 -283 278 -283q326 0 365 356l96 832h154l-107 -815q-27 -244 -159 -377t-343 -133zM731 1450q-213 0 -233 233l49 60h22q18 -180 168 -180t207 180h25l37 -60
q-76 -233 -275 -233z" />
    <glyph glyph-name="ubreve" unicode="&#x16d;" horiz-adv-x="964" 
d="M295 160q61 0 167.5 146.5t239.5 422.5v6l11 199l151 14l-102 -725l-8 -217l-156 -14l64 459h-13q-193 -330 -358 -459h-23q-70 16 -114.5 61t-42.5 115l2 27l84 528l16 215l152 12l-107 -686l-4 -43q-2 -61 41 -61zM555 1077q-213 0 -233 234l49 59h22q18 -180 168 -180
t207 180h25l36 -59q-75 -234 -274 -234z" />
    <glyph glyph-name="Uring" unicode="&#x16e;" horiz-adv-x="1222" 
d="M573 -14q-211 0 -321.5 100t-110.5 283q0 59 9 110l24 178l78 654h151l-108 -813q-6 -49 -6 -92q0 -283 278 -283q326 0 365 356l96 832h154l-107 -815q-27 -244 -159 -377t-343 -133zM756 1718q-92 0 -92 -88q0 -45 25.5 -69.5t67.5 -24.5t67.5 23.5t25.5 65.5
t-24.5 67.5t-69.5 25.5zM758 1796q80 0 124 -46t44 -122t-49.5 -121t-123 -45t-119.5 44t-46 121t45 123t125 46z" />
    <glyph glyph-name="uring" unicode="&#x16f;" horiz-adv-x="964" 
d="M295 160q61 0 167.5 146.5t239.5 422.5v6l11 199l151 14l-102 -725l-8 -217l-156 -14l64 459h-13q-193 -330 -358 -459h-23q-70 16 -114.5 61t-42.5 115l2 27l84 528l16 215l152 12l-107 -686l-4 -43q-2 -61 41 -61zM578 1346q-92 0 -93 -89q0 -45 26 -69.5t68 -24.5
t67.5 23.5t25.5 65.5t-24.5 68t-69.5 26zM575.5 1090q-73.5 0 -119.5 44t-46 120.5t45 122.5t124.5 46t124 -46t44.5 -121.5t-49.5 -120.5t-123 -45z" />
    <glyph glyph-name="Uhungarumlaut" unicode="&#x170;" horiz-adv-x="1222" 
d="M573 -14q-211 0 -321.5 100t-110.5 283q0 59 9 110l24 178l78 654h151l-108 -813q-6 -49 -6 -92q0 -283 278 -283q326 0 365 356l96 832h154l-107 -815q-27 -244 -159 -377t-343 -133zM797 1470l-52 48q199 215 226 245h12l74 -49l-2 -16q-53 -53 -240 -225zM506 1470
l-51 48q166 176 225 245h16l70 -49v-16q-104 -102 -242 -225z" />
    <glyph glyph-name="uhungarumlaut" unicode="&#x171;" horiz-adv-x="964" 
d="M295 160q61 0 167.5 146.5t239.5 422.5v6l11 199l151 14l-102 -725l-8 -217l-156 -14l64 459h-13q-193 -330 -358 -459h-23q-70 16 -114.5 61t-42.5 115l2 27l84 528l16 215l152 12l-107 -686l-4 -43q-2 -61 41 -61zM967 1370v-14q-121 -125 -295 -293h-17l-53 47
q139 145 279 313h16zM367 1063l-54 47q139 145 279 313h16l70 -53v-14q-121 -125 -295 -293h-16z" />
    <glyph glyph-name="Uogonek" unicode="&#x172;" horiz-adv-x="1220" 
d="M694 -229q0 -72 75 -72t136 82h10l25 -74q-98 -111 -192 -110q-70 0 -111 44t-41 114.5t45 135.5l70 113q-72 -18 -154 -18q-195 0 -305.5 100t-110.5 283q0 59 9 110l24 178l78 654h151l-108 -813q-6 -49 -6 -92q0 -283 278 -283q326 0 365 356l96 832h154l-107 -815
q-35 -317 -241 -441l-105 -180q-35 -57 -35 -104z" />
    <glyph glyph-name="uogonek" unicode="&#x173;" horiz-adv-x="966" 
d="M528 -238q0 -59 64.5 -59t120.5 76h6l29 -82q-90 -100 -179 -100q-61 0 -102 38.5t-41 96t36 114t138 166.5l62 439h-13q-193 -330 -358 -459h-23q-70 16 -114.5 61t-42.5 115l2 27l84 528l16 215l152 12l-107 -686l-4 -43q-2 -61 41 -61q61 0 167.5 146.5t239.5 422.5v6
l11 199l151 14l-102 -725l-8 -217l-62 -6q-98 -106 -131 -154.5t-33 -83.5z" />
    <glyph glyph-name="Wcircumflex" unicode="&#x174;" horiz-adv-x="1738" 
d="M1214 0h-157l-150 774h-12l-354 -774h-162l-234 1311h152l6 -121l182 -1018h13l370 809l-65 330h158l12 -135l184 -1004h12l467 1008l45 131h146zM735 1499l-24 68q115 70 256 182h45q84 -82 217 -182l-41 -68h-17q-88 59 -190 137q-131 -82 -227 -137h-19z" />
    <glyph glyph-name="wcircumflex" unicode="&#x175;" horiz-adv-x="1396" 
d="M1231 755q0 71 -47 140l4 20l143 33q47 -82 47 -174t-90 -252l-289 -522h-159l-76 731h-14l-326 -731h-168l-109 934l150 14l4 -125l64 -649h14l287 641l47 125h159l7 -117l63 -649h14l209 391q66 119 66 190zM561 1067l-35 61q115 104 279 275h47q96 -141 211 -275
l-49 -61h-17q-96 98 -182 215q-92 -92 -235 -215h-19z" />
    <glyph glyph-name="Ycircumflex" unicode="&#x176;" horiz-adv-x="1028" 
d="M567 477l-14 -94l-43 -383h-154l60 383l10 96l-291 832h162l14 -72l201 -596h14l373 592l39 76h168zM424 1499l-25 68q115 70 256 182h45q84 -82 218 -182l-41 -68h-17q-88 59 -190 137q-131 -82 -228 -137h-18z" />
    <glyph glyph-name="ycircumflex" unicode="&#x177;" horiz-adv-x="833" 
d="M815 765.5q0 -106.5 -100 -284.5l-236 -415q-143 -252 -265 -358.5t-257 -106.5q-82 0 -160 32l-8 131l16 13q82 -31 150 -31q184 0 344 240l-184 948l149 14l121 -766h27l184 350q74 137 74 216.5t-49 146.5l6 20l141 33q47 -76 47 -182.5zM225 1067l-35 61
q115 104 279 275h47q96 -141 211 -275l-49 -61h-16q-96 98 -183 215q-92 -92 -235 -215h-19z" />
    <glyph glyph-name="Ydieresis" unicode="&#x178;" horiz-adv-x="1028" 
d="M567 477l-14 -94l-43 -383h-154l60 383l10 96l-291 832h162l14 -72l201 -596h14l373 592l39 76h168zM819 1526q-84 0 -84 84q0 41 23.5 65.5t63.5 24.5t61.5 -22.5t21.5 -62.5t-23.5 -64.5t-62.5 -24.5zM494 1526q-84 0 -84 86q0 41 23.5 65.5t62.5 24.5t61.5 -23.5
t22.5 -62.5t-23.5 -64.5t-62.5 -25.5z" />
    <glyph glyph-name="Zacute" unicode="&#x179;" horiz-adv-x="1030" 
d="M1042 1198l-835 -1073h520l184 14l7 -12l-29 -131l-223 4h-549l-111 -6l14 115l838 1075h-485l-187 -13l-8 11l31 131l752 -2l96 2zM795 1759l41 -90l-7 -18q-80 -39 -395 -176l-18 8l-29 69q217 109 391 211z" />
    <glyph glyph-name="zacute" unicode="&#x17a;" horiz-adv-x="833" 
d="M471 123q90 0 132 58.5t48 199.5l25 12l74 -41q-8 -186 -81 -279t-200 -93q-57 0 -158.5 33.5t-157 33.5t-114.5 -59h-16l-48 45l584 778l-283 -2l-141 -16l-14 12l31 137l14 10l133 -10l389 -2l49 29l49 -45l-581 -768l61 14q33 0 103.5 -23.5t101.5 -23.5zM664 1421
l57 -80l-4 -18q-205 -162 -344 -260l-17 2l-43 61q195 162 332 297z" />
    <glyph glyph-name="Zdotaccent" unicode="&#x17b;" horiz-adv-x="1030" 
d="M1042 1198l-835 -1073h520l184 14l7 -12l-29 -131l-223 4h-549l-111 -6l14 115l838 1075h-485l-187 -13l-8 11l31 131l752 -2l96 2zM596 1726q84 0 84 -88q0 -43 -24.5 -68.5t-65.5 -25.5t-64.5 24.5t-23.5 65.5t25.5 66.5t68.5 25.5z" />
    <glyph glyph-name="zdotaccent" unicode="&#x17c;" horiz-adv-x="833" 
d="M471 123q90 0 132 58.5t48 199.5l25 12l74 -41q-8 -186 -81 -279t-200 -93q-57 0 -158.5 33.5t-157 33.5t-114.5 -59h-16l-48 45l584 778l-283 -2l-141 -16l-14 12l31 137l14 10l133 -10l389 -2l49 29l49 -45l-581 -768l61 14q33 0 103.5 -23.5t101.5 -23.5zM520 1354
q84 0 84 -88q0 -43 -24.5 -69t-65.5 -26t-64.5 25t-23.5 66t25.5 66.5t68.5 25.5z" />
    <glyph glyph-name="Zcaron" unicode="&#x17d;" horiz-adv-x="1030" 
d="M1042 1198l-835 -1073h520l184 14l7 -12l-29 -131l-223 4h-549l-111 -6l14 115l838 1075h-485l-187 -13l-8 11l31 131l752 -2l96 2zM387 1733q96 -67 191 -136q80 51 225 136h18l25 -66q-131 -82 -254 -184h-45q-115 104 -217 184l39 66h18z" />
    <glyph glyph-name="zcaron" unicode="&#x17e;" horiz-adv-x="833" 
d="M471 123q90 0 132 58.5t48 199.5l25 12l74 -41q-8 -186 -81 -279t-200 -93q-57 0 -158.5 33.5t-157 33.5t-114.5 -59h-16l-48 45l584 778l-283 -2l-141 -16l-14 12l31 137l14 10l133 -10l389 -2l49 29l49 -45l-581 -768l61 14q33 0 103.5 -23.5t101.5 -23.5zM748 1405
l32 -64q-59 -55 -272 -272h-47q-100 147 -217 272l49 64h18q109 -119 181 -217q80 80 235 217h21z" />
    <glyph glyph-name="florin" unicode="&#x192;" horiz-adv-x="565" 
d="M610 1260q61 0 146 -19l-21 -100l-14 -6q-61 27 -125 26q-182 0 -205 -194l-26 -203h225l8 -10l-8 -74h-238l-71 -584q-13 -137 -65 -222t-177 -181l-62 59l3 15q92 79 129 147t49 178l71 588h-133l-8 10l6 74h146l22 184q16 150 107 231t241 81z" />
    <glyph glyph-name="Ohorn" unicode="&#x1a0;" horiz-adv-x="1257" 
d="M719 1196q-227 0 -346 -169t-119 -466q0 -231 78 -339.5t248 -108.5q227 0 347 172t120 469q0 229 -79 335.5t-249 106.5zM1265 1565q34 0 60.5 -43t26.5 -107q0 -106 -74 -170.5t-184 -68.5q113 -135 112 -398q0 -356 -172 -575t-469 -219q-469 0 -469 565
q0 348 170 562t465 214q104 0 205.5 -31.5t150.5 -31.5t94.5 34.5t45.5 103.5t-47 118l6 16q45 31 79 31z" />
    <glyph glyph-name="ohorn" unicode="&#x1a1;" horiz-adv-x="884" 
d="M354 100q139 0 215 144.5t76 386.5q0 106 -30.5 154.5t-98.5 48.5q-139 0 -214 -142.5t-75 -382.5q0 -111 29.5 -160t97.5 -49zM999 1016q0 -80 -69.5 -142.5t-167.5 -66.5q27 -61 26 -164q0 -287 -120.5 -465t-331.5 -196q-131 15 -190.5 95.5t-59.5 229.5
q0 279 124 458t335 189h16q39 -8 96.5 -31.5t103.5 -23.5t78.5 28.5t32.5 90.5t-65 123l6 18q47 35 82 35t69.5 -49t34.5 -129z" />
    <glyph glyph-name="Uhorn" unicode="&#x1af;" horiz-adv-x="1234" 
d="M1333 1424.5q0 -65.5 -43 -115t-119 -70.5l-96 -743q-27 -244 -159 -377t-343 -133t-321.5 100t-110.5 283q0 59 9 110l24 178l78 654h151l-108 -813q-6 -49 -6 -92q0 -283 278 -283q326 0 365 356l96 832h57q127 0 127 106q0 61 -61 123l6 14q45 31 78 31t65.5 -47.5
t32.5 -113z" />
    <glyph glyph-name="uhorn" unicode="&#x1b0;" horiz-adv-x="968" 
d="M1053 1092q0 -145 -199 -213l-90 -656l-10 -217l-154 -14l66 465h-17q-102 -178 -185 -287t-173 -178h-23q-72 16 -115.5 61t-41.5 115l2 27l84 528l16 215l152 12l-109 -686l-2 -28q-2 -76 41 -76q59 0 167.5 152.5t242.5 441.5l10 180l61 12q150 20 150 119
q0 68 -64 133l4 16q47 37 83 37t70 -48t34 -111z" />
    <glyph glyph-name="Acaron" unicode="&#x1cd;" horiz-adv-x="1122" 
d="M788 494l-120 657h-15l-309 -657l219 -2zM1026 0h-156l-14 127l-43 235l-278 5l-252 -5l-107 -227l-49 -135h-154l623 1311h176zM713 1483h-45q-115 104 -217 184l38 66h19l190 -136q80 51 226 136h18l25 -66q-131 -82 -254 -184z" />
    <glyph glyph-name="acaron" unicode="&#x1ce;" horiz-adv-x="899" 
d="M272 154q20 0 73.5 59t135.5 196.5t156 311.5l2 12l2 49l-125 45q-141 0 -225 -138q-84 -139 -84 -337q1 -198 65 -198zM780 954l21 -12l-103 -719l-10 -217l-153 -14l59 420h-21q-145 -256 -321 -426h-29q-156 88 -155.5 320t126 420.5t353.5 225.5h10l127 -45z
M541 1071h-47q-100 147 -218 272l50 64h18q109 -119 180 -217q80 80 236 217h20l33 -64q-59 -55 -272 -272z" />
    <glyph glyph-name="Icaron" unicode="&#x1cf;" horiz-adv-x="530" 
d="M326 408l-43 -408h-154l57 395l107 916h153zM205 1733q130 -91 190 -136q80 51 226 136h18l25 -66q-131 -82 -254 -184h-45q-115 104 -218 184l39 66h19z" />
    <glyph glyph-name="icaron" unicode="&#x1d0;" horiz-adv-x="446" 
d="M254 223l-8 -217l-156 -14l107 743l8 199l151 14zM551 1405l33 -64q-59 -55 -273 -272h-47q-100 147 -217 272l49 64h19q109 -119 180 -217q80 80 235 217h21z" />
    <glyph glyph-name="Ocaron" unicode="&#x1d1;" horiz-adv-x="1251" 
d="M719 1196q-465 0 -465 -664q0 -420 324 -419q233 0 351 172t118 497q0 414 -328 414zM737 1325q225 0 348 -137t123 -387q0 -381 -168 -599t-475 -218q-221 0 -345 142t-124 396q0 377 167 590t474 213zM999 1733l25 -66q-131 -82 -254 -184h-45q-115 104 -217 184l39 66
h18l191 -136q80 51 225 136h18z" />
    <glyph glyph-name="ocaron" unicode="&#x1d2;" horiz-adv-x="841" 
d="M502 829q-139 0 -213 -141t-74 -381q0 -106 29.5 -154.5t97.5 -48.5q135 0 209 143.5t74 385.5q0 104 -28.5 150t-94.5 46zM768 636.5q0 -280.5 -119 -458.5t-330 -196q-126 16 -185.5 96t-59.5 227q0 281 122.5 459t331.5 190h17q223 -37 223 -317.5zM770 1405l33 -64
q-59 -55 -273 -272h-47q-100 147 -217 272l49 64h19q109 -119 180 -217q80 80 236 217h20z" />
    <glyph glyph-name="Ucaron" unicode="&#x1d3;" horiz-adv-x="1222" 
d="M573 -14q-211 0 -321.5 100t-110.5 283q0 59 9 110l24 178l78 654h151l-108 -813q-6 -49 -6 -92q0 -283 278 -283q326 0 365 356l96 832h154l-107 -815q-27 -244 -159 -377t-343 -133zM989 1778l33 -64q-59 -55 -272 -272h-48q-100 147 -217 272l50 64h18
q109 -119 180 -217q80 80 236 217h20z" />
    <glyph glyph-name="ucaron" unicode="&#x1d4;" horiz-adv-x="964" 
d="M295 160q61 0 167.5 146.5t239.5 422.5v6l11 199l151 14l-102 -725l-8 -217l-156 -14l64 459h-13q-193 -330 -358 -459h-23q-70 16 -114.5 61t-42.5 115l2 27l84 528l16 215l152 12l-107 -686l-4 -43q-2 -61 41 -61zM573 1069h-47q-100 147 -217 272l49 64h19
q109 -119 180 -217q80 80 236 217h20l33 -64q-60 -55 -273 -272z" />
    <glyph glyph-name="Udieresismacron" unicode="&#x1d5;" horiz-adv-x="1222" 
d="M573 -14q-211 0 -321.5 100t-110.5 283q0 59 9 110l24 178l78 654h151l-108 -813q-6 -49 -6 -92q0 -283 278 -283q326 0 365 356l96 832h154l-107 -815q-27 -244 -159 -377t-343 -133zM940 1655q78 0 78 -80q0 -39 -22.5 -61.5t-61.5 -22.5q-78 0 -78 80q0 39 22.5 61.5
t61.5 22.5zM621 1655q78 0 77 -80q0 -39 -22.5 -61.5t-61.5 -22.5q-78 0 -77 80q0 39 22.5 61.5t61.5 22.5zM1075 1884l-10 -92h-524l-15 12l11 92h526z" />
    <glyph glyph-name="udieresismacron" unicode="&#x1d6;" horiz-adv-x="964" 
d="M295 160q61 0 167.5 146.5t239.5 422.5v6l11 199l151 14l-102 -725l-8 -217l-156 -14l64 459h-13q-193 -330 -358 -459h-23q-70 16 -114.5 61t-42.5 115l2 27l84 528l16 215l152 12l-107 -686l-4 -43q-2 -61 41 -61zM842 1202q0 -39 -22.5 -61.5t-61.5 -22.5
q-78 0 -78 80q0 39 22.5 61.5t61.5 22.5q78 0 78 -80zM438 1118q-78 0 -78 80q0 39 23 61.5t61 22.5q78 0 78 -80q0 -39 -22.5 -61.5t-61.5 -22.5zM899 1511l-10 -92h-524l-15 13l10 92h527z" />
    <glyph glyph-name="Udieresisacute" unicode="&#x1d7;" horiz-adv-x="1222" 
d="M573 -14q-211 0 -321.5 100t-110.5 283q0 59 9 110l24 178l78 654h151l-108 -813q-6 -49 -6 -92q0 -283 278 -283q326 0 365 356l96 832h154l-107 -815q-27 -244 -159 -377t-343 -133zM908 1655q38 0 59.5 -21.5t21.5 -59.5t-22.5 -60.5t-61.5 -22.5q-80 0 -80 80
q0 39 22.5 61.5t60.5 22.5zM589 1655q38 0 59.5 -21.5t21.5 -59.5t-22.5 -60.5t-61.5 -22.5q-80 0 -80 80q0 39 22.5 61.5t60.5 22.5zM973 1978l26 -94l-10 -18q-209 -55 -420 -103l-18 11l-14 73q256 76 421 140z" />
    <glyph glyph-name="udieresisacute" unicode="&#x1d8;" horiz-adv-x="964" 
d="M295 160q61 0 167.5 146.5t239.5 422.5v6l11 199l151 14l-102 -725l-8 -217l-156 -14l64 459h-13q-193 -330 -358 -459h-23q-70 16 -114.5 61t-42.5 115l2 27l84 528l16 215l152 12l-107 -686l-4 -43q-2 -61 41 -61zM649 1198q0 39 22.5 61.5t60.5 22.5t59.5 -21.5
t21.5 -59.5t-22.5 -60.5t-61.5 -22.5q-80 0 -80 80zM410 1118q-80 0 -80 80q0 39 22.5 61.5t60.5 22.5t59.5 -21.5t21.5 -59.5t-22.5 -60.5t-61.5 -22.5zM375 1401l-15 74q256 76 422 139l15 -8l26 -95l-10 -18q-209 -55 -420 -102z" />
    <glyph glyph-name="Udieresiscaron" unicode="&#x1d9;" horiz-adv-x="1222" 
d="M573 -14q-211 0 -321.5 100t-110.5 283q0 59 9 110l24 178l78 654h151l-108 -813q-6 -49 -6 -92q0 -283 278 -283q326 0 365 356l96 832h154l-107 -815q-27 -244 -159 -377t-343 -133zM912 1655q38 0 59.5 -21.5t21.5 -59.5t-22.5 -60.5t-61.5 -22.5q-80 0 -80 80
q0 39 22.5 61.5t60.5 22.5zM593 1655q38 0 59.5 -21.5t21.5 -59.5t-22.5 -60.5t-61.5 -22.5q-78 0 -78 80q0 39 21.5 61.5t59.5 22.5zM1014 1954l24 -68q-129 -78 -256 -182h-43q-106 96 -219 182l41 68h17q111 -76 190 -137q156 96 227 137h19z" />
    <glyph glyph-name="udieresiscaron" unicode="&#x1da;" horiz-adv-x="964" 
d="M295 160q61 0 167.5 146.5t239.5 422.5v6l11 199l151 14l-102 -725l-8 -217l-156 -14l64 459h-13q-193 -330 -358 -459h-23q-70 16 -114.5 61t-42.5 115l2 27l84 528l16 215l152 12l-107 -686l-4 -43q-2 -61 41 -61zM653 1198q0 39 22.5 61.5t60.5 22.5t59.5 -21.5
t21.5 -59.5t-22.5 -60.5t-61.5 -22.5q-80 0 -80 80zM414 1118q-78 0 -78 80q0 39 21.5 61.5t59.5 22.5t59.5 -21.5t21.5 -59.5t-22.5 -60.5t-61.5 -22.5zM606 1331h-43q-106 96 -219 182l41 68h16q111 -76 191 -137q156 96 227 137h19l24 -68q-129 -78 -256 -182z" />
    <glyph glyph-name="Udieresisgrave" unicode="&#x1db;" horiz-adv-x="1222" 
d="M573 -14q-211 0 -321.5 100t-110.5 283q0 59 9 110l24 178l78 654h151l-108 -813q-6 -49 -6 -92q0 -283 278 -283q326 0 365 356l96 832h154l-107 -815q-27 -244 -159 -377t-343 -133zM909 1655q70 0 70 -70q0 -41 -25.5 -67.5t-68.5 -26.5q-70 0 -70 70q0 41 25.5 67.5
t68.5 26.5zM590 1655q70 0 69 -70q0 -41 -25.5 -67.5t-68.5 -26.5q-70 0 -69 70q0 41 25.5 67.5t68.5 26.5zM592 1978l18 9q141 -57 404 -140l-23 -73l-20 -11q-223 51 -406 103l-8 18z" />
    <glyph glyph-name="udieresisgrave" unicode="&#x1dc;" horiz-adv-x="964" 
d="M295 160q61 0 167.5 146.5t239.5 422.5v6l11 199l151 14l-102 -725l-8 -217l-156 -14l64 459h-13q-193 -330 -358 -459h-23q-70 16 -114.5 61t-42.5 115l2 27l84 528l16 215l152 12l-107 -686l-4 -43q-2 -61 41 -61zM731 1282q70 0 70 -70q0 -41 -25.5 -67.5t-68.5 -26.5
q-70 0 -70 70q0 41 25.5 67.5t68.5 26.5zM387 1118q-70 0 -70 70q0 41 26 67.5t69 26.5q70 0 69 -70q0 -41 -25.5 -67.5t-68.5 -26.5zM813 1401l-20 -10q-223 51 -406 102l-8 18l35 95l18 8q141 -57 404 -139z" />
    <glyph glyph-name="Oogonek" unicode="&#x1ea;" horiz-adv-x="1251" 
d="M254 532q0 -420 324 -419q233 0 351 172t118 497q0 414 -328 414q-465 0 -465 -664zM702 -215q0 -84 82 -84q72 0 144 82h8l22 -78q-102 -109 -198 -108q-72 0 -116 45t-44 116.5t51 147.5l64 92q-82 -14 -150 -14q-221 0 -345 142t-124 396q0 377 167 590t474 213
q225 0 348 -137t123 -404.5t-95 -465t-275 -279.5l-101 -152q-35 -59 -35 -102z" />
    <glyph glyph-name="oogonek" unicode="&#x1eb;" horiz-adv-x="878" 
d="M215 307q0 -106 29.5 -154.5t97.5 -48.5q135 0 209 143.5t74 385.5q0 104 -29 150t-94 46q-139 0 -213 -141t-74 -381zM440 -406q-72 0 -115.5 45.5t-43.5 117t51 147.5l61 90q-33 -10 -74 -12q-126 16 -185.5 96t-59.5 227q0 281 122.5 459t331.5 190h17
q223 -37 223 -311q0 -420 -236 -586l-112 -172q-37 -57 -37 -98t21.5 -64.5t60.5 -23.5q72 0 143 82h10l23 -78q-102 -109 -201 -109z" />
    <glyph glyph-name="Aringacute" unicode="&#x1fa;" horiz-adv-x="1128" 
d="M791 492l-121 649h-15l-309 -649l217 -5zM692 1491q-46 0 -70 -24q-24 -25 -24 -67t26 -67t68 -25t68 24t26 66t-24 68t-70 25zM522 1392q0 85 46 131t126 46t124 -46t44 -118q0 -106 -86 -152l252 -1253h-156l-14 125l-43 233l-280 7l-250 -7l-109 -225l-47 -133h-154
l613 1264q-66 43 -66 128zM530 1614l-18 74q197 59 420 141l18 -6l23 -94l-6 -15q-66 -20 -137 -38q-70 -18 -154 -41q-84 -22 -129 -33z" />
    <glyph glyph-name="aringacute" unicode="&#x1fb;" horiz-adv-x="899" 
d="M272 154q20 0 73.5 59t135.5 196.5t156 311.5l2 12l2 49l-125 45q-141 0 -225 -138t-83.5 -336.5t64.5 -198.5zM780 954l21 -12l-103 -719l-10 -217l-153 -14l59 420h-21q-145 -256 -321 -426h-29q-156 88 -155.5 320t126 420.5t353.5 225.5h10l127 -45zM442 1215
q0 -43 26 -68t68 -25t68.5 23.5t26.5 66.5q0 92 -96 93q-43 0 -68 -23.5t-25 -66.5zM707 1215q0 -76 -49.5 -122t-122 -46t-119.5 45t-47 121.5t45 122.5t124.5 46t124 -45.5t44.5 -121.5zM819 1542l-8 -14q-33 -10 -420 -113l-16 12l-17 74q205 61 420 144l17 -7z" />
    <glyph glyph-name="AEacute" unicode="&#x1fc;" horiz-adv-x="1568" 
d="M793 657l-9 494h-10l-360 -578zM1497 121l-27 -121h-673l4 127l-6 408l-473 -107l-183 -293l-67 -135h-158l823 1311h721l8 -15l-28 -120l-314 8h-190l6 -496l430 92l10 -12l-4 -113l-436 -88l6 -442h223l320 10zM936 1483l-29 69q217 109 391 211l17 -4l41 -90l-6 -18
q-80 -39 -396 -176z" />
    <glyph glyph-name="aeacute" unicode="&#x1fd;" horiz-adv-x="1247" 
d="M219 352q0 -199 62 -198q23 0 74 55t128.5 180t125.5 232.5t79 146.5l-153 59q-143 0 -229.5 -138t-86.5 -337zM981 844q-100 0 -173 -101.5t-93 -271.5q367 117 366 289q0 84 -100 84zM842 115q70 0 138.5 54t109.5 138l24 -2l51 -72q-141 -207 -319 -247h-27
q-137 14 -195.5 99t-58.5 243q0 31 2 39q-143 -233 -299 -381h-30q-156 88 -156 320t127 420.5t356 225.5h10l216 -80q104 76 235 82q194 -22 195 -184q0 -240 -510 -414v-26q6 -215 131 -215zM909 1423l58 -80l-4 -18q-205 -162 -345 -260l-16 2l-43 61q195 162 332 297z
" />
    <glyph glyph-name="Oslashacute" unicode="&#x1fe;" horiz-adv-x="1253" 
d="M578 113q233 0 351 172t118 497q0 211 -84 314l-543 -949q70 -34 158 -34zM254 532q0 -211 84 -317l539 948q-63 33 -158 33q-465 0 -465 -664zM1208 801q0 -381 -168 -599t-475 -218q-121 0 -213 43l-133 -234l-88 33l-6 16l137 242q-166 141 -166 438q0 377 167 590
t474 213q115 0 209 -39l111 193l88 -33l6 -19l-113 -196q170 -135 170 -430zM594 1483l-29 69q217 109 391 211l17 -4l41 -90l-6 -18q-80 -39 -396 -176z" />
    <glyph glyph-name="oslashacute" unicode="&#x1ff;" horiz-adv-x="841" 
d="M342 104q135 0 209 143.5t74 385.5q0 66 -13 108l-307 -632q21 -5 37 -5zM215 307q0 -70 12 -117l312 635q-20 4 -37 4q-139 0 -213 -141t-74 -381zM74 305q0 281 122.5 459t331.5 190h17q4 0 51 -12l90 182l78 -37l10 -16l-88 -180q82 -78 82 -248q0 -287 -119 -465
t-330 -196q-40 5 -69 16l-113 -234l-86 39l-6 15l115 231q-86 80 -86 256zM381 1065l-43 61q195 162 332 297l18 -2l57 -80l-4 -18q-205 -162 -344 -260z" />
    <glyph glyph-name="Scommaaccent" unicode="&#x218;" horiz-adv-x="923" 
d="M481 -244q0 -121 -174 -250l-51 45l2 13q104 86 104 168q0 47 -59 90v12q49 33 98 49q80 -51 80 -127zM591.5 1323q165.5 0 307.5 -63l-43 -146l-27 -8q-106 90 -230 90t-196.5 -64.5t-72.5 -142.5t51 -133t125 -98t147.5 -92.5t124.5 -125t51 -171.5q0 -162 -128 -272.5
t-317 -110.5t-345 92l39 158l20 8q119 -131 297 -131q121 0 199 66.5t78 148.5t-51.5 139t-123 100t-144 90.5t-124 122t-51.5 172.5q0 158 124 264.5t289.5 106.5z" />
    <glyph glyph-name="scommaaccent" unicode="&#x219;" horiz-adv-x="649" 
d="M354 -244q0 -121 -174 -250l-51 45l2 13q104 86 105 168q0 47 -60 90v12q49 33 98 49q80 -51 80 -127zM403.5 842q-73.5 0 -117.5 -44t-44 -96.5t49 -99.5t106.5 -82t106.5 -98.5t49 -142.5q0 -125 -99.5 -209t-254.5 -86q-106 14 -205 69l39 146l22 10q86 -117 199 -117
q70 0 114 45t44 96.5t-32 91.5t-78 71.5t-92 65.5q-110 81 -110 204t104 205.5t249 78.5q82 -16 172 -51l-45 -139l-25 -8q-78 90 -151.5 90z" />
    <glyph glyph-name="Tcommaaccent" unicode="&#x21a;" horiz-adv-x="956" 
d="M498 -244q0 -121 -174 -250l-52 45l2 13q104 86 105 168q0 47 -60 90v12q50 33 99 49q80 -51 80 -127zM1018 1296l-29 -118l-213 10h-129l-104 -780l-43 -408h-154l60 395l88 793h-125l-224 -10l-10 14l29 119h846z" />
    <glyph glyph-name="tcommaaccent" unicode="&#x21b;" horiz-adv-x="663" 
d="M430 -244q0 -121 -174 -250l-51 45l2 13q104 86 104 168q0 47 -59 90v12q49 33 98 49q80 -51 80 -127zM352 139q76 0 185 158l24 -2l45 -64q-135 -174 -266 -241h-23q-164 29 -161 174l2 33l90 540l8 82h-133l-12 10l12 93h145l23 221l145 65l17 -10l-45 -276h251l15 -17
l-12 -86h-271l-92 -575l-4 -37q0 -68 57 -68z" />
    <glyph glyph-name="dotlessj" unicode="&#x237;" horiz-adv-x="475" 
d="M381 938l-100 -717l-19 -184q-20 -160 -86.5 -256t-212.5 -178l-51 69l2 19q100 68 147.5 141.5t61.5 196.5l98 704l6 86h-155l-11 10l15 93h145l152 20z" />
    <glyph glyph-name="circumflex" unicode="&#x2c6;" 
d="M246 1067l-35 61q115 104 278 275h48q96 -141 211 -275l-50 -61h-16q-96 98 -182 215q-92 -92 -236 -215h-18z" />
    <glyph glyph-name="caron" unicode="&#x2c7;" 
d="M741 1405l33 -64q-59 -55 -272 -272h-47q-100 147 -217 272l49 64h18q109 -119 180 -217q80 80 236 217h20z" />
    <glyph glyph-name="firsttonechinese" unicode="&#x2c9;" 
d="M795 1284l-11 -92h-581l-10 12l8 90h581z" />
    <glyph glyph-name="breve" unicode="&#x2d8;" 
d="M487 1190q150 0 207 180h25l37 -59q-76 -233 -275 -234q-213 0 -233 234l49 59h22q18 -180 168 -180z" />
    <glyph glyph-name="dotaccent" unicode="&#x2d9;" 
d="M500 1354q84 0 84 -88q0 -43 -25 -69t-65 -26t-65 25q-24 25 -23 66q0 40 26 66t68 26z" />
    <glyph glyph-name="ring" unicode="&#x2da;" 
d="M494 1346q-92 0 -93 -89q0 -45 26 -69t68 -25q41 0 67 24q26 23 26 65t-24 68t-70 26zM496 1423q80 0 124 -46q44 -45 44 -121t-50 -121t-122 -45q-74 0 -120 44t-46 120t45 123q45 46 125 46z" />
    <glyph glyph-name="ogonek" unicode="&#x2db;" 
d="M231 -215q0 -84 82 -84q72 0 144 82h8l22 -78q-102 -109 -198 -108q-72 0 -116 45q-44 44 -44 116t51 148l127 184h92l-133 -203q-35 -59 -35 -102z" />
    <glyph glyph-name="tilde" unicode="&#x2dc;" 
d="M504 1191q-126 36 -150 36q-24 1 -48 -23t-40 -42q-18 -18 -28 -29h-19l-47 51v14l125 137l18 6q43 -5 167 -39t152 -34t60 37l27 27q18 19 29 30h14l49 -51v-15l-125 -137l-18 -8q-41 4 -166 40z" />
    <glyph glyph-name="hungarumlaut" unicode="&#x2dd;" 
d="M508 1063l-53 47q139 145 278 313h17l69 -53v-14q-121 -125 -295 -293h-16zM219 1063l-53 47q139 145 278 313h17l69 -53v-14q-121 -125 -294 -293h-17z" />
    <glyph glyph-name="tildecomb" unicode="&#x303;" horiz-adv-x="0" 
d="M361.5 1227q-17.5 0 -26.5 -4t-21.5 -14.5t-21.5 -19.5t-26.5 -27.5t-27.5 -28.5h-19l-47 51v14l127 137l18 8q41 -4 165 -39.5t141.5 -35.5t26.5 4q23 10 55 44t45 46h14l49 -51v-15l-127 -139l-18 -6q-41 4 -165 40t-141.5 36z" />
    <glyph glyph-name="dotbelowcomb" unicode="&#x323;" horiz-adv-x="0" 
d="M311 -150q41 0 64.5 -23.5t23.5 -64.5t-24.5 -66.5t-65.5 -25.5q-88 0 -88 88q0 41 24.5 66.5t65.5 25.5z" />
    <glyph glyph-name="commaaccent" unicode="&#x326;" horiz-adv-x="0" 
d="M410 -250q0 -121 -174 -250l-52 45l2 13q104 86 105 168q0 47 -60 90v12q50 33 99 49q80 -51 80 -127z" />
    <glyph glyph-name="Delta" unicode="&#x394;" horiz-adv-x="1124" 
d="M651 1151l-477 -1020h678l-186 1020h-15zM1024 0h-1053l623 1311h176z" />
    <glyph glyph-name="Omega" unicode="&#x3a9;" horiz-adv-x="1452" 
d="M829 1325q240 0 366 -140q126 -141 126 -347t-92 -392t-262 -319l4 -6h198l158 12l8 -10l-35 -131l-190 8h-256l-76 -4l-8 8l14 123q176 121 277 307q100 186 100 370t-86 288q-86 106 -258 106q-215 0 -333 -154t-117 -385q0 -154 57 -298t162 -234l-15 -123l-10 -8
l-76 4h-282l-170 -6l-10 14l36 125l164 -12h178l2 6q-94 97 -145 237t-51 287q-1 285 165 479t457 195z" />
    <glyph glyph-name="mu" unicode="&#x3bc;" horiz-adv-x="983" 
d="M881 946l-101 -723l-10 -217l-147 -14l67 471h-18q-205 -348 -371 -473h-22q-27 6 -52 18l-22 -168l-10 -223l-148 -14l158 1132l8 199l145 12l-100 -717q-10 -80 45 -79q61 0 175 158t251 450l8 176z" />
    <glyph glyph-name="pi" unicode="&#x3c0;" horiz-adv-x="1255" 
d="M903 -10q-152 0 -127 198l88 707h-348l-133 -1088h-145l77 590l60 498h-80q-25 -1 -50 -21q-56 -45 -130 -110h-19l-39 57l2 19l179 168l32 12l963 2l8 -16l-27 -113l-210 2l-91 -688q-14 -102 45 -103q39 0 80 23l15 -8l-31 -90q-66 -39 -119 -39z" />
    <glyph glyph-name="Wgrave" unicode="&#x1e80;" horiz-adv-x="1738" 
d="M1214 0h-157l-150 774h-12l-354 -774h-162l-234 1311h152l6 -121l182 -1018h13l370 809l-65 330h158l12 -135l184 -1004h12l467 1008l45 131h146zM782 1763l19 4q152 -88 391 -208l-29 -70l-18 -8q-227 96 -395 176l-7 16z" />
    <glyph glyph-name="wgrave" unicode="&#x1e81;" horiz-adv-x="1396" 
d="M1231 755q0 71 -47 140l4 20l143 33q47 -82 47 -174t-90 -252l-289 -522h-159l-76 731h-14l-326 -731h-168l-109 934l150 14l4 -125l64 -649h14l287 641l47 125h159l7 -117l63 -649h14l209 391q66 119 66 190zM629 1421l16 2q143 -137 334 -297l-43 -61l-16 -2
q-158 111 -347 260l-2 18z" />
    <glyph glyph-name="Wacute" unicode="&#x1e82;" horiz-adv-x="1738" 
d="M1214 0h-157l-150 774h-12l-354 -774h-162l-234 1311h152l6 -121l182 -1018h13l370 809l-65 330h158l12 -135l184 -1004h12l467 1008l45 131h146zM1174 1759l40 -90l-6 -18q-80 -39 -395 -176l-18 8l-29 69q217 109 391 211z" />
    <glyph glyph-name="wacute" unicode="&#x1e83;" horiz-adv-x="1396" 
d="M1231 755q0 71 -47 140l4 20l143 33q47 -82 47 -174t-90 -252l-289 -522h-159l-76 731h-14l-326 -731h-168l-109 934l150 14l4 -125l64 -649h14l287 641l47 125h159l7 -117l63 -649h14l209 391q66 119 66 190zM946 1421l58 -80l-5 -18q-205 -162 -344 -260l-16 2l-43 61
q195 162 332 297z" />
    <glyph glyph-name="Wdieresis" unicode="&#x1e84;" horiz-adv-x="1738" 
d="M1214 0h-157l-150 774h-12l-354 -774h-162l-234 1311h152l6 -121l182 -1018h13l370 809l-65 330h158l12 -135l184 -1004h12l467 1008l45 131h146zM1134 1700q40 0 61.5 -22.5t21.5 -62.5t-24 -64.5t-63 -24.5q-84 0 -83 84q0 41 23.5 65.5t63.5 24.5zM807 1702
q39 0 61.5 -23.5t22.5 -62.5t-23.5 -64.5t-62.5 -25.5q-84 0 -84 86q0 41 23.5 65.5t62.5 24.5z" />
    <glyph glyph-name="wdieresis" unicode="&#x1e85;" horiz-adv-x="1396" 
d="M1231 755q0 71 -47 140l4 20l143 33q47 -82 47 -174t-90 -252l-289 -522h-159l-76 731h-14l-326 -731h-168l-109 934l150 14l4 -125l64 -649h14l287 641l47 125h159l7 -117l63 -649h14l209 391q66 119 66 190zM962 1327q82 0 82 -84q0 -41 -23.5 -65.5t-62.5 -24.5
q-84 0 -84 84q0 41 24 65.5t64 24.5zM635 1329q39 0 61.5 -23.5t22.5 -62.5t-23.5 -64.5t-62.5 -25.5q-84 0 -84 86q0 41 23.5 65.5t62.5 24.5z" />
    <glyph glyph-name="Germandbls" unicode="&#x1e9e;" horiz-adv-x="1232" 
d="M728 1323q210 0 443 -127l5 -33l-373 -422q188 -69 272 -147t84 -213q0 -174 -124 -285q-124 -110 -299 -110t-320 92l41 158l20 8q125 -131 281 -131q106 1 177 69t71 172t-92 173t-308 128l-2 35l375 432q-131 72 -273 72t-237 -86q-94 -86 -115 -240l-61 -458
l-43 -410h-156l60 389l53 481q25 205 168 329t353 124z" />
    <glyph glyph-name="Adotbelow" unicode="&#x1ea0;" horiz-adv-x="1122" 
d="M475 -150q41 0 64.5 -23.5t23.5 -64.5t-24.5 -66.5t-65.5 -25.5q-88 0 -88 88q0 41 24.5 66.5t65.5 25.5zM788 494l-120 657h-15l-309 -657l219 -2zM1026 0h-156l-14 127l-43 235l-278 5l-252 -5l-107 -227l-49 -135h-154l623 1311h176z" />
    <glyph glyph-name="adotbelow" unicode="&#x1ea1;" horiz-adv-x="899" 
d="M396 -150q42 0 64.5 -23.5t22.5 -64.5t-24.5 -66.5t-65.5 -25.5q-88 0 -88 88q0 41 24.5 66.5t66.5 25.5zM272 154q20 0 73.5 59t135.5 196.5t156 311.5l2 12l2 49l-125 45q-141 0 -225 -138t-83.5 -336.5t64.5 -198.5zM801 942l-103 -719l-10 -217l-153 -14l59 420h-21
q-145 -256 -321 -426h-29q-156 88 -155.5 320t126 420.5t353.5 225.5h10l127 -45l96 47z" />
    <glyph glyph-name="Ahookabove" unicode="&#x1ea2;" horiz-adv-x="1122" 
d="M788 494l-120 657h-15l-309 -657l219 -2zM1026 0h-156l-14 127l-43 235l-278 5l-252 -5l-107 -227l-49 -135h-154l623 1311h176zM723 1698q0 43 -56 43t-116 -49l-33 51q84 84 172 84q55 0 91 -33t36 -80q0 -66 -104 -151l39 -70l-68 -37l-63 109q102 76 102 133z" />
    <glyph glyph-name="ahookabove" unicode="&#x1ea3;" horiz-adv-x="899" 
d="M272 154q20 0 73.5 59t135.5 196.5t156 311.5l2 12l2 49l-125 45q-141 0 -225 -138q-84 -139 -84 -337q1 -198 65 -198zM801 942l-103 -719l-10 -217l-153 -14l59 420h-21q-145 -256 -321 -426h-29q-156 88 -155.5 320t126 420.5t353.5 225.5h10l127 -45l96 47zM555 1327
q0 43 -56 43t-116 -49l-33 51q84 84 172 84q55 0 91 -32.5t36 -89.5t-104 -142l39 -70l-68 -37l-63 109q102 76 102 133z" />
    <glyph glyph-name="Acircumflexacute" unicode="&#x1ea4;" horiz-adv-x="1122" 
d="M788 494l-120 657h-15l-309 -657l219 -2zM772 1311l254 -1311h-156l-14 127l-43 235l-278 5l-252 -5l-107 -227l-49 -135h-154l623 1311h176zM459 1460l-25 68q129 80 254 182h45q84 -78 217 -182l-39 -68h-18q-76 51 -191 137q-113 -72 -225 -137h-18zM860 1675l-53 41
l117 185l37 30l73 -37l4 -16l-141 -178z" />
    <glyph glyph-name="acircumflexacute" unicode="&#x1ea5;" horiz-adv-x="899" 
d="M272 154q20 0 73.5 59t135.5 196.5t156 311.5l2 12l2 49l-125 45q-141 0 -225 -138q-84 -139 -84 -337q1 -198 65 -198zM780 954l21 -12l-103 -719l-10 -217l-153 -14l59 420h-21q-145 -256 -321 -426h-29q-156 88 -155.5 320t126 420.5t353.5 225.5h10l127 -45z
M293 1090l-25 67q129 80 254 182h45q84 -78 217 -182l-39 -67h-18q-76 51 -190 137q-113 -72 -226 -137h-18zM694 1305l-53 41l117 184l37 31l73 -37l4 -17l-141 -178z" />
    <glyph glyph-name="Acircumflexgrave" unicode="&#x1ea6;" horiz-adv-x="1122" 
d="M788 494l-120 657h-15l-309 -657l219 -2zM1026 0h-156l-14 127l-43 235l-278 5l-252 -5l-107 -227l-49 -135h-154l623 1311h176zM713 1595q-98 -66 -228 -137h-18l-23 68q129 80 254 182h45q84 -82 218 -182l-41 -68h-17q-90 63 -190 137zM889 1700l-144 176l5 18l75 35
l35 -28l117 -185l-53 -41z" />
    <glyph glyph-name="acircumflexgrave" unicode="&#x1ea7;" horiz-adv-x="899" 
d="M272 154q20 0 73.5 59t135.5 196.5t156 311.5l2 12l2 49l-125 45q-141 0 -225 -138q-84 -139 -84 -337q1 -198 65 -198zM780 954l21 -12l-103 -719l-10 -217l-153 -14l59 420h-21q-145 -256 -321 -426h-29q-156 88 -155.5 320t126 420.5t353.5 225.5h10l127 -45z
M547 1225l-228 -138h-18l-22 68q129 80 253 182h46q84 -82 217 -182l-41 -68h-17q-90 63 -190 138zM723 1329l-143 176l4 19l75 35l35 -29l117 -184l-53 -41z" />
    <glyph glyph-name="Acircumflexhookabove" unicode="&#x1ea8;" horiz-adv-x="1122" 
d="M788 494l-120 657h-15l-309 -657l219 -2zM1026 0h-156l-14 127l-43 235l-278 5l-252 -5l-107 -227l-49 -135h-154l623 1311h176zM463 1460l-23 68q129 80 254 182h45q84 -82 217 -182l-41 -68h-16q-55 37 -190 137q-94 -59 -228 -137h-18zM868 1927q-55 0 -108 -47
l-33 49q80 80 164 80q51 0 86 -30.5t35 -83.5t-99 -138l37 -65l-65 -35l-60 102q98 76 99 127q-1 41 -56 41z" />
    <glyph glyph-name="acircumflexhookabove" unicode="&#x1ea9;" horiz-adv-x="899" 
d="M272 154q20 0 73.5 59t135.5 196.5t156 311.5l2 12l2 49l-125 45q-141 0 -225 -138t-83.5 -336.5t64.5 -198.5zM780 954l21 -12l-103 -719l-10 -217l-153 -14l59 420h-21q-145 -256 -321 -426h-29q-156 88 -155.5 320t126 420.5t353.5 225.5h10l127 -45zM297 1090l-23 67
q129 80 254 182h45q84 -82 218 -182l-41 -67h-17q-55 37 -190 137q-94 -59 -228 -137h-18zM703 1556q-55 0 -109 -47l-33 50q80 80 164 79q51 0 86 -30.5t35 -83.5t-98 -138l36 -65l-65 -35l-60 103q98 76 99 127q0 40 -55 40z" />
    <glyph glyph-name="Acircumflextilde" unicode="&#x1eaa;" horiz-adv-x="1122" 
d="M788 494l-120 657h-15l-309 -657l219 -2zM772 1311l254 -1311h-156l-14 127l-43 235l-278 5l-252 -5l-107 -227l-49 -135h-154l623 1311h176zM729 1597q-84 -51 -227 -135h-19l-24 66q102 63 256 184h43q100 -94 219 -184l-41 -66h-18q-117 80 -189 135zM654.5 1841
q-17.5 0 -25.5 -4q-20 -10 -40.5 -33.5t-49.5 -52.5h-15l-47 47v17l117 131l18 6q39 -4 157 -38t134 -34t24.5 4t21 14.5t20.5 18.5t24.5 26.5t26.5 28.5h14l45 -49v-14l-116 -135l-17 -7q-41 4 -157.5 39t-134 35z" />
    <glyph glyph-name="acircumflextilde" unicode="&#x1eab;" horiz-adv-x="899" 
d="M272 154q20 0 73.5 59t135.5 196.5t156 311.5l2 12l2 49l-125 45q-141 0 -225 -138t-83.5 -336.5t64.5 -198.5zM780 954l21 -12l-103 -719l-10 -217l-153 -14l59 420h-21q-145 -256 -321 -426h-29q-156 88 -155.5 320t126 420.5t353.5 225.5h10l127 -45zM547 1341h43
q100 -94 219 -184l-41 -65h-18q-117 80 -189 135q-84 -51 -227 -135h-19l-24 65q102 63 256 184zM486.5 1470q-17.5 0 -25.5 -4t-20.5 -14t-19.5 -18.5t-23.5 -25.5t-26.5 -28h-15l-47 47v17l117 131l18 6q39 -4 157 -38t134 -34t24.5 4.5t21 14.5t20.5 18t24.5 26.5
t26.5 29.5h14l45 -50v-14l-116 -135l-17 -6q-41 4 -157.5 38.5t-134 34.5z" />
    <glyph glyph-name="Acircumflexdotbelow" unicode="&#x1eac;" horiz-adv-x="1122" 
d="M475 -150q41 0 64.5 -23.5t23.5 -64.5t-24.5 -66.5t-65.5 -25.5q-88 0 -88 88q0 41 24.5 66.5t65.5 25.5zM788 494l-120 657h-15l-309 -657l219 -2zM1026 0h-156l-14 127l-43 235l-278 5l-252 -5l-107 -227l-49 -135h-154l623 1311h176zM477 1499l-24 68q115 70 256 182
h45q84 -82 217 -182l-41 -68h-17q-88 59 -190 137q-131 -82 -227 -137h-19z" />
    <glyph glyph-name="acircumflexdotbelow" unicode="&#x1ead;" horiz-adv-x="899" 
d="M396 -150q42 0 64.5 -23.5t22.5 -64.5t-24.5 -66.5t-65.5 -25.5q-88 0 -88 88q0 41 24.5 66.5t66.5 25.5zM272 154q20 0 73.5 59t135.5 196.5t156 311.5l2 12l2 49l-125 45q-141 0 -225 -138t-83.5 -336.5t64.5 -198.5zM780 954l21 -12l-103 -719l-10 -217l-153 -14
l59 420h-21q-145 -256 -321 -426h-29q-156 88 -155.5 320t126 420.5t353.5 225.5h10l127 -45zM328 1067l-35 61q115 104 278 275h47q96 -141 211 -275l-49 -61h-16q-96 98 -182 215q-92 -92 -236 -215h-18z" />
    <glyph glyph-name="Abreveacute" unicode="&#x1eae;" horiz-adv-x="1122" 
d="M788 494l-120 657h-15l-309 -657l219 -2zM1026 0h-156l-14 127l-43 235l-278 5l-252 -5l-107 -227l-49 -135h-154l623 1311h176zM707 1442q-100 0 -165 47t-83 135l51 53h25q27 -123 169 -123t203 123h25l37 -53q-80 -182 -262 -182zM682 1669l-53 45q94 109 178 217
l16 2l70 -49l2 -16q-31 -33 -197 -199h-16z" />
    <glyph glyph-name="abreveacute" unicode="&#x1eaf;" horiz-adv-x="899" 
d="M272 154q20 0 73.5 59t135.5 196.5t156 311.5l2 12l2 49l-125 45q-141 0 -225 -138q-84 -139 -84 -337q1 -198 65 -198zM780 954l21 -12l-103 -719l-10 -217l-153 -14l59 420h-21q-145 -256 -321 -426h-29q-156 88 -155.5 320t126 420.5t353.5 225.5h10l127 -45z
M541 1071q-100 0 -165 47t-83 135l51 54h25q27 -123 169 -123t203 123h25l37 -54q-80 -182 -262 -182zM516 1298l-53 45q94 109 178 218l16 2l70 -50l2 -16q-33 -35 -197 -199h-16z" />
    <glyph glyph-name="Abrevegrave" unicode="&#x1eb0;" horiz-adv-x="1122" 
d="M788 494l-120 657h-15l-309 -657l219 -2zM1026 0h-156l-14 127l-43 235l-278 5l-252 -5l-107 -227l-49 -135h-154l623 1311h176zM709 1440q-209 0 -248 184l51 53h25q27 -125 169 -125t203 125h25l37 -53q-80 -184 -262 -184zM739 1669h-16q-166 166 -197 199v16l74 49
l14 -2q84 -109 179 -217z" />
    <glyph glyph-name="abrevegrave" unicode="&#x1eb1;" horiz-adv-x="899" 
d="M272 154q20 0 73.5 59t135.5 196.5t156 311.5l2 12l2 49l-125 45q-141 0 -225 -138q-84 -139 -84 -337q1 -198 65 -198zM780 954l21 -12l-103 -719l-10 -217l-153 -14l59 420h-21q-145 -256 -321 -426h-29q-156 88 -155.5 320t126 420.5t353.5 225.5h10l127 -45z
M543 1069q-209 0 -248 184l51 54h25q27 -125 169 -125t203 125h25l37 -54q-80 -184 -262 -184zM573 1298h-16q-164 164 -197 199v16l74 50l15 -2q84 -109 178 -218z" />
    <glyph glyph-name="Abrevehookabove" unicode="&#x1eb2;" horiz-adv-x="1122" 
d="M788 494l-120 657h-15l-309 -657l219 -2zM1026 0h-156l-14 127l-43 235l-278 5l-252 -5l-107 -227l-49 -135h-154l623 1311h176zM707 1444q-100 0 -165 47t-83 135l51 53h25q27 -125 168 -125t204 125h25l37 -53q-80 -182 -262 -182zM691 1948q-56 0 -116 -50l-30 52
q80 84 172 84q53 0 89 -33t36 -80q0 -66 -105 -152l39 -69l-65 -37l-66 109q102 76 103 133q-1 43 -57 43z" />
    <glyph glyph-name="abrevehookabove" unicode="&#x1eb3;" horiz-adv-x="899" 
d="M272 154q20 0 73.5 59t135.5 196.5t156 311.5l2 12l2 49l-125 45q-141 0 -225 -138t-83.5 -336.5t64.5 -198.5zM780 954l21 -12l-103 -719l-10 -217l-153 -14l59 420h-21q-145 -256 -321 -426h-29q-156 88 -155.5 320t126 420.5t353.5 225.5h10l127 -45zM541 1073
q-100 0 -165 47t-83 135l51 54h25q27 -125 169 -125t203 125h25l37 -54q-80 -182 -262 -182zM524 1577q-57 0 -114 -49l-31 51q80 84 172 84q53 0 89 -33t36 -80q0 -66 -105 -151l39 -70l-65 -37l-66 109q102 78 103 133q-1 43 -58 43z" />
    <glyph glyph-name="Abrevetilde" unicode="&#x1eb4;" horiz-adv-x="1122" 
d="M788 494l-120 657h-15l-309 -657l219 -2zM772 1311l254 -1311h-156l-14 127l-43 235l-278 5l-252 -5l-107 -227l-49 -135h-154l623 1311h176zM686 1442q-203 0 -242 180l50 51h24q25 -121 166 -121t199 121h24l37 -51q-80 -180 -258 -180zM619.5 1841q-17.5 0 -25.5 -4
q-20 -10 -40.5 -33.5t-49.5 -52.5h-17l-45 47v17l117 131l19 6q39 -4 155.5 -38t132.5 -34t25.5 4t21 14.5t19.5 18.5t24.5 26.5t26.5 28.5h16l43 -49v-14l-114 -135l-19 -7q-39 4 -155.5 39t-134 35z" />
    <glyph glyph-name="abrevetilde" unicode="&#x1eb5;" horiz-adv-x="899" 
d="M272 154q20 0 73.5 59t135.5 196.5t156 311.5l2 12l2 49l-125 45q-141 0 -225 -138t-83.5 -336.5t64.5 -198.5zM780 954l21 -12l-103 -719l-10 -217l-153 -14l59 420h-21q-145 -256 -321 -426h-29q-156 88 -155.5 320t126 420.5t353.5 225.5h10l127 -45zM520 1071
q-203 0 -241 180l49 52h24q25 -121 166 -121t199 121h24l37 -52q-80 -180 -258 -180zM453.5 1470q-17.5 0 -25.5 -4t-20.5 -14t-19.5 -18.5t-23.5 -25.5t-26.5 -28h-16l-46 47v17l117 131l19 6q39 -4 155.5 -38t133 -34t25.5 4.5t20.5 14.5t19.5 18t24.5 26.5t26.5 29.5h17
l43 -50v-14l-115 -135l-19 -6q-39 4 -155.5 38.5t-134 34.5z" />
    <glyph glyph-name="Abrevedotbelow" unicode="&#x1eb6;" horiz-adv-x="1122" 
d="M475 -150q41 0 64.5 -23.5t23.5 -64.5t-24.5 -66.5t-65.5 -25.5q-88 0 -88 88q0 41 24.5 66.5t65.5 25.5zM788 494l-120 657h-15l-309 -657l219 -2zM1026 0h-156l-14 127l-43 235l-278 5l-252 -5l-107 -227l-49 -135h-154l623 1311h176zM702 1483q-100 0 -164.5 47
t-82.5 135l51 53h24q27 -123 169 -123t204 123h25l37 -53q-81 -182 -263 -182z" />
    <glyph glyph-name="abrevedotbelow" unicode="&#x1eb7;" horiz-adv-x="899" 
d="M396 -150q42 0 64.5 -23.5t22.5 -64.5t-24.5 -66.5t-65.5 -25.5q-88 0 -88 88q0 41 24.5 66.5t66.5 25.5zM272 154q20 0 73.5 59t135.5 196.5t156 311.5l2 12l2 49l-125 45q-141 0 -225 -138t-83.5 -336.5t64.5 -198.5zM780 954l21 -12l-103 -719l-10 -217l-153 -14
l59 420h-21q-145 -256 -321 -426h-29q-156 88 -155.5 320t126 420.5t353.5 225.5h10l127 -45zM539 1077q-213 0 -234 234l49 59h23q18 -180 167.5 -180t207.5 180h24l37 -59q-75 -234 -274 -234z" />
    <glyph glyph-name="Edotbelow" unicode="&#x1eb8;" horiz-adv-x="944" 
d="M520 -150q41 0 64.5 -23.5t23.5 -64.5t-24.5 -66.5t-65.5 -25.5q-88 0 -88 88q0 41 24.5 66.5t65.5 25.5zM430 1180l-57 -443l235 -4l205 6l10 -14l-28 -119l-217 4l-224 -2l-26 -200l-31 -277l252 -4l297 8l6 -14l-27 -121h-696l59 395l107 916h698l6 -15l-26 -120
l-291 8z" />
    <glyph glyph-name="edotbelow" unicode="&#x1eb9;" horiz-adv-x="765" 
d="M315 -150q41 0 64.5 -23.5t23.5 -64.5t-24.5 -66.5t-65.5 -25.5q-88 0 -88 88q0 41 24.5 66.5t65.5 25.5zM483 844q-98 0 -169.5 -101.5t-92.5 -271.5q360 119 361 289q-1 84 -99 84zM719 770q0 -242 -504 -412q0 -244 129 -243q68 0 134.5 53t111.5 139l24 -2l52 -72
q-141 -207 -320 -247h-27q-250 20 -249 329q0 272 127 451.5t329 187.5q193 -20 193 -184z" />
    <glyph glyph-name="Ehookabove" unicode="&#x1eba;" horiz-adv-x="944" 
d="M430 1180l-57 -443l235 -4l205 6l10 -14l-28 -119l-217 4l-224 -2l-26 -200l-31 -277l252 -4l297 8l6 -14l-27 -121h-696l59 395l107 916h698l6 -15l-26 -120l-291 8zM684 1698q0 43 -57 43t-115 -49l-33 51q84 84 172 84q55 0 91 -33t36 -80q0 -66 -104 -151l39 -70
l-68 -37l-63 109q102 76 102 133z" />
    <glyph glyph-name="ehookabove" unicode="&#x1ebb;" horiz-adv-x="765" 
d="M483 844q-98 0 -169.5 -101.5t-92.5 -271.5q360 119 361 289q-1 84 -99 84zM719 770q0 -242 -504 -412q0 -244 129 -243q68 0 134.5 53t111.5 139l24 -2l52 -72q-141 -207 -320 -247h-27q-250 20 -249 329q0 272 127 451.5t329 187.5q193 -20 193 -184zM528 1327
q0 43 -57 43t-115 -49l-32 51q84 84 172 84q55 0 91 -32.5t36 -89.5t-105 -142l39 -70l-68 -37l-63 109q102 76 102 133z" />
    <glyph glyph-name="Ecircumflexacute" unicode="&#x1ebe;" horiz-adv-x="944" 
d="M993 1311l6 -15l-26 -120l-291 8l-252 -4l-57 -443l235 -4l205 6l10 -14l-28 -119l-217 4l-224 -2l-26 -200l-31 -277l252 -4l297 8l6 -14l-27 -121h-696l59 395l107 916h698zM420 1460l-25 68q129 80 254 182h45q84 -78 217 -182l-39 -68h-18q-76 51 -190 137
q-113 -72 -226 -137h-18zM821 1675l-53 41l117 185l37 30l73 -37l4 -16l-141 -178z" />
    <glyph glyph-name="ecircumflexacute" unicode="&#x1ebf;" horiz-adv-x="765" 
d="M483.5 844q-98.5 0 -170.5 -101.5t-92 -271.5q360 119 361 289q0 84 -98.5 84zM719 770q0 -242 -504 -412q0 -244 129 -243q68 0 134.5 53t111.5 139l24 -2l52 -72q-141 -207 -320 -247h-27q-250 20 -249 329q0 272 127 451.5t329 187.5q193 -20 193 -184zM496 1339h45
q84 -78 217 -182l-39 -67h-19q-76 51 -190 137q-113 -72 -225 -137h-19l-24 67q129 80 254 182zM668 1305l-54 41l117 184l37 31l74 -37l4 -17l-141 -178z" />
    <glyph glyph-name="Ecircumflexgrave" unicode="&#x1ec0;" horiz-adv-x="944" 
d="M430 1180l-57 -443l235 -4l205 6l10 -14l-28 -119l-217 4l-224 -2l-26 -200l-31 -277l252 -4l297 8l6 -14l-27 -121h-696l59 395l107 916h698l6 -15l-26 -120l-291 8zM674 1595q-98 -66 -228 -137h-18l-22 68q129 80 253 182h46q84 -82 217 -182l-41 -68h-17
q-90 63 -190 137zM850 1700l-143 176l4 18l75 35l35 -28l117 -185l-53 -41z" />
    <glyph glyph-name="ecircumflexgrave" unicode="&#x1ec1;" horiz-adv-x="765" 
d="M483.5 844q-98.5 0 -170.5 -101.5t-92 -271.5q360 119 361 289q0 84 -98.5 84zM719 770q0 -242 -504 -412q0 -244 129 -243q68 0 134.5 53t111.5 139l24 -2l52 -72q-141 -207 -320 -247h-27q-250 20 -249 329q0 272 127 451.5t329 187.5q193 -20 193 -184zM520 1225
l-227 -138h-19l-22 68q129 80 254 182h45q84 -82 217 -182l-41 -68h-16q-90 63 -191 138zM696 1329l-143 176l4 19l76 35l35 -29l116 -184l-53 -41z" />
    <glyph glyph-name="Ecircumflexhookabove" unicode="&#x1ec2;" horiz-adv-x="944" 
d="M430 1180l-57 -443l235 -4l205 6l10 -14l-28 -119l-217 4l-224 -2l-26 -200l-31 -277l252 -4l297 8l6 -14l-27 -121h-696l59 395l107 916h698l6 -15l-26 -120l-291 8zM424 1460l-23 68q129 80 254 182h45q84 -82 218 -182l-41 -68h-17q-55 37 -190 137q-94 -59 -228 -137
h-18zM829 1927q-55 0 -108 -47l-33 49q80 80 164 80q51 0 86 -30.5t35 -83.5t-99 -138l37 -65l-65 -35l-60 102q98 76 99 127q-1 41 -56 41z" />
    <glyph glyph-name="ecircumflexhookabove" unicode="&#x1ec3;" horiz-adv-x="765" 
d="M483.5 844q-98.5 0 -170.5 -101.5t-92 -271.5q360 119 361 289q0 84 -98.5 84zM719 770q0 -242 -504 -412q0 -244 129 -243q68 0 134.5 53t111.5 139l24 -2l52 -72q-141 -207 -320 -247h-27q-250 20 -249 329q0 272 127 451.5t329 187.5q193 -20 193 -184zM502 1339h45
q84 -82 217 -182l-41 -67h-16q-55 37 -191 137q-94 -59 -227 -137h-19l-22 67q129 80 254 182zM731 1516q0 40 -55 40t-109 -47l-32 50q80 80 163 79q51 0 86 -30.5t35 -83.5t-98 -138l37 -65l-66 -35l-59 103q98 76 98 127z" />
    <glyph glyph-name="Ecircumflextilde" unicode="&#x1ec4;" horiz-adv-x="944" 
d="M430 1180l-57 -443l235 -4l205 6l10 -14l-28 -119l-217 4l-224 -2l-26 -200l-31 -277l252 -4l297 8l6 -14l-27 -121h-696l59 395l107 916h698l6 -15l-26 -120l-291 8zM674 1595q-98 -66 -228 -137h-18l-22 68q129 80 253 182h46q84 -82 217 -182l-41 -68h-17
q-90 63 -190 137zM850 1700l-143 176l4 18l75 35l35 -28l117 -185l-53 -41z" />
    <glyph glyph-name="ecircumflextilde" unicode="&#x1ec5;" horiz-adv-x="765" 
d="M483.5 844q-98.5 0 -170.5 -101.5t-92 -271.5q360 119 361 289q0 84 -98.5 84zM719 770q0 -242 -504 -412q0 -244 129 -243q68 0 134.5 53t111.5 139l24 -2l52 -72q-141 -207 -320 -247h-27q-250 20 -249 329q0 272 127 451.5t329 187.5q193 -20 193 -184zM520 1341h43
q100 -94 219 -184l-41 -65h-18q-117 80 -188 135q-84 -51 -228 -135h-18l-25 65q102 63 256 184zM460 1470q-17 0 -25.5 -4t-21 -14t-19.5 -18.5t-23.5 -25.5t-26.5 -28h-14l-47 47v17l116 131l19 6q39 -4 156.5 -38t134 -34t24.5 4.5t20.5 14.5t20.5 18t24.5 26.5
t26.5 29.5h15l45 -50v-14l-117 -135l-16 -6q-41 4 -158 38.5t-134 34.5z" />
    <glyph glyph-name="Ecircumflexdotbelow" unicode="&#x1ec6;" horiz-adv-x="944" 
d="M520 -150q41 0 64.5 -23.5t23.5 -64.5t-24.5 -66.5t-65.5 -25.5q-88 0 -88 88q0 41 24.5 66.5t65.5 25.5zM430 1180l-57 -443l235 -4l205 6l10 -14l-28 -119l-217 4l-224 -2l-26 -200l-31 -277l252 -4l297 8l6 -14l-27 -121h-696l59 395l107 916h698l6 -15l-26 -120
l-291 8zM438 1499l-24 68q115 70 256 182h45q84 -82 217 -182l-41 -68h-17q-88 59 -190 137q-131 -82 -227 -137h-19z" />
    <glyph glyph-name="ecircumflexdotbelow" unicode="&#x1ec7;" horiz-adv-x="765" 
d="M315 -150q41 0 64.5 -23.5t23.5 -64.5t-24.5 -66.5t-65.5 -25.5q-88 0 -88 88q0 41 24.5 66.5t65.5 25.5zM483.5 844q-98.5 0 -170.5 -101.5t-92 -271.5q360 119 361 289q0 84 -98.5 84zM719 770q0 -242 -504 -412q0 -244 129 -243q68 0 134.5 53t111.5 139l24 -2l52 -72
q-141 -207 -320 -247h-27q-250 20 -249 329q0 272 127 451.5t329 187.5q193 -20 193 -184zM526 1405h47q96 -141 211 -275l-49 -61h-16q-96 98 -182 215q-92 -92 -236 -215h-18l-35 61q114 105 278 275z" />
    <glyph glyph-name="Ihookabove" unicode="&#x1ec8;" horiz-adv-x="530" 
d="M326 408l-43 -408h-154l57 395l107 916h153zM385 1827q55 0 91 -33t36 -80q0 -66 -104 -151l38 -70l-67 -37l-64 109q102 76 103 133q0 43 -58 43t-114 -49l-33 51q84 84 172 84z" />
    <glyph glyph-name="ihookabove" unicode="&#x1ec9;" horiz-adv-x="446" 
d="M254 223l-8 -217l-156 -14l107 743l8 199l151 14zM293 1454q55 0 91 -32.5t36 -89.5t-105 -142l39 -70l-67 -37l-64 109q102 78 103 133q0 43 -56 43t-116 -49l-33 51q84 84 172 84z" />
    <glyph glyph-name="Idotbelow" unicode="&#x1eca;" horiz-adv-x="530" 
d="M192 -150q42 0 64.5 -23.5t22.5 -64.5t-25 -66.5t-66 -25.5q-88 0 -88 88q0 41 25 66.5t67 25.5zM326 408l-43 -408h-154l57 395l107 916h153z" />
    <glyph glyph-name="idotbelow" unicode="&#x1ecb;" horiz-adv-x="446" 
d="M148 -150q41 0 64.5 -23.5t23.5 -64.5t-25 -66.5t-66 -25.5q-88 0 -88 88q0 41 25 66.5t66 25.5zM254 223l-8 -217l-156 -14l107 743l8 199l151 14zM322 1354q84 0 84 -88q0 -43 -25 -69t-66 -26t-64.5 25t-23.5 66t26 66.5t69 25.5z" />
    <glyph glyph-name="Odotbelow" unicode="&#x1ecc;" horiz-adv-x="1251" 
d="M601 -150q42 0 64.5 -23.5t22.5 -64.5t-24.5 -66.5t-65.5 -25.5q-88 0 -88 88q0 41 24.5 66.5t66.5 25.5zM719 1196q-465 0 -465 -664q0 -420 324 -419q233 0 351 172t118 497q0 414 -328 414zM737 1325q225 0 348 -137t123 -387q0 -381 -168 -599t-475 -218
q-221 0 -345 142t-124 396q0 377 167 590t474 213z" />
    <glyph glyph-name="odotbelow" unicode="&#x1ecd;" horiz-adv-x="841" 
d="M324 -150q41 0 64.5 -23.5t23.5 -64.5t-25 -66.5t-65 -25.5q-88 0 -89 88q0 41 25 66.5t66 25.5zM502 829q-139 0 -213 -141t-74 -381q0 -106 29.5 -154.5t97.5 -48.5q135 0 209 143.5t74 385.5q0 104 -28.5 150t-94.5 46zM768 636.5q0 -280.5 -119 -458.5t-330 -196
q-126 16 -185.5 96t-59.5 227q0 281 122.5 459t331.5 190h17q223 -37 223 -317.5z" />
    <glyph glyph-name="Ohookabove" unicode="&#x1ece;" horiz-adv-x="1251" 
d="M719 1196q-465 0 -465 -664q0 -420 324 -419q233 0 351 172t118 497q0 414 -328 414zM737 1325q225 0 348 -137t123 -387q0 -381 -168 -599t-475 -218q-221 0 -345 142t-124 396q0 377 167 590t474 213zM745 1827q55 0 91 -33t36 -80q0 -66 -104 -151l39 -70l-68 -37
l-63 109q102 76 102 133q0 43 -57 43t-115 -49l-33 51q84 84 172 84z" />
    <glyph glyph-name="ohookabove" unicode="&#x1ecf;" horiz-adv-x="841" 
d="M502 829q-139 0 -213 -141t-74 -381q0 -106 29.5 -154.5t97.5 -48.5q135 0 209 143.5t74 385.5q0 104 -28.5 150t-94.5 46zM768 636.5q0 -280.5 -119 -458.5t-330 -196q-126 16 -185.5 96t-59.5 227q0 281 122.5 459t331.5 190h17q223 -37 223 -317.5zM514 1454
q55 0 91 -32.5t36 -89.5t-104 -142l38 -70l-67 -37l-64 109q102 78 103 133q0 43 -56 43t-116 -49l-33 51q84 84 172 84z" />
    <glyph glyph-name="Ocircumflexacute" unicode="&#x1ed0;" horiz-adv-x="1251" 
d="M719 1196q-465 0 -465 -664q0 -420 324 -419q233 0 351 172t118 497q0 414 -328 414zM737 1325q225 0 348 -137t123 -387q0 -381 -168 -599t-475 -218q-221 0 -345 142t-124 396q0 377 167 590t474 213zM745 1710h46q84 -78 217 -182l-39 -68h-19q-76 51 -190 137
q-113 -72 -225 -137h-19l-24 68q128 80 253 182zM1092 1894l4 -16l-142 -178l-36 -25l-54 41l117 185l37 30z" />
    <glyph glyph-name="ocircumflexacute" unicode="&#x1ed1;" horiz-adv-x="841" 
d="M502 829q-139 0 -213 -141t-74 -381q0 -106 29.5 -154.5t97.5 -48.5q135 0 209 143.5t74 385.5q0 104 -28.5 150t-94.5 46zM768 636.5q0 -280.5 -119 -458.5t-330 -196q-126 16 -185.5 96t-59.5 227q0 281 122.5 459t331.5 190h17q223 -37 223 -317.5zM512 1337h45
q84 -78 217 -182l-39 -68h-18q-76 51 -191 138q-113 -72 -225 -138h-18l-25 68q129 80 254 182zM858 1522l4 -17l-141 -178l-37 -24l-53 40l117 185l36 31z" />
    <glyph glyph-name="Ocircumflexgrave" unicode="&#x1ed2;" horiz-adv-x="1251" 
d="M719 1196q-465 0 -465 -664q0 -420 324 -419q233 0 351 172t118 497q0 414 -328 414zM737 1325q225 0 348 -137t123 -387q0 -381 -168 -599t-475 -218q-221 0 -345 142t-124 396q0 377 167 590t474 213zM770 1595q-11 -7 -227 -137h-19l-22 68q129 80 254 182h45
q84 -82 217 -182l-41 -68h-16q-90 63 -191 137zM918 1901l116 -185l-53 -41l-35 25l-143 176l4 18l76 35z" />
    <glyph glyph-name="ocircumflexgrave" unicode="&#x1ed3;" horiz-adv-x="841" 
d="M502 829q-139 0 -213 -141t-74 -381q0 -106 29.5 -154.5t97.5 -48.5q135 0 209 143.5t74 385.5q0 104 -28.5 150t-94.5 46zM768 636.5q0 -280.5 -119 -458.5t-330 -196q-126 16 -185.5 96t-59.5 227q0 281 122.5 459t331.5 190h17q223 -37 223 -317.5zM537 1223
l-228 -138h-18l-23 68q129 80 254 182h45q84 -82 217 -182l-41 -68h-16q-90 63 -190 138zM684 1528l117 -185l-53 -40l-35 24l-144 176l4 19l76 34z" />
    <glyph glyph-name="Ocircumflexhookabove" unicode="&#x1ed4;" horiz-adv-x="1251" 
d="M719 1196q-465 0 -465 -664q0 -420 324 -419q233 0 351 172t118 497q0 414 -328 414zM737 1325q225 0 348 -137t123 -387q0 -381 -168 -599t-475 -218q-221 0 -345 142t-124 396q0 377 167 590t474 213zM752 1710h45q84 -82 217 -182l-41 -68h-17q-55 37 -190 137
q-94 -59 -227 -137h-19l-22 68q129 80 254 182zM948 2009q51 0 86 -30.5t35 -83.5t-98 -138l37 -65l-66 -35l-59 102q98 76 98 127q0 41 -55 41t-109 -47l-33 49q80 80 164 80z" />
    <glyph glyph-name="ocircumflexhookabove" unicode="&#x1ed5;" horiz-adv-x="841" 
d="M502 829q-139 0 -213 -141t-74 -381q0 -106 29.5 -154.5t97.5 -48.5q135 0 209 143.5t74 385.5q0 104 -28.5 150t-94.5 46zM768 636.5q0 -280.5 -119 -458.5t-330 -196q-126 16 -185.5 96t-59.5 227q0 281 122.5 459t331.5 190h17q223 -37 223 -317.5zM518 1337h45
q84 -82 217 -182l-41 -68h-16q-55 37 -191 138q-94 -59 -227 -138h-18l-23 68q129 80 254 182zM715 1636q51 0 86 -30.5t35 -83.5t-99 -138l37 -65l-65 -35l-60 102q98 76 99 127q0 41 -55.5 41t-108.5 -47l-33 49q80 80 164 80z" />
    <glyph glyph-name="Ocircumflextilde" unicode="&#x1ed6;" horiz-adv-x="1251" 
d="M719 1196q-465 0 -465 -664q0 -420 324 -419q233 0 351 172t118 497q0 414 -328 414zM737 1325q225 0 348 -137t123 -387q0 -381 -168 -599t-475 -218q-221 0 -345 142t-124 396q0 377 167 590t474 213zM770 1712h43q100 -94 219 -184l-41 -66h-18q-117 80 -189 135
q-84 -51 -227 -135h-18l-25 66q102 63 256 184zM709.5 1841q-17.5 0 -25.5 -4q-20 -10 -40.5 -33.5t-49.5 -52.5h-14l-48 47v17l117 131l19 6q39 -4 156.5 -38t134 -34t24.5 4t20.5 14.5t20.5 18.5t24.5 26.5t26.5 28.5h15l45 -49v-14l-117 -135l-17 -7q-41 4 -157.5 39
t-134 35z" />
    <glyph glyph-name="ocircumflextilde" unicode="&#x1ed7;" horiz-adv-x="841" 
d="M502 829q-139 0 -213 -141t-74 -381q0 -106 29.5 -154.5t97.5 -48.5q135 0 209 143.5t74 385.5q0 104 -28.5 150t-94.5 46zM768 636.5q0 -280.5 -119 -458.5t-330 -196q-126 16 -185.5 96t-59.5 227q0 281 122.5 459t331.5 190h17q223 -37 223 -317.5zM539 1339h43
q100 -94 219 -184l-41 -65h-19q-117 80 -188 135q-84 -51 -227 -135h-19l-24 65q102 63 256 184zM478 1468q-18 0 -26 -4q-21 -10 -36 -28.5t-54 -57.5h-14l-47 47v17l117 131l18 6q39 -4 157 -38t134 -34t24.5 4.5t20.5 14.5t20.5 18t25 26.5t26.5 28.5h14l45 -49v-14
l-117 -135l-16 -6q-41 4 -157.5 38.5t-134.5 34.5z" />
    <glyph glyph-name="Ocircumflexdotbelow" unicode="&#x1ed8;" horiz-adv-x="1251" 
d="M601 -150q42 0 64.5 -23.5t22.5 -64.5t-24.5 -66.5t-65.5 -25.5q-88 0 -88 88q0 41 24.5 66.5t66.5 25.5zM719 1196q-465 0 -465 -664q0 -420 324 -419q233 0 351 172t118 497q0 414 -328 414zM737 1325q225 0 348 -137t123 -387q0 -381 -168 -599t-475 -218
q-221 0 -345 142t-124 396q0 377 167 590t474 213zM537 1499l-25 68q115 70 256 182h45q84 -82 217 -182l-41 -68h-16q-88 59 -191 137q-131 -82 -227 -137h-18z" />
    <glyph glyph-name="ocircumflexdotbelow" unicode="&#x1ed9;" horiz-adv-x="841" 
d="M324 -150q41 0 64.5 -23.5t23.5 -64.5t-25 -66.5t-65 -25.5q-88 0 -89 88q0 41 25 66.5t66 25.5zM502 829q-139 0 -213 -141t-74 -381q0 -106 29.5 -154.5t97.5 -48.5q135 0 209 143.5t74 385.5q0 104 -28.5 150t-94.5 46zM768 636.5q0 -280.5 -119 -458.5t-330 -196
q-126 16 -185.5 96t-59.5 227q0 281 122.5 459t331.5 190h17q223 -37 223 -317.5zM315 1067l-34 61q115 104 278 275h47q96 -141 211 -275l-49 -61h-16q-96 98 -183 215q-92 -92 -235 -215h-19z" />
    <glyph glyph-name="Ohornacute" unicode="&#x1eda;" horiz-adv-x="1257" 
d="M719 1196q-227 0 -346 -169t-119 -466q0 -231 78 -339.5t250 -108.5q227 0 346 172t119 469q0 229 -79 335.5t-249 106.5zM1265 1565q34 0 60.5 -43t26.5 -107q0 -106 -73 -170.5t-185 -68.5q113 -135 112 -398q0 -356 -172 -575t-469 -219q-469 0 -469 565
q0 348 170 562t465 214q104 0 205.5 -31.5t150.5 -31.5t94.5 34.5t45.5 103.5t-47 118l6 16q45 31 79 31zM973 1759l41 -90l-6 -18q-80 -39 -396 -176l-18 8l-29 69q217 109 391 211z" />
    <glyph glyph-name="ohornacute" unicode="&#x1edb;" horiz-adv-x="884" 
d="M356 100q137 0 213 144.5t76 386.5q0 106 -30.5 154.5t-96.5 48.5q-139 0 -215 -142.5t-76 -382.5q0 -111 29.5 -160t99.5 -49zM999 1016q0 -80 -69.5 -142.5t-167.5 -66.5q27 -61 26 -164q0 -287 -120.5 -465t-331.5 -196q-131 15 -190.5 95.5t-59.5 229.5
q0 279 124 458t335 189h16q39 -8 96.5 -31.5t103.5 -23.5t78.5 28.5t32.5 90.5t-63 123l4 18q47 35 82 35t69.5 -49t34.5 -129zM397 1065l-43 61q195 162 332 297l19 -2l57 -80l-4 -18q-205 -162 -344 -260z" />
    <glyph glyph-name="Ohorngrave" unicode="&#x1edc;" horiz-adv-x="1257" 
d="M719 1196q-227 0 -346 -169t-119 -466q0 -231 78 -339.5t250 -108.5q227 0 346 172t119 469q0 229 -79 335.5t-249 106.5zM1265 1565q34 0 60.5 -43t26.5 -107q0 -106 -73 -170.5t-185 -68.5q113 -135 112 -398q0 -356 -172 -575t-469 -219q-469 0 -469 565
q0 348 170 562t465 214q104 0 205.5 -31.5t150.5 -31.5t94.5 34.5t45.5 103.5t-47 118l6 16q45 31 79 31zM584 1763l18 4q152 -88 391 -208l-28 -70l-19 -8q-227 96 -395 176l-6 16z" />
    <glyph glyph-name="ohorngrave" unicode="&#x1edd;" horiz-adv-x="884" 
d="M356 100q137 0 213 144.5t76 386.5q0 106 -30.5 154.5t-96.5 48.5q-139 0 -215 -142.5t-76 -382.5q0 -111 29.5 -160t99.5 -49zM999 1016q0 -80 -69.5 -142.5t-167.5 -66.5q27 -61 26 -164q0 -287 -120.5 -465t-331.5 -196q-131 15 -190.5 95.5t-59.5 229.5
q0 279 124 458t335 189h16q39 -8 96.5 -31.5t103.5 -23.5t78.5 28.5t32.5 90.5t-63 123l4 18q47 35 82 35t69.5 -49t34.5 -129zM696 1065l-16 -2q-158 111 -346 260l-2 18l57 80l17 2q143 -137 333 -297z" />
    <glyph glyph-name="Ohornhookabove" unicode="&#x1ede;" horiz-adv-x="1257" 
d="M719 1196q-227 0 -346 -169t-119 -466q0 -231 78 -339.5t250 -108.5q227 0 346 172t119 469q0 229 -79 335.5t-249 106.5zM1265 1565q34 0 60.5 -43t26.5 -107q0 -106 -73 -170.5t-185 -68.5q113 -135 112 -398q0 -356 -172 -575t-469 -219q-469 0 -469 565
q0 348 170 562t465 214q104 0 205.5 -31.5t150.5 -31.5t94.5 34.5t45.5 103.5t-47 118l6 16q45 31 79 31zM745 1827q55 0 91 -33t36 -80q0 -66 -104 -151l39 -70l-68 -37l-63 109q102 76 102 133q0 43 -57 43t-115 -49l-33 51q84 84 172 84z" />
    <glyph glyph-name="ohornhookabove" unicode="&#x1edf;" horiz-adv-x="884" 
d="M356 100q137 0 213 144.5t76 386.5q0 106 -30.5 154.5t-96.5 48.5q-139 0 -215 -142.5t-76 -382.5q0 -111 29.5 -160t99.5 -49zM999 1016q0 -80 -69.5 -142.5t-167.5 -66.5q27 -61 26 -164q0 -287 -120.5 -465t-331.5 -196q-131 15 -190.5 95.5t-59.5 229.5
q0 279 124 458t335 189h16q39 -8 96.5 -31.5t103.5 -23.5t78.5 28.5t32.5 90.5t-63 123l4 18q47 35 82 35t69.5 -49t34.5 -129zM565 1325q0 43 -57 43t-115 -49l-33 51q84 84 172 84q55 0 91 -32.5t36 -89.5t-104 -142l39 -70l-68 -37l-63 109q102 78 102 133z" />
    <glyph glyph-name="Ohorntilde" unicode="&#x1ee0;" horiz-adv-x="1257" 
d="M719 1196q-227 0 -346 -169t-119 -466q0 -231 78 -339.5t250 -108.5q227 0 346 172t119 469q0 229 -79 335.5t-249 106.5zM1265 1565q34 0 60.5 -43t26.5 -107q0 -106 -73 -170.5t-185 -68.5q113 -135 112 -398q0 -356 -172 -575t-469 -219q-469 0 -469 565
q0 348 170 562t465 214q104 0 205.5 -31.5t150.5 -31.5t94.5 34.5t45.5 103.5t-47 118l6 16q45 31 79 31zM909.5 1640q28.5 0 114.5 95h14l49 -52v-14l-124 -137l-19 -8q-41 4 -166 39.5t-142 35.5t-26.5 -4t-22 -14t-21.5 -19.5t-26.5 -27.5t-27.5 -29h-18l-48 51v15
l125 137l19 6q43 -4 167 -39t152.5 -35z" />
    <glyph glyph-name="ohorntilde" unicode="&#x1ee1;" horiz-adv-x="884" 
d="M356 100q137 0 213 144.5t76 386.5q0 106 -30.5 154.5t-96.5 48.5q-139 0 -215 -142.5t-76 -382.5q0 -111 29.5 -160t99.5 -49zM999 1016q0 -80 -69.5 -142.5t-167.5 -66.5q27 -61 26 -164q0 -287 -120.5 -465t-331.5 -196q-131 15 -190.5 95.5t-59.5 229.5
q0 279 124 458t335 189h16q39 -8 96.5 -31.5t103.5 -23.5t78.5 28.5t32.5 90.5t-63 123l4 18q47 35 82 35t69.5 -49t34.5 -129zM438 1221q-34 0 -102 -93h-14l-50 52v14l113 135l16 8q39 -6 145.5 -39.5t121 -33.5t23.5 4q23 10 85 88h17l47 -51v-15l-113 -137l-16 -6
q-39 6 -145.5 40t-127.5 34z" />
    <glyph glyph-name="Ohorndotbelow" unicode="&#x1ee2;" horiz-adv-x="1257" 
d="M601 -150q42 0 64.5 -23.5t22.5 -64.5t-24.5 -66.5t-65.5 -25.5q-88 0 -88 88q0 41 24.5 66.5t66.5 25.5zM719 1196q-227 0 -346 -169t-119 -466q0 -231 78 -339.5t250 -108.5q227 0 346 172t119 469q0 229 -79 335.5t-249 106.5zM1265 1565q34 0 60.5 -43t26.5 -107
q0 -106 -73 -170.5t-185 -68.5q113 -135 112 -398q0 -356 -172 -575t-469 -219q-469 0 -469 565q0 348 170 562t465 214q104 0 205.5 -31.5t150.5 -31.5t94.5 34.5t45.5 103.5t-47 118l6 16q45 31 79 31z" />
    <glyph glyph-name="ohorndotbelow" unicode="&#x1ee3;" horiz-adv-x="884" 
d="M324 -150q41 0 64.5 -23.5t23.5 -64.5t-25 -66.5t-65 -25.5q-88 0 -89 88q0 41 25 66.5t66 25.5zM356 100q137 0 213 144.5t76 386.5q0 106 -30.5 154.5t-96.5 48.5q-139 0 -215 -142.5t-76 -382.5q0 -111 29.5 -160t99.5 -49zM999 1016q0 -80 -69.5 -142.5t-167.5 -66.5
q27 -61 26 -164q0 -287 -120.5 -465t-331.5 -196q-131 15 -190.5 95.5t-59.5 229.5q0 279 124 458t335 189h16q39 -8 96.5 -31.5t103.5 -23.5t78.5 28.5t32.5 90.5t-63 123l4 18q47 35 82 35t69.5 -49t34.5 -129z" />
    <glyph glyph-name="Udotbelow" unicode="&#x1ee4;" horiz-adv-x="1222" 
d="M564 -150q42 0 64.5 -23.5t22.5 -64.5t-24.5 -66.5t-65.5 -25.5q-88 0 -88 88q0 41 24.5 66.5t66.5 25.5zM573 -14q-211 0 -321.5 100t-110.5 283q0 59 9 110l24 178l78 654h151l-108 -813q-6 -49 -6 -92q0 -283 278 -283q326 0 365 356l96 832h154l-107 -815
q-27 -244 -159 -377t-343 -133z" />
    <glyph glyph-name="udotbelow" unicode="&#x1ee5;" horiz-adv-x="964" 
d="M393 -150q41 0 64.5 -23.5t23.5 -64.5t-24.5 -66.5t-65.5 -25.5q-88 0 -88 88q0 41 24.5 66.5t65.5 25.5zM295 160q61 0 167.5 146.5t239.5 422.5v6l11 199l151 14l-102 -725l-8 -217l-156 -14l64 459h-13q-193 -330 -358 -459h-23q-70 16 -114.5 61t-42.5 115l2 27
l84 528l16 215l152 12l-107 -686l-4 -43q-2 -61 41 -61z" />
    <glyph glyph-name="Uhookabove" unicode="&#x1ee6;" horiz-adv-x="1222" 
d="M573 -14q-211 0 -321.5 100t-110.5 283q0 59 9 110l24 178l78 654h151l-108 -813q-6 -49 -6 -92q0 -283 278 -283q326 0 365 356l96 832h154l-107 -815q-27 -244 -159 -377t-343 -133zM733 1827q55 0 91 -33t36 -80q0 -66 -104 -151l39 -70l-68 -37l-63 109
q102 76 102 133q0 43 -57 43t-115 -49l-33 51q84 84 172 84z" />
    <glyph glyph-name="uhookabove" unicode="&#x1ee7;" horiz-adv-x="964" 
d="M295 160q61 0 167.5 146.5t239.5 422.5v6l11 199l151 14l-102 -725l-8 -217l-156 -14l64 459h-13q-193 -330 -358 -459h-23q-70 16 -114.5 61t-42.5 115l2 27l84 528l16 215l152 12l-107 -686l-4 -43q-2 -61 41 -61zM533 1368q-57 0 -115 -49l-33 51q84 84 172 84
q55 0 91 -32.5t36 -89.5t-104 -142l38 -70l-67 -37l-64 109q102 78 103 133q0 43 -57 43z" />
    <glyph glyph-name="Uhornacute" unicode="&#x1ee8;" horiz-adv-x="1234" 
d="M1333 1424.5q0 -65.5 -43 -115t-119 -70.5l-96 -743q-27 -244 -159 -377t-343 -133t-321.5 100t-110.5 283q0 59 9 110l24 178l78 654h151l-108 -813q-6 -49 -6 -92q0 -283 278 -283q326 0 365 356l96 832h57q127 0 127 106q0 61 -61 123l6 14q45 31 78 31t65.5 -47.5
t32.5 -113zM563 1483l-28 69q217 109 391 211l16 -4l41 -90l-6 -18q-80 -39 -395 -176z" />
    <glyph glyph-name="uhornacute" unicode="&#x1ee9;" horiz-adv-x="968" 
d="M1055 1092q0 -147 -199 -211l-92 -658l-10 -217l-154 -14l66 465h-17q-102 -178 -185 -287t-173 -178h-23q-70 16 -114.5 61t-42.5 115l2 27l84 528l16 215l152 12l-107 -686l-2 -28q-2 -76 39 -76q61 0 169.5 152.5t240.5 439.5l10 182l61 12q152 20 152 119
q0 68 -66 133l4 16q51 37 85 37t69 -48t35 -111zM430 1065l-43 61q195 162 332 297l18 -2l58 -80l-4 -18q-205 -162 -345 -260z" />
    <glyph glyph-name="Uhorngrave" unicode="&#x1eea;" horiz-adv-x="1234" 
d="M1333 1424.5q0 -65.5 -43 -115t-119 -70.5l-96 -743q-27 -244 -159 -377t-343 -133t-321.5 100t-110.5 283q0 59 9 110l24 178l78 654h151l-108 -813q-6 -49 -6 -92q0 -283 278 -283q326 0 365 356l96 832h57q127 0 127 106q0 61 -61 123l6 14q45 31 78 31t65.5 -47.5
t32.5 -113zM934 1489l-19 -8q-227 96 -395 176l-6 16l39 90l18 4q152 -88 392 -208z" />
    <glyph glyph-name="uhorngrave" unicode="&#x1eeb;" horiz-adv-x="968" 
d="M1055 1092q0 -147 -199 -211l-92 -658l-10 -217l-154 -14l66 465h-17q-102 -178 -185 -287t-173 -178h-23q-70 16 -114.5 61t-42.5 115l2 27l84 528l16 215l152 12l-107 -686l-2 -28q-2 -76 39 -76q61 0 169.5 152.5t240.5 439.5l10 182l61 12q152 20 152 119
q0 68 -66 133l4 16q51 37 85 37t69 -48t35 -111zM729 1065l-16 -2q-158 111 -346 260l-2 18l57 80l16 2q143 -137 334 -297z" />
    <glyph glyph-name="Uhornhookabove" unicode="&#x1eec;" horiz-adv-x="1234" 
d="M1333 1424.5q0 -65.5 -43 -115t-119 -70.5l-96 -743q-27 -244 -159 -377t-343 -133t-321.5 100t-110.5 283q0 59 9 110l24 178l78 654h151l-108 -813q-6 -49 -6 -92q0 -283 278 -283q326 0 365 356l96 832h57q127 0 127 106q0 61 -61 123l6 14q45 31 78 31t65.5 -47.5
t32.5 -113zM691 1741q-56 0 -116 -49l-32 51q84 84 172 84q55 0 91 -33t36 -80q0 -66 -105 -151l39 -70l-67 -37l-64 109q102 76 103 133q-1 43 -57 43z" />
    <glyph glyph-name="uhornhookabove" unicode="&#x1eed;" horiz-adv-x="968" 
d="M1055 1092q0 -147 -199 -211l-92 -658l-10 -217l-154 -14l66 465h-17q-102 -178 -185 -287t-173 -178h-23q-70 16 -114.5 61t-42.5 115l2 27l84 528l16 215l152 12l-107 -686l-2 -28q-2 -76 39 -76q61 0 169.5 152.5t240.5 439.5l10 182l61 12q152 20 152 119
q0 68 -66 133l4 16q51 37 85 37t69 -48t35 -111zM598 1325q0 43 -57 43t-115 -49l-33 51q84 84 172 84q55 0 91 -32.5t36 -89.5t-104 -142l39 -70l-68 -37l-63 109q102 78 102 133z" />
    <glyph glyph-name="Uhorntilde" unicode="&#x1eee;" horiz-adv-x="1234" 
d="M1333 1424.5q0 -65.5 -43 -115t-119 -70.5l-96 -743q-27 -244 -159 -377t-343 -133t-321.5 100t-110.5 283q0 59 9 110l24 178l78 654h151l-108 -813q-6 -49 -6 -92q0 -283 278 -283q326 0 365 356l96 832h57q127 0 127 106q0 61 -61 123l6 14q45 31 78 31t65.5 -47.5
t32.5 -113zM878.5 1640q28.5 0 114.5 95h15l49 -52v-14l-125 -137l-19 -8q-41 4 -165.5 39.5t-142 35.5t-27 -4t-21.5 -14t-21.5 -19.5t-26.5 -27.5t-28 -29h-18l-47 51v15l125 137l18 6q43 -4 167 -39t152.5 -35z" />
    <glyph glyph-name="uhorntilde" unicode="&#x1eef;" horiz-adv-x="968" 
d="M1055 1092q0 -147 -199 -211l-92 -658l-10 -217l-154 -14l66 465h-17q-102 -178 -185 -287t-173 -178h-23q-70 16 -114.5 61t-42.5 115l2 27l84 528l16 215l152 12l-107 -686l-2 -28q-2 -76 39 -76q61 0 169.5 152.5t240.5 439.5l10 182l61 12q152 20 152 119
q0 68 -66 133l4 16q51 37 85 37t69 -48t35 -111zM700.5 1264q14.5 0 23.5 4q23 10 85 88h16l47 -51v-15l-112 -137l-17 -6q-39 6 -145 40t-120 34q-24 0 -44 -19l-18 -18q-23 -23 -47 -56h-15l-49 52v14l113 135l16 8q39 -6 145.5 -39.5t121 -33.5z" />
    <glyph glyph-name="Uhorndotbelow" unicode="&#x1ef0;" horiz-adv-x="1234" 
d="M548 -150q42 0 64.5 -23.5t22.5 -64.5t-24.5 -66.5t-65.5 -25.5q-88 0 -88 88q0 41 24.5 66.5t66.5 25.5zM1333 1424.5q0 -65.5 -43 -115t-119 -70.5l-96 -743q-27 -244 -159 -377t-343 -133t-321.5 100t-110.5 283q0 59 9 110l24 178l78 654h151l-108 -813
q-6 -49 -6 -92q0 -283 278 -283q326 0 365 356l96 832h57q127 0 127 106q0 61 -61 123l6 14q45 31 78 31t65.5 -47.5t32.5 -113z" />
    <glyph glyph-name="uhorndotbelow" unicode="&#x1ef1;" horiz-adv-x="968" 
d="M393 -150q41 0 64.5 -23.5t23.5 -64.5t-24.5 -66.5t-65.5 -25.5q-88 0 -88 88q0 41 24.5 66.5t65.5 25.5zM1055 1092q0 -147 -199 -211l-92 -658l-10 -217l-154 -14l66 465h-17q-102 -178 -185 -287t-173 -178h-23q-70 16 -114.5 61t-42.5 115l2 27l84 528l16 215l152 12
l-107 -686l-2 -28q-2 -76 39 -76q61 0 169.5 152.5t240.5 439.5l10 182l61 12q152 20 152 119q0 68 -66 133l4 16q51 37 85 37t69 -48t35 -111z" />
    <glyph glyph-name="Ygrave" unicode="&#x1ef2;" horiz-adv-x="1028" 
d="M567 477l-14 -94l-43 -383h-154l60 383l10 96l-291 832h162l14 -72l201 -596h14l373 592l39 76h168zM852 1489l-18 -8q-227 96 -396 176l-6 16l39 90l18 4q152 -88 392 -208z" />
    <glyph glyph-name="ygrave" unicode="&#x1ef3;" horiz-adv-x="833" 
d="M815 765.5q0 -106.5 -100 -284.5l-236 -415q-143 -252 -265 -358.5t-257 -106.5q-82 0 -160 32l-8 131l16 13q82 -31 150 -31q184 0 344 240l-184 948l149 14l121 -766h27l184 350q74 137 74 216.5t-49 146.5l6 20l141 33q47 -76 47 -182.5zM602 1065l-16 -2
q-158 111 -346 260l-2 18l57 80l16 2q143 -137 334 -297z" />
    <glyph glyph-name="Ydotbelow" unicode="&#x1ef4;" horiz-adv-x="1028" 
d="M418 -150q41 0 64.5 -23.5t23.5 -64.5t-24.5 -66.5t-65.5 -25.5q-88 0 -88 88q0 41 24.5 66.5t65.5 25.5zM567 477l-14 -94l-43 -383h-154l60 383l10 96l-291 832h162l14 -72l201 -596h14l373 592l39 76h168z" />
    <glyph glyph-name="ydotbelow" unicode="&#x1ef5;" horiz-adv-x="854" 
d="M521 -145q40 0 62.5 -22.5t22.5 -62.5t-24.5 -66t-65.5 -26q-84 0 -84 86q0 41 24.5 66t64.5 25zM813 765.5q0 -106.5 -100 -284.5l-236 -415q-143 -252 -265 -358.5t-257 -106.5q-82 0 -162 32l-6 131l16 13q84 -31 150 -31q180 0 346 242l-184 946l149 14l23 -164
l96 -602h27l184 350q74 137 74 216.5t-50 146.5l7 20l141 33q47 -76 47 -182.5z" />
    <glyph glyph-name="Yhookabove" unicode="&#x1ef6;" horiz-adv-x="1028" 
d="M567 477l-14 -94l-43 -383h-154l60 383l10 96l-291 832h162l14 -72l201 -596h14l373 592l39 76h168zM610 1741q-57 0 -114 -49l-33 51q84 84 172 84q55 0 91 -33t36 -80q0 -66 -105 -151l39 -70l-67 -37l-64 109q102 76 103 133q-1 43 -58 43z" />
    <glyph glyph-name="yhookabove" unicode="&#x1ef7;" horiz-adv-x="833" 
d="M815 765.5q0 -106.5 -100 -284.5l-236 -415q-143 -252 -265 -358.5t-257 -106.5q-82 0 -160 32l-8 131l16 13q82 -31 150 -31q184 0 344 240l-184 948l149 14l121 -766h27l184 350q74 137 74 216.5t-49 146.5l6 20l141 33q47 -76 47 -182.5zM471 1325q0 43 -57 43
t-115 -49l-33 51q84 84 172 84q55 0 91 -32.5t36 -89.5t-104 -142l39 -70l-68 -37l-63 109q102 78 102 133z" />
    <glyph glyph-name="endash" unicode="&#x2013;" horiz-adv-x="980" 
d="M1024 565l-18 -96h-1024l-11 12l21 97h1024z" />
    <glyph glyph-name="emdash" unicode="&#x2014;" horiz-adv-x="1908" 
d="M1956 565l-21 -96h-1955l-11 12l21 97h1956z" />
    <glyph glyph-name="quoteleft" unicode="&#x2018;" horiz-adv-x="333" 
d="M129 1055q0 117 147 262l60 -43l2 -12q-88 -90 -88 -171t80 -112v-14q-31 -31 -90 -68q-111 41 -111 158z" />
    <glyph glyph-name="quoteright" unicode="&#x2019;" horiz-adv-x="335" 
d="M338 1156q0 -116 -148 -261l-59 41v12q86 94 86 173t-80 110v16q29 27 92 68q109 -43 109 -159z" />
    <glyph glyph-name="quotesinglbase" unicode="&#x201a;" horiz-adv-x="468" 
d="M150 10q0 53 -64 94v17q50 33 107 51q84 -53 83 -135q0 -131 -188 -268l-51 49v12q113 90 113 180z" />
    <glyph glyph-name="quotedblleft" unicode="&#x201c;" horiz-adv-x="577" 
d="M500 1089q0 -79 80 -110v-16q-30 -27 -93 -68q-109 43 -109 159t148 261l60 -41v-12q-86 -94 -86 -173zM238 1089q0 -79 79 -110v-16q-29 -27 -92 -68q-109 43 -109 159t148 261l60 -41v-12q-86 -94 -86 -173z" />
    <glyph glyph-name="quotedblright" unicode="&#x201d;" horiz-adv-x="591" 
d="M590 1157q0 -117 -148 -262l-59 41v12q86 94 86 173t-80 110v16q24 23 90 68q111 -41 111 -158zM332 1157q0 -117 -148 -262l-59 41l-2 12q88 94 88 173t-80 110v16q24 23 90 68q111 -41 111 -158z" />
    <glyph glyph-name="quotedblbase" unicode="&#x201e;" horiz-adv-x="733" 
d="M539 37q0 -131 -189 -268l-53 49v12q113 90 113 180q0 53 -64 94v17q58 35 109 51q84 -55 84 -135zM150 10q0 53 -64 94v17q50 33 107 51q84 -53 83 -135q0 -131 -188 -268l-51 49v12q113 90 113 180z" />
    <glyph glyph-name="dagger" unicode="&#x2020;" horiz-adv-x="985" 
d="M920 717h-345l-110 -903l-100 -7l-9 15l95 758l16 137h-338l-10 12l22 94h340l45 375l103 10l8 -10l-47 -375h340l12 -10z" />
    <glyph glyph-name="daggerdbl" unicode="&#x2021;" horiz-adv-x="983" 
d="M575 727l-55 -444h342l12 -13l-20 -96h-346l-45 -360l-98 -7l-9 15l43 352h-338l-10 12l23 97h338l55 444h-338l-10 12l22 95h338l45 364l105 10l6 -10l-45 -364h340l12 -11l-20 -96h-347z" />
    <glyph glyph-name="bullet" unicode="&#x2022;" horiz-adv-x="520" 
d="M265 588q46 0 72 -27q25 -27 25 -73t-28 -74t-74 -29q-96 0 -96 98q0 47 27 76q28 29 74 29z" />
    <glyph glyph-name="onedotenleader" unicode="&#x2024;" horiz-adv-x="471" 
d="M98 80q0 40 24 66t66 26q41 0 65 -22q23 -22 23 -65q0 -42 -24 -69q-24 -26 -66 -26q-40 0 -64 24t-24 66z" />
    <glyph glyph-name="twodotenleader" unicode="&#x2025;" horiz-adv-x="829" 
d="M541 172q84 0 84 -86q0 -43 -25 -70q-26 -26 -66 -26t-64 24t-24 66q0 40 26 66t69 26zM90 80q0 40 24 66t66 26q41 0 65 -22q23 -22 23 -65q0 -42 -24 -69q-24 -26 -66 -26q-40 0 -64 24t-24 66z" />
    <glyph glyph-name="ellipsis" unicode="&#x2026;" horiz-adv-x="1185" 
d="M848 172q86 0 86 -86q0 -43 -25 -70q-25 -26 -65 -26t-65 24q-24 24 -23 66q0 40 24 66t68 26zM401 80q0 40 25 66t66 26q40 0 64 -22t24 -65q0 -42 -26 -69t-67 -26q-86 0 -86 90zM137 172q84 0 84 -86q-1 -43 -25 -70q-24 -26 -65 -26t-65 24t-23 66q-1 40 25 66t69 26
z" />
    <glyph glyph-name="perthousand" unicode="&#x2030;" horiz-adv-x="2461" 
d="M2091 606q-113 0 -171 -82t-58 -229q0 -201 163 -201q115 0 175 81q59 81 59 228q0 203 -168 203zM1325 606q-113 0 -171 -82t-58 -229q0 -201 164 -201q115 0 174 81t59 228q0 203 -168 203zM2114 713q124 0 188 -73t63 -210q0 -206 -92 -322t-264 -116q-123 0 -189 74
t-65 208q0 205 94 322q95 117 265 117zM1348 713q122 0 188 -73t66 -210q0 -206 -94 -322t-265 -116q-123 0 -189 74t-65 208q0 205 94 322q95 117 265 117zM475 1212q-113 0 -171 -80t-58 -229q0 -203 164 -203q115 0 174 81t59 229q0 202 -168 202zM498 1319
q124 0 188 -73t64 -208q0 -208 -92 -324t-267 -116q-123 0 -187 74t-65 211q-1 207 93 321t266 115zM1427 1348l9 -27l-1155 -1507l-62 39l-8 24l1155 1509z" />
    <glyph glyph-name="minute" unicode="&#x2032;" horiz-adv-x="331" 
d="M346 1294l-92 -368l-82 -13l-10 15l55 370l121 9z" />
    <glyph glyph-name="second" unicode="&#x2033;" horiz-adv-x="561" 
d="M575 1294l-92 -368l-82 -13l-10 15l55 370l121 9zM346 1294l-92 -368l-82 -13l-10 15l55 370l121 9z" />
    <glyph glyph-name="guilsinglleft" unicode="&#x2039;" horiz-adv-x="466" 
d="M61 451l5 32l342 346l69 -43v-18l-295 -305l219 -307l-4 -19l-80 -43z" />
    <glyph glyph-name="guilsinglright" unicode="&#x203a;" horiz-adv-x="475" 
d="M430 475l-4 -33l-342 -346l-68 41v21l295 305l-221 307l6 18l78 43z" />
    <glyph glyph-name="fraction" unicode="&#x2044;" horiz-adv-x="151" 
d="M657 1348l9 -27l-1155 -1507l-62 39l-8 24l1155 1509z" />
    <glyph glyph-name="zerosuperior" unicode="&#x2070;" horiz-adv-x="772" 
d="M487 1325q-113 0 -171 -89t-58 -249q0 -221 164 -221q115 0 174 88t59 250q0 221 -168 221zM510 1442q124 0 188 -80t64 -227q0 -227 -92 -355t-267 -127q-123 0 -187 81t-64 231q0 225 93 351t265 126z" />
    <glyph glyph-name="foursuperior" unicode="&#x2074;" horiz-adv-x="714" 
d="M233 971h238l41 315h-10zM688 868l-123 4l-18 -200l-8 -10l-105 -7l-6 9l29 208h-244l-100 -4l-9 13l11 82l401 471h119l-60 -463h123l9 -13z" />
    <glyph glyph-name="fivesuperior" unicode="&#x2075;" horiz-adv-x="620" 
d="M596 938q0 -127 -104 -207t-269 -80q-57 0 -133 15l4 92l10 8q66 -14 153 -14t149 45q61 45 61 121q0 86 -152 118l-118 23l-9 12l48 348l20 17l74 -2h202l123 4l7 -6l-27 -99l-10 -8l-95 8h-202l-29 -186l86 -21q211 -45 211 -188z" />
    <glyph glyph-name="sixsuperior" unicode="&#x2076;" horiz-adv-x="688" 
d="M412 1034q-74 0 -156 -53l-4 -37q-16 -209 132 -209t165 158q8 69 -27 105q-36 36 -110 36zM471 1126q97 0 151 -60t45 -168t-86 -178t-206 -69q-129 0 -193 77q-63 78 -49 228t131 280t318 208h8l74 -55l-2 -13q-299 -104 -375 -291l8 -12q80 53 176 53z" />
    <glyph glyph-name="sevensuperior" unicode="&#x2077;" horiz-adv-x="614" 
d="M311 1434h303l62 2l-10 -95l-314 -524l-88 -170l-102 29l-6 20l379 633h-261l-112 -8l-6 14l24 101z" />
    <glyph glyph-name="eightsuperior" unicode="&#x2078;" horiz-adv-x="696" 
d="M380 739q73 0 120 39q47 38 47 86t-25 76q-26 28 -50 40t-73 30q-162 -49 -161 -162q0 -49 34 -79t108 -30zM571 1256q-1 98 -119 98q-60 0 -99 -35q-40 -35 -40 -86t30 -78t89 -53q139 56 139 154zM458 1442q108 0 164 -45t56 -123q0 -129 -166 -201l-2 -8
q70 -33 108 -70t37 -100q0 -111 -82 -177t-203 -67q-121 0 -183 51t-62 134q0 139 194 211v4q-119 61 -119 163t75 165t183 63z" />
    <glyph glyph-name="ninesuperior" unicode="&#x2079;" horiz-adv-x="688" 
d="M417 1059q73 0 156 55l5 39q23 209 -128 209t-167 -160q-12 -143 134 -143zM457 1444q129 0 192 -76t49 -213q-14 -166 -131 -297t-317 -207h-8l-74 56l2 14q154 55 245 125t130 166l-10 10q-82 -53 -176 -53t-149 61q-54 61 -45 169q9 109 86 177t206 68z" />
    <glyph glyph-name="franc" unicode="&#x20a3;" horiz-adv-x="813" 
d="M371 918l-49 -361h192l186 2l7 -14l-21 -90l-194 2h-183l-22 -172h239l6 -9l-12 -69h-241l-21 -207h-127l27 207h-133l-7 8l13 70h139l84 733h592l8 -14l-23 -91l-256 5h-204z" />
    <glyph glyph-name="Euro" unicode="&#x20ac;" horiz-adv-x="1009" 
d="M723 1026q152 0 270 -76l-37 -102l-14 -4q-98 76 -235 76q-264 0 -349 -265h385l9 -8l-19 -82h-399q-14 -66 -15 -143h396l6 -10l-16 -82h-381q35 -233 272 -234q145 0 274 84l17 -10l-23 -100q-141 -82 -286 -82q-360 0 -390 342h-155l-6 10l16 82h145q8 98 17 143h-146
l-6 10l17 80h155q117 371 498 371z" />
    <glyph glyph-name="literSign" unicode="&#x2113;" horiz-adv-x="458" 
d="M260 223l-8 -217l-156 -14l174 1237l6 198l156 15z" />
    <glyph glyph-name="trademark" unicode="&#x2122;" horiz-adv-x="1191" 
d="M1133 1311l-13 -482h-76l9 146l2 203h-8l-166 -297h-70l-88 297h-4l-49 -193l-31 -156h-76l113 482h104l15 -72l65 -244h6l135 244l33 72h99zM530 1311l5 -8l-15 -64l-92 4h-47l-35 -262l-14 -152h-84l53 414h-47l-96 -4l-4 8l12 64h364z" />
    <glyph glyph-name="Ohm" unicode="&#x2126;" horiz-adv-x="1452" 
d="M827 1325q242 0 368 -140t126 -345t-92 -391t-262 -322l2 -6h200l158 12l6 -10l-33 -131l-192 8h-254l-78 -4l-6 8l14 123q174 121 276 307q101 186 101 370t-86 288q-86 106 -258 106q-215 0 -333 -154t-117 -385q0 -154 57 -298t162 -234l-15 -123l-10 -8l-76 4h-282
l-170 -6l-10 14l36 125l164 -12h178l2 6q-96 96 -146 235t-50 289q-1 285 165 479t455 195z" />
    <glyph glyph-name="estimated" unicode="&#x212e;" horiz-adv-x="1628" 
d="M860 1292q-268 0 -459 -196q-23 -23 -22 -47v-363q0 -10 12 -10h938q10 0 10 10v371q0 25 -20 45q-191 190 -459 190zM859 1333q312 0 533 -198q220 -199 220 -482v-16h-1221q-12 0 -12 -8v-371q0 -18 20 -43q186 -199 463 -199q146 0 274 60t218 164h102
q-104 -123 -262 -194t-334 -71q-311 0 -533 199q-223 198 -223 480t222 480t533 199z" />
    <glyph glyph-name="arrowleft" unicode="&#x2190;" horiz-adv-x="1054" 
d="M995 418l-776 8l309 -320v-24l-86 -25l-395 404v24l395 404l86 -25v-24l-307 -318l770 8l10 -12z" />
    <glyph glyph-name="arrowup" unicode="&#x2191;" horiz-adv-x="1054" 
d="M942 559l-27 -84h-22l-318 305l7 -768l-11 -12l-100 8l6 774l-319 -307h-25l-24 84l403 397h25z" />
    <glyph glyph-name="arrowright" unicode="&#x2192;" horiz-adv-x="1054" 
d="M1004 489v-22l-396 -406l-86 25v25l307 317l-770 -8l-10 12l6 100l776 -8l-309 320v24l86 25z" />
    <glyph glyph-name="arrowdown" unicode="&#x2193;" horiz-adv-x="1054" 
d="M944 389l-403 -395h-25l-405 395l24 86h25l317 -307l-6 770l10 10l101 -6l-7 -776l320 309h23z" />
    <glyph glyph-name="arrowupleft" unicode="&#x2196;" horiz-adv-x="1054" 
d="M924 186v-14l-76 -66l-545 553l-6 -444l-16 -16l-78 41l4 565l16 18l568 6l43 -77l-19 -19l-440 -6z" />
    <glyph glyph-name="arrowupright" unicode="&#x2197;" horiz-adv-x="1054" 
d="M850 246l-78 -43l-16 18l-6 441l-541 -549h-16l-66 75l551 545l-440 6l-19 17l43 80l565 -7l17 -16z" />
    <glyph glyph-name="arrowdownright" unicode="&#x2198;" horiz-adv-x="1054" 
d="M848 702l-4 -565l-17 -16l-567 -6l-43 78l19 16l440 6l-549 541v16l76 66l545 -553l6 444l16 16z" />
    <glyph glyph-name="arrowdownleft" unicode="&#x2199;" horiz-adv-x="1054" 
d="M815 215l19 -18l-43 -78l-566 6l-16 16l-6 568l78 43l16 -19l6 -440l541 549h16l66 -76l-551 -545z" />
    <glyph glyph-name="partialdiff" unicode="&#x2202;" horiz-adv-x="1044" 
d="M545 741q-291 0 -332 -319q-37 -324 255 -324q146 0 242 117q97 117 117 395q-137 131 -282 131zM448 -16q-212 0 -307 118q-94 118 -69 321q24 201 148 321t319 120q135 -6 262 -102l18 12q-63 414 -573 598l2 19l108 75h15q325 -140 479 -376t115 -560
q-31 -258 -168 -402t-349 -144z" />
    <glyph glyph-name="increment" unicode="&#x2206;" horiz-adv-x="1124" 
d="M651 1151l-477 -1020h678l-186 1020h-15zM1026 0h-1053l623 1311h176z" />
    <glyph glyph-name="product" unicode="&#x220f;" horiz-adv-x="1357" 
d="M1323 1184h-102l-105 -776l-43 -408h-155l59 395l90 791h-608l-105 -778l-43 -408h-153l57 395l92 789h-100l-10 14l28 113h1116l11 -15z" />
    <glyph glyph-name="summation" unicode="&#x2211;" horiz-adv-x="993" 
d="M1059 1298l-27 -122l-188 8h-498l344 -508l-2 -27l-477 -524h475l213 10l12 -14l-26 -123l-717 2l-158 -2l13 111l497 555l-356 530l14 117h670l201 2z" />
    <glyph glyph-name="minus" unicode="&#x2212;" horiz-adv-x="978" 
d="M926 586l-11 -97h-833l-10 13l8 96h833z" />
    <glyph glyph-name="divisionslash" unicode="&#x2215;" horiz-adv-x="589" 
d="M643 1370l-532 -1601h-107l-10 16l532 1604h105z" />
    <glyph glyph-name="bulletoperator" unicode="&#x2219;" horiz-adv-x="520" 
d="M215 483q-1 47 27 76t74 29t72 -27t26 -73t-28 -74t-75 -29q-96 0 -96 98z" />
    <glyph glyph-name="radical" unicode="&#x221a;" horiz-adv-x="1048" 
d="M506 0h-162l-158 827h-184l-6 9l18 102h277l10 -10l141 -783h13l632 1297l17 12h113z" />
    <glyph glyph-name="infinity" unicode="&#x221e;" horiz-adv-x="985" 
d="M909 565q0 154 -142 154q-73 0 -123 -49t-97 -135q31 -84 71 -129q40 -46 115 -46q76 0 126 56t50 149zM90 528q0 -162 142 -161q68 0 120 49q51 49 105 141q-27 80 -67 123t-120 43t-130 -56q-50 -57 -50 -139zM788 823q102 0 160 -66q58 -67 58 -195t-80 -214t-203 -86
q-86 0 -138 48t-91 141q-115 -188 -277 -189q-104 0 -163 66q-58 66 -58 194t78 214q78 87 207 87q154 0 227 -176q112 176 280 176z" />
    <glyph glyph-name="integral" unicode="&#x222b;" horiz-adv-x="552" 
d="M633 1460q78 0 145 -18l-22 -107l-13 -8q-63 27 -129 27q-170 0 -196 -189l-129 -1056q-15 -141 -69 -227t-185 -179l-60 61v19q92 79 131 145t52 174l125 1045q14 149 107 231t243 82z" />
    <glyph glyph-name="approxequal" unicode="&#x2248;" horiz-adv-x="985" 
d="M518 320q-156 48 -182 47q-25 -1 -38 -9q-14 -8 -22 -13t-21 -17t-21 -18t-26 -23q-17 -16 -28 -25h-20l-35 53l2 17l164 147l20 8q47 -6 205 -53t178 -47t26 1q5 1 12 5t13 7q5 2 15 10t27 20t25 21q10 10 24 21t22 20h16l37 -54l-2 -16l-164 -148l-22 -6q-49 4 -205 52
zM558 658q-158 46 -184 47q-26 -1 -48 -17q-23 -16 -33 -24t-36 -31t-38 -33h-18l-35 53l2 17l164 147l20 8q45 -6 204 -53q160 -47 180 -47t25 1t12 5t13 7q6 2 16 10t26 20q17 12 25 21q9 10 23 21t23 19h16l35 -53l-2 -16l-164 -148l-20 -6q-48 6 -206 52z" />
    <glyph glyph-name="notequal" unicode="&#x2260;" horiz-adv-x="976" 
d="M588 657l-82 -229h385l12 -12l-10 -97h-426l-111 -305h-100l-8 13l104 292h-293l-10 13l8 96h336l82 229h-373l-10 13l8 96h414l104 291h99l10 -13l-100 -278h307l12 -12l-10 -97h-348z" />
    <glyph glyph-name="lessequal" unicode="&#x2264;" horiz-adv-x="1015" 
d="M848 -86l-8 -96h-834l-12 10l10 96h832zM952 858l-10 -14l-737 -293v-10l669 -275l-34 -88l-19 -12l-743 313l14 127l14 17l822 325z" />
    <glyph glyph-name="greaterequal" unicode="&#x2265;" horiz-adv-x="1026" 
d="M848 -86l-8 -96h-834l-12 10l10 96h832zM971 623l10 -17l-14 -127l-824 -313l-16 12l-12 88l739 275v10l-666 293l-6 14l47 90z" />
    <glyph glyph-name="lozenge" unicode="&#x25ca;" horiz-adv-x="1017" 
d="M582 1188l-353 -617l209 -608h11l350 612l-207 613h-10zM668 1311l241 -709l-8 -51l-412 -713l-114 -4l-13 8l-239 707l6 49l412 715l116 4z" />
    <glyph glyph-name="dieresisacute" unicode="&#xf6d7;" 
d="M563 1198q1 40 23 62t60 22t60 -22t22 -59q0 -39 -24 -61q-22 -22 -61 -22q-80 0 -80 80zM327 1282q37 0 59 -22t22 -59q0 -39 -23 -61t-61 -22q-80 0 -80 80q0 39 22 62q23 22 61 22zM711 1606l26 -95l-10 -18q-209 -55 -420 -102l-18 10l-15 74q256 76 422 139z" />
    <glyph glyph-name="dieresisgrave" unicode="&#xf6d8;" 
d="M655 1282q70 0 70 -70q0 -42 -26 -68t-68 -26q-70 0 -70 70q-1 42 25 68t69 26zM336 1282q70 0 70 -70q0 -42 -26 -68t-69 -26q-70 0 -69 70q0 42 26 68t68 26zM338 1606l18 8q141 -57 404 -139l-23 -74l-20 -10q-223 51 -406 102l-8 18z" />
    <glyph glyph-name="Iacute_J.loclNLD" horiz-adv-x="1136" 
d="M1047 1311l-119 -877l-19 -192q-20 -154 -109 -255.5t-284 -193.5l-49 86l2 19q147 78 215 153.5t82 190.5l111 944l-244 -2l-15 14l25 113h404zM293 1311h153l-120 -903l-43 -408h-154l57 395zM1161 1669l-6 -18q-80 -39 -395 -176l-19 8l-28 69q217 109 391 211l16 -4z
M233 1483l-28 69q217 109 391 211l16 -4l41 -90l-6 -18q-80 -39 -395 -176z" />
    <glyph glyph-name="Q.corta" horiz-adv-x="1247" 
d="M254 532q0 -420 324 -419q233 0 351 172t118 497q0 414 -328 414q-465 0 -465 -664zM563 -16q-219 0 -343 142t-124 396q0 379 167 591t474 212q225 0 348 -137t123 -387q0 -319 -119 -527q-121 -207 -344 -268q160 -156 418 -260l2 -18q-37 -63 -84 -107l-14 -6
q-299 160 -469 369h-35z" />
    <glyph glyph-name="C.ss01" horiz-adv-x="892" 
d="M242 434q0 -313 261 -313q132 0 259 94l16 -6l-28 -131l-21 -10h313l-10 -68h-1286l10 68h484q-145 102 -146 348q0 389 252 534h-481l10 70h1286l-12 -70h-281l11 -6l-43 -129l-17 -6q-94 90 -245.5 90t-241.5 -120t-90 -345z" />
    <glyph glyph-name="D.ss01" horiz-adv-x="1095" 
d="M498 117q178 0 274 120.5t96 352.5q0 303 -270 303q-98 0 -221 -8l-74 -561l-22 -197q106 -10 217 -10zM1014 618q0 -197 -70 -338t-201 -212h502l-10 -68h-1489l10 68h381l35 243l76 639h-383l10 70h1489l-10 -70h-492q152 -96 152 -332z" />
    <glyph glyph-name="I.ss01" horiz-adv-x="499" 
d="M295 319l-29 -251h381l-8 -68h-893l10 68h371l33 239l76 643h-371l10 70h891l-8 -70h-379z" />
    <glyph glyph-name="L.ss01" horiz-adv-x="759" 
d="M377 950l-111 -827h312l28 176l103 6l-33 -237h231l-10 -68h-1151l10 68h369l111 882h-371l10 70h1153l-10 -70h-641z" />
    <glyph glyph-name="M.ss01" horiz-adv-x="1325" 
d="M1001 68l17 268l10 463h-12l-344 -629h-113l-176 629h-8l-107 -455l-55 -276h788zM971 950h-492l21 -88l139 -514h12zM1147 950l-25 -882h348l-8 -68h-1716l10 68h338l205 882h-434l10 70h1718l-10 -70h-436z" />
    <glyph glyph-name="V.ss01" horiz-adv-x="966" 
d="M836 950h-555l6 -49l151 -749h8l369 741zM967 950l-432 -882h581l-10 -68h-1360l10 68h572l-185 882h-278l10 70h1360l-10 -70h-258z" />
    <glyph glyph-name="X.ss01" horiz-adv-x="1007" 
d="M492 428l-267 -328l-22 -32h485l-18 41zM528 616l242 302l21 32h-443l12 -35zM598 528l248 -460h311l-10 -68h-1401l10 68h310l358 450l-238 432h-321l10 70h1401l-10 -70h-334z" />
    <glyph glyph-name="idotaccent" horiz-adv-x="446" 
d="M254 223l-8 -217l-156 -14l107 743l8 199l151 14zM322 1354q84 0 84 -88q0 -43 -25 -69t-66 -26t-64.5 25t-23.5 66t26 66.5t69 25.5z" />
    <glyph glyph-name="germandbls.calt" horiz-adv-x="1232" 
d="M728 1323q212 0 441 -127l5 -33l-371 -422q188 -69 272 -147t84 -213q0 -174 -124 -285q-124 -110 -300 -110t-319 92l39 158l20 8q125 -131 281 -131q106 1 177 69t71 172t-92 173t-308 128l-2 35l377 432q-131 72 -273 72t-238 -86q-95 -86 -116 -240l-61 -458
l-43 -410h-154l58 389l55 481q23 205 166 329t355 124z" />
    <glyph glyph-name="f.f" horiz-adv-x="563" 
d="M640 1290q-83 0 -138.5 -59.5t-69.5 -169.5l-18 -139h481l14 -17l-16 -86h-494l-55 -411l-63 -437l-9 -219l-155 -12l149 1079h-141l-10 10l12 93h154l14 100q27 188 118 284.5t261 96.5l186 -29l6 -14l-41 -111l-22 -4q-80 45 -163 45z" />
    <glyph glyph-name="iacute_j.loclNLD" horiz-adv-x="921" 
d="M827 938l-100 -717l-18 -184q-20 -160 -87 -256t-212 -178l-52 69l2 19q100 68 147.5 141.5t61.5 196.5l99 704l6 86h-156l-10 10l14 93h146l151 20zM254 223l-8 -217l-156 -14l107 743l8 199l151 14zM930 1421l57 -80l-4 -18q-205 -162 -344 -260l-16 2l-43 61
q195 162 331 297zM465 1421l57 -80l-4 -18q-205 -162 -344 -260l-16 2l-43 61q195 162 331 297z" />
    <glyph glyph-name="a.sups" horiz-adv-x="638" 
d="M286 797q10 1 42 37q79 92 176 292l6 48l4 43l-86 14q-86 -2 -135 -86t-49 -216t42 -132zM129 887q0 160 82 282.5t233 151.5h9l102 -14l78 20l12 -8l-63 -479l-11 -148l-122 -8l34 279h-14q-98 -184 -199 -281h-20q-68 27 -94.5 74t-26.5 131z" />
    <glyph glyph-name="f.l" horiz-adv-x="571" 
d="M664 1341q-190 0 -226 -229l-26 -190h221l12 -17l-14 -86h-234l-116 -848l-11 -219l-153 -12l149 1079h-141l-10 10l12 93h154l20 153q57 381 391 381l238 -31l6 -10l-33 -112l-22 -5q-123 43 -217 43z" />
    <glyph glyph-name="three.dnom" horiz-adv-x="628" 
d="M299 780q95 0 159 -46t64 -110t-40 -119q-40 -54 -115 -85l-2 -6q141 -37 141 -159t-98 -193t-254 -70q-80 0 -138 14l4 94l11 6q94 -16 137 -16q96 0 155 41q58 41 58 109q0 106 -148 112h-83l-9 8l15 89h61q61 0 117 43q55 43 55 92q0 94 -104 94q-78 0 -174 -66h-15
l-10 88q117 80 213 80z" />
    <glyph glyph-name="b.sups" horiz-adv-x="638" 
d="M502 1204q-10 0 -42 -37q-90 -104 -179 -290l-13 -80l90 -25q86 0 136.5 86t50.5 216t-43 130zM662 1116q0 -162 -84 -284.5t-234 -149.5h-8l-195 33l105 796l10 138l127 10l-82 -623h12q96 181 205 283h21q68 -27 95.5 -74t27.5 -129z" />
    <glyph glyph-name="zero.lf" horiz-adv-x="1099" 
d="M246 492q0 -369 260 -369q180 1 278 153t99 424q-1 367 -265 367q-180 0 -276 -153t-96 -422zM641 1208q174 0 270 -125t97 -352q0 -344 -134 -545t-374 -200q-184 0 -281 124q-96 124 -96 355q0 347 134 545t384 198z" />
    <glyph glyph-name="c.sups" horiz-adv-x="491" 
d="M424 1229q-86 0 -131 -78t-45 -222t76 -144.5t139 112.5h16l41 -53q-78 -135 -203 -162h-18q-88 10 -128 61.5t-40 165.5q0 182 83 298t251 116l96 -31l6 -14l-32 -88l-29 -4q-47 43 -82 43z" />
    <glyph glyph-name="four.dnom" horiz-adv-x="714" 
d="M152 309h237l41 316h-10zM606 207l-123 4l-18 -201l-8 -10l-105 -6l-6 8l29 209h-244l-100 -4l-8 12l10 82l401 471h119l-59 -463h122l9 -12z" />
    <glyph glyph-name="one.lf" horiz-adv-x="724" 
d="M559 1198l-104 -774l-43 -424h-156l59 406l76 632l-293 -75l-14 8l14 121l441 125z" />
    <glyph glyph-name="two.lf" horiz-adv-x="1001" 
d="M569 1212q129 0 213 -74t84 -182q0 -106 -66 -204t-251 -301l-285 -320l2 -8h441l190 12l8 -14l-35 -129l-221 8h-508l-86 -4l-8 8l12 98l359 390q158 172 226 268q69 96 69 166t-43 112q-43 41 -123 41q-168 0 -330 -174h-18l-13 123q190 184 383 184z" />
    <glyph glyph-name="five.dnom" horiz-adv-x="620" 
d="M516 276q0 -126 -104 -206t-269 -80q-57 0 -133 14l4 92l11 8q67 -14 153 -14t148 45q61 45 61 121q0 86 -151 119l-119 22l-8 13l47 348l20 16l74 -2h203l122 4l7 -6l-27 -98l-10 -8l-94 8h-203l-29 -187l86 -20q211 -45 211 -189z" />
    <glyph glyph-name="d.sups" horiz-adv-x="636" 
d="M282 797q10 -1 42 35q82 92 178 288l14 94l-86 15q-88 0 -139 -86t-51 -195q0 -151 42 -151zM125 883q0 162 84 285.5t237 150.5h9l73 -8l27 200l6 138l127 10l-106 -819l-11 -148l-127 -8l37 279h-10q-94 -178 -203 -281h-20q-70 25 -96.5 72t-26.5 129z" />
    <glyph glyph-name="e.sups" horiz-adv-x="540" 
d="M473 1188q0 55 -61.5 55t-105.5 -64.5t-54 -174.5q221 80 221 184zM584 1196q0 -158 -336 -266q2 -158 89 -158t152 117l19 -2l41 -51q-86 -131 -217 -154h-17q-98 8 -141 65.5t-43 165.5q2 178 88 292t223 120h15q127 -20 127 -129z" />
    <glyph glyph-name="six.dnom" horiz-adv-x="688" 
d="M330 373q-74 0 -156 -54l-4 -36q-16 -209 131 -209q150 -1 166 157q8 68 -27 105q-36 37 -110 37zM389 465q97 -1 151 -61t45 -168t-86 -177t-206 -69t-193 77q-63 77 -49 227t131 280t318 208h8l74 -55l-2 -12q-299 -104 -375 -291l8 -12q80 53 176 53z" />
    <glyph glyph-name="three.lf" horiz-adv-x="876" 
d="M464 1217q148 0 228 -66t80 -165t-64 -188t-184 -145v-8q221 -55 221 -256q0 -170 -144 -285t-359 -114q-109 0 -207 20l6 137l16 13q95 -47 223 -47q128 1 222 73t94 193q0 180 -246 190h-119l-8 13l19 106l90 2q96 0 188 76t92 180q0 66 -44 105t-119 39
q-121 0 -273 -123h-16l-8 123q164 127 312 127z" />
    <glyph glyph-name="four.lf" horiz-adv-x="1005" 
d="M199 469h393l70 543h-13zM920 455l-23 -109l-186 4h-9l-36 -338l-13 -14l-116 -10l-9 12l47 350h-387l-131 -4l-10 14l12 105l603 735h145l-92 -731h194z" />
    <glyph glyph-name="f.sups" horiz-adv-x="407" 
d="M492 1569q-88 0 -105 -144l-16 -118h135l8 -13l-10 -61h-144l-75 -584l-11 -145l-127 -10l60 452l33 287h-84l-9 8l13 66h88l10 90q16 125 82 193t170 67l119 -17l4 -10l-25 -84l-18 -8q-55 31 -98 31z" />
    <glyph glyph-name="seven.dnom" horiz-adv-x="614" 
d="M229 772h303l62 2l-10 -94l-314 -524l-88 -170l-102 28l-6 21l379 633h-260l-113 -9l-6 15l24 100z" />
    <glyph glyph-name="eight.dnom" horiz-adv-x="696" 
d="M300 78q72 0 120 39q47 39 47 86t-25 75q-26 28 -50 40t-73 30q-162 -49 -161 -162q0 -48 35 -78t107 -30zM372 692q-60 0 -99 -35q-40 -35 -40 -86t30 -77t89 -54q139 57 140 156q0 44 -30 70t-90 26zM121 552q1 102 75 166q74 62 182 62t164 -45t56 -123
q0 -129 -166 -200l-2 -9q70 -33 108 -69t37 -101q1 -111 -81 -177t-203 -66t-183 51t-63 133q0 139 195 211v4q-119 61 -119 163z" />
    <glyph glyph-name="g.sups" horiz-adv-x="638" 
d="M254 512q159 0 188 201l35 274h-12q-76 -147 -191 -266l-124 -90q-23 -23 2 -62q24 -57 102 -57zM252 952q0 -123 41 -123q9 0 39 34q77 88 166 276l6 45l2 39l-76 10q-82 0 -130 -79t-48 -202zM236 422q-188 0 -224 190l6 15l193 112v9q-61 51 -61 185t76.5 247.5
t217.5 140.5h7l96 -12l69 18l15 -8l-62 -451l-10 -120q-18 -160 -105 -243t-218 -83z" />
    <glyph glyph-name="five.lf" horiz-adv-x="864" 
d="M604 391q0 162 -227 209l-191 37l-12 14l66 529l28 24l109 -4h276l183 8l8 -12l-29 -123l-12 -10l-146 10h-309l-43 -328l127 -26q317 -68 318 -309q0 -180 -152 -306t-373 -124q-92 0 -194 20l4 135l14 15q109 -47 211 -48q154 0 249 81t95 208z" />
    <glyph glyph-name="nine.dnom" horiz-adv-x="688" 
d="M203 541q-12 -144 134 -144q73 0 157 56l4 39q23 209 -127 208q-152 0 -168 -159zM279 307q-95 -1 -149 61t-45 170t86 176t206 68t192 -76t49 -212q-14 -166 -131 -297t-317 -207h-8l-74 55l2 14q154 55 245 125t130 166l-10 10q-82 -53 -176 -53z" />
    <glyph glyph-name="six.lf" horiz-adv-x="958" 
d="M518 598q-154 0 -285 -123q-6 -49 -6 -96q0 -281 230 -281q141 0 202 85t61 193t-51 166q-53 56 -151 56zM554 713q132 0 219 -89t87 -212t-41 -202t-85 -124t-119 -74t-166 -28q-176 0 -270 102q-93 102 -93 281q0 231 152 455q78 116 221 220t336 175h10l115 -72
l-2 -17q-512 -164 -646 -495l11 -12q139 92 271 92z" />
    <glyph glyph-name="h.sups" horiz-adv-x="679" 
d="M502 1194q-63 0 -226 -301l-6 -53l-10 -148l-125 -8l111 827l6 138l127 10l-82 -625h14q117 209 217 289h17q53 -10 86 -47t26 -100l-55 -340l-10 -144l-127 -8l70 453q0 57 -33 57z" />
    <glyph glyph-name="i.sups" horiz-adv-x="319" 
d="M262 840l-10 -148l-125 -8l63 490l11 137l123 8zM301 1614q63 0 64 -60q0 -37 -21.5 -60.5t-58.5 -23.5q-63 0 -64 58q0 39 22.5 62.5t57.5 23.5z" />
    <glyph glyph-name="seven.lf" horiz-adv-x="856" 
d="M328 1200h469l86 4l-11 -114l-512 -881l-118 -238l-123 39l-6 27l608 1034h-436l-154 -14l-8 18l27 131z" />
    <glyph glyph-name="zero.numr" horiz-adv-x="772" 
d="M471 1202q-113 0 -171 -89t-58 -249q0 -221 164 -221q115 0 174 88t59 250q0 221 -168 221zM494 1319q124 0 188 -80t63 -227q0 -226 -92 -354t-266 -128q-123 0 -187 81t-65 231q0 225 93 351q94 126 266 126z" />
    <glyph glyph-name="eight.lf" horiz-adv-x="970" 
d="M717 322q-1 94 -59 142t-181 97q-122 -47 -171 -83q-95 -68 -94 -171q1 -102 61 -157q60 -56 175 -56t192 67t77 161zM553 1102q-98 0 -165 -58q-66 -58 -66 -148q0 -89 48 -135t144 -87q106 43 170 101q63 58 64 155q0 172 -195 172zM197 877q0 151 102 243
q101 92 253 92t236 -72t84 -198q0 -201 -239 -309l-2 -10q103 -51 159 -113t56 -174q0 -154 -113 -252t-286 -98t-269 81t-96 209t75 200t208 132l2 8q-84 46 -127 104t-43 157z" />
    <glyph glyph-name="j.sups" horiz-adv-x="350" 
d="M340 1313l-78 -588q-14 -109 -60 -176.5t-141 -122.5l-41 55l3 13q104 76 122 215l62 465l2 59h-86l-8 8l10 66h96l115 10zM297 1614q70 0 70 -68q0 -76 -74 -76t-74 68q0 76 78 76z" />
    <glyph glyph-name="one.numr" horiz-adv-x="526" 
d="M444 1309l-63 -496l-31 -272h-129l35 258l45 379l-182 -45l-8 8l12 100l307 82z" />
    <glyph glyph-name="k.sups" horiz-adv-x="661" 
d="M676 1190q0 -135 -182 -254q82 -143 143 -234l-8 -10l-103 -16l-12 4q-70 123 -133 248l6 22q164 100 164 195q0 25 -11.5 39t-25.5 14q-74 0 -231 -305l-9 -53l-12 -148l-123 -8l111 827l6 138l127 10l-82 -623h14q123 219 222 283h18q121 -20 121 -129z" />
    <glyph glyph-name="nine.lf" horiz-adv-x="958" 
d="M492 602q152 0 284 123q6 49 6 96q0 281 -229 281q-141 0 -203 -85t-61 -193q0 -108 52 -166q53 -56 151 -56zM561 1217q176 -1 269 -103t94 -280q0 -232 -152 -456q-78 -116 -221 -220t-336 -174h-10l-115 71l2 17q512 164 645 495l-10 13q-137 -92 -270 -92t-220 88
q-87 90 -87 213q0 194 125 325q44 45 119 74t167 29z" />
    <glyph glyph-name="two.numr" horiz-adv-x="712" 
d="M449 1319q88 0 148 -45q60 -44 60 -112t-48 -138t-169 -197l-168 -180l2 -4h269l133 6l4 -12l-25 -102l-163 6h-340l-56 -2l-8 6l8 78l234 235q106 111 149 167t43 98t-26 67q-27 25 -76 24q-106 0 -217 -106h-15l-10 98q138 113 271 113z" />
    <glyph glyph-name="zero.sinf" horiz-adv-x="772" 
d="M375 416q-113 0 -171 -89t-59 -249q0 -221 164 -221q115 0 174 88t60 250q0 221 -168 221zM397 532q123 0 188 -80t64 -227q0 -227 -92 -354t-266 -127q-123 0 -188 81t-64 230q0 225 93 351t265 126z" />
    <glyph glyph-name="l.sups" horiz-adv-x="321" 
d="M260 840l-10 -148l-125 -8l111 827l6 138l125 10z" />
    <glyph glyph-name="three.numr" horiz-adv-x="628" 
d="M366 1321q97 0 159 -46q63 -47 63 -111t-40 -118t-116 -85l-2 -7q141 -37 141 -159q0 -123 -98 -193t-254 -70q-80 0 -137 15l4 94l10 6q94 -16 137 -16q96 0 155 41q58 41 58 108q0 106 -147 113h-84l-8 8l14 88h62q61 0 116 43q55 42 55 92q1 94 -104 95
q-78 0 -174 -66h-14l-10 88q117 80 214 80z" />
    <glyph glyph-name="four.numr" horiz-adv-x="714" 
d="M217 850h238l41 315h-11zM672 748l-123 4l-19 -201l-8 -10l-104 -6l-6 8l28 209h-243l-101 -4l-8 12l10 82l402 471h118l-59 -463h123l8 -12z" />
    <glyph glyph-name="one.sinf" horiz-adv-x="526" 
d="M375 522l-64 -495l-30 -273h-129l79 637l-182 -45l-8 8l12 101l307 82z" />
    <glyph glyph-name="m.sups" horiz-adv-x="1044" 
d="M862 1194q-33 0 -97.5 -84t-143.5 -238l-7 -36l-12 -144l-129 -8l70 434l2 19q0 57 -35 57q-59 0 -227 -303l-7 -51l-10 -148l-125 -8l64 490l8 137l125 8l-37 -285h14q135 221 222 289h16q55 -10 90 -48t29 -99l-25 -142h17q123 207 221 289h16q55 -10 89 -48t28 -99
l-57 -340l-9 -144l-131 -8l70 434l4 19q0 27 -10.5 42t-22.5 15z" />
    <glyph glyph-name="n.sups" horiz-adv-x="679" 
d="M504 1194q-31 0 -90.5 -77t-132.5 -218l-9 -59l-10 -148l-125 -8l64 490l8 137l125 8l-37 -285h14q123 213 217 289h17q49 -12 84 -49t28 -98l-55 -340l-10 -144l-129 -8l72 453q0 57 -31 57z" />
    <glyph glyph-name="two.sinf" horiz-adv-x="712" 
d="M305 532q89 0 149 -45t60 -112t-48 -137t-169 -197l-168 -180l2 -4h268l133 6l5 -13l-25 -102l-164 6h-340l-55 -2l-8 6l8 78l233 236q106 111 150 167q43 56 43 98q0 43 -27 67t-76 24q-106 0 -217 -106h-14l-10 98q137 112 270 112z" />
    <glyph glyph-name="five.numr" horiz-adv-x="620" 
d="M582 817q0 -127 -104 -207t-269 -80q-57 0 -133 15l4 92l10 8q66 -14 152 -14t149 45q61 45 62 121q0 86 -152 118l-119 23l-8 12l47 348l21 17l73 -2h203l123 4l6 -6l-26 -99l-11 -8l-94 8h-203l-28 -186l86 -20q211 -45 211 -189z" />
    <glyph glyph-name="six.numr" horiz-adv-x="688" 
d="M370 614q148 0 165 158q8 68 -27 105q-36 37 -110 37t-156 -54l-4 -37q-16 -209 132 -209zM456 1006q96 0 150 -60t46 -169q-9 -107 -86 -177t-206 -70t-192 77t-49 227t131 281q117 130 317 208h8l74 -55l-2 -13q-299 -104 -375 -290l9 -13q79 54 175 54z" />
    <glyph glyph-name="three.sinf" horiz-adv-x="628" 
d="M243 535q97 -1 159 -47t62 -110t-39 -118q-40 -54 -116 -86l-2 -6q141 -37 141 -159q0 -123 -98 -193t-254 -70q-80 0 -137 14l4 95l10 6q94 -17 164 -17t128 41t59 109q0 106 -148 112h-84l-8 9l14 88h62q61 0 116 43q56 43 56 92t-29 72t-76 22q-78 0 -174 -65h-14
l-10 88q117 80 214 80z" />
    <glyph glyph-name="o.sups" horiz-adv-x="606" 
d="M416 1233q-82 0 -127 -91q-45 -92 -45 -232t75 -140q82 0 125 89q44 89 44 231t-72 143zM127 890q0 192 83 311q83 118 226 124h15q155 -25 155 -213t-83 -306t-226 -126l-12 2q-158 16 -158 208z" />
    <glyph glyph-name="p.sups" horiz-adv-x="636" 
d="M530 1075q0 129 -41 129q-29 0 -97 -114.5t-116 -212.5l-10 -80l88 -25q80 0 128 87t48 216zM643 1118q0 -162 -81 -285.5t-224 -150.5h-8l-76 14l-14 -114l-13 -148l-127 -8l101 748l6 137l127 8l-37 -283h14q89 177 195 283h18q66 -27 92.5 -73t26.5 -128z" />
    <glyph glyph-name="seven.numr" horiz-adv-x="614" 
d="M295 1313h303l61 2l-10 -94l-313 -525l-88 -170l-103 29l-6 20l379 633h-260l-113 -8l-6 14l25 101z" />
    <glyph glyph-name="four.sinf" horiz-adv-x="714" 
d="M96 63h238l41 316h-10zM551 -39l-123 4l-18 -201l-9 -10l-104 -6l-6 8l28 209h-243l-101 -4l-8 12l10 82l402 471h119l-60 -463h123l8 -12z" />
    <glyph glyph-name="eight.numr" horiz-adv-x="696" 
d="M223 727q0 -49 35 -79q36 -30 108 -30t119 39t47 87q0 78 -73 114q-25 13 -74 31q-162 -49 -162 -162zM557 1137q0 45 -30 71q-29 26 -89 25q-60 0 -100 -35t-39 -86q0 -51 30 -78t89 -53q139 57 139 156zM186 1094q0 102 75 164t183 63q108 0 164 -45q55 -45 56 -123
q0 -129 -166 -201l-2 -8q70 -33 108 -70t37 -100q0 -112 -82 -178t-203 -66t-183 52t-62 133q0 139 194 211v4q-119 62 -119 164z" />
    <glyph glyph-name="q.sups" horiz-adv-x="636" 
d="M276 797q26 1 94 113t115 210l7 54l4 43l-78 12q-84 0 -132 -87t-48 -194t14 -129t24 -22zM123 881q0 163 81 287t228 151h8l95 -12l79 20l13 -8l-99 -737l-10 -148l-123 -8l70 537h-14q-80 -170 -191 -281h-20q-63 27 -90 73t-27 126z" />
    <glyph glyph-name="five.sinf" horiz-adv-x="620" 
d="M481 31q0 -127 -104 -207t-268 -80q-57 0 -134 14l5 92l10 9q201 -43 301 30q61 45 61 121q0 86 -151 119l-119 23l-8 12l47 348l20 16l74 -2h203l123 4l6 -6l-27 -98l-10 -8l-94 8h-203l-29 -186l86 -21q211 -45 211 -188z" />
    <glyph glyph-name="r.sups" horiz-adv-x="468" 
d="M557 1311l-18 -140l-15 -4l-26 4q-84 0 -217 -264l-9 -67l-10 -148l-129 -8l66 490l8 137l125 8l-35 -283h16q117 252 217 279z" />
    <glyph glyph-name="nine.numr" horiz-adv-x="688" 
d="M437 1241q-151 0 -167 -160q-12 -143 134 -143q73 0 157 55l4 39q23 209 -128 209zM444 1323q128 0 192 -76t50 -213q-14 -166 -131 -297t-317 -207h-9l-73 56l2 14q154 55 244 125t130 166l-10 10q-82 -53 -176 -53t-148 61t-45 169t85 176t206 69z" />
    <glyph glyph-name="six.sinf" horiz-adv-x="688" 
d="M272 127q-74 0 -157 -53l-4 -37q-15 -209 133 -209t164 158q8 68 -27 104t-109 37zM329 219q97 0 151 -60t45 -168q-9 -107 -86 -177t-206 -70t-192 77t-49 227t131 281q117 130 317 208h9l73 -56l-2 -12q-299 -104 -375 -291l9 -12q79 53 175 53z" />
    <glyph glyph-name="s.sups" horiz-adv-x="481" 
d="M359.5 1239q-48.5 0 -74 -26.5t-25.5 -59.5t33 -63.5t71.5 -52t71.5 -65.5t33 -113t-66.5 -123t-169.5 -56q-88 10 -145 37l29 100l12 12q66 -70 137 -69q43 0 71 26.5t25.5 61.5t-36 66.5t-72.5 55t-71.5 64.5t-32.5 90q0 88 68.5 143.5t166.5 53.5q63 -6 123 -31
l-27 -94l-18 -6q-55 49 -103.5 49z" />
    <glyph glyph-name="seven.sinf" horiz-adv-x="614" 
d="M229 526h303l62 2l-10 -94l-314 -526l-88 -168l-102 29l-6 20l379 633h-260l-113 -8l-6 14l24 100z" />
    <glyph glyph-name="eight.sinf" horiz-adv-x="696" 
d="M106 -59q0 -49 35 -79t108 -30t120 39t47 86t-25 75t-49 40t-74 30q-162 -49 -162 -161zM440 349q0 97 -118 97q-60 0 -100 -34t-40 -86t30 -78t89 -53q139 57 139 154zM328 535q108 1 164 -45t55 -123q0 -129 -166 -201l-2 -8q69 -33 107 -70t38 -100q0 -112 -82 -178
t-203 -66t-183 51t-62 133q0 139 194 211v4q-118 61 -118 163t74 166q76 63 184 63z" />
    <glyph glyph-name="t.sups" horiz-adv-x="471" 
d="M332 784q53 0 92 99l20 -2l33 -41q-67 -147 -168 -158q-74 4 -104.5 29.5t-30.5 85.5l2 39l64 397h-86l-9 8l9 66h96l20 155l117 33l10 -8l-28 -180h168l8 -13l-8 -61h-179l-61 -385l-4 -23q2 -41 39 -41z" />
    <glyph glyph-name="u.sups" horiz-adv-x="671" 
d="M301 803q57 0 217 297l10 74l7 137l127 8l-62 -479l-12 -148l-125 -8l37 279h-11q-125 -213 -213 -285h-14q-53 10 -88 47t-29 104l54 334l10 146l129 8l-68 -434l-2 -19q0 -61 33 -61z" />
    <glyph glyph-name="nine.sinf" horiz-adv-x="688" 
d="M347 455q-151 0 -167 -160q-12 -143 134 -143q73 0 157 55l4 39q23 209 -128 209zM354 537q128 0 192 -76t50 -213q-14 -166 -131 -297t-318 -207h-8l-73 55l2 15q154 55 244 125t130 165l-10 11q-82 -53 -176 -53t-148 60q-54 62 -46 170t86 176q77 68 206 69z" />
    <glyph glyph-name="zero.tf" horiz-adv-x="987" 
d="M561 1067q-164 0 -253 -155t-89 -429q0 -360 234 -360q168 0 257 155t89 429q0 360 -238 360zM586 1208q162 0 250 -122t88 -345q0 -348 -128 -552t-354 -203q-170 0 -258 122t-88 347q0 352 128 553q129 200 362 200z" />
    <glyph glyph-name="v.sups" horiz-adv-x="585" 
d="M625 1205q0 -63 -58 -173l-194 -342h-135l-66 619l125 10l4 -109l23 -391h12l129 248q41 86 41 135t-25 92l115 27q29 -53 29 -116z" />
    <glyph glyph-name="w.sups" horiz-adv-x="968" 
d="M1004 1199q0 -63 -56 -167l-186 -342h-135l-43 459h-11l-192 -459h-139l-70 619l125 10l2 -84l31 -406h12l170 396l33 88h131l2 -78l35 -406h12l119 238q41 82 41 131t-27 96l115 27q31 -59 31 -122z" />
    <glyph glyph-name="one.tf" horiz-adv-x="972" 
d="M686 1198l-104 -774l-43 -424h-154l57 406l78 632l-360 -75l-15 8l15 121l506 125z" />
    <glyph glyph-name="two.tf" horiz-adv-x="972" 
d="M557 1212q127 0 210 -74t83 -182q0 -106 -66 -204t-247 -301l-279 -320l2 -8h430l189 12l8 -14l-37 -129l-217 8h-500l-84 -4l-8 8l12 98l353 390q156 172 223 268t67 166t-41 112q-41 41 -120 41q-166 0 -324 -174h-18l-13 123q189 184 377 184z" />
    <glyph glyph-name="x.sups" horiz-adv-x="630" 
d="M606 696l-139 -14l-16 70l-82 180l-125 -182l-35 -60h-135l227 322l-131 297l131 14l21 -57l75 -172l123 166l27 53h133l-221 -309z" />
    <glyph glyph-name="three.tf" horiz-adv-x="974" 
d="M514 1217q148 0 229 -66q82 -66 82 -165q-1 -99 -65 -188t-187 -145v-8q227 -55 228 -256q-1 -170 -147 -285t-365 -114q-106 0 -209 20l6 137l16 13q98 -47 203 -47q154 1 250 73t96 193q0 86 -64 136q-65 50 -186 54h-120l-11 13l19 106l90 2q98 0 191 76t94 180
q0 66 -44 105t-122 39q-123 0 -277 -123h-16l-8 123q169 127 317 127z" />
    <glyph glyph-name="y.sups" horiz-adv-x="589" 
d="M627 1197q0 -73 -72 -196l-141 -262q-96 -172 -178 -243.5t-175 -71.5q-53 0 -114 20l-6 105l12 12q55 -18 104 -18q115 0 211 129l-129 637l125 10l12 -109l60 -376h20l111 221q43 88 43 140t-27 99l115 27q29 -51 29 -124z" />
    <glyph glyph-name="z.sups" horiz-adv-x="583" 
d="M393 678q-39 0 -107.5 21.5t-104.5 21.5t-72 -37h-17l-39 33l371 495l-186 -2l-78 -8l-8 10l22 103l10 8l97 -6l249 -4l35 22l41 -37l-370 -493l34 6l123 -25q53 0 81 39t34 127l18 6l54 -20q-14 -260 -187 -260z" />
    <glyph glyph-name="four.tf" horiz-adv-x="972" 
d="M193 469h380l68 543h-12zM895 455l-23 -109l-182 4h-8l-35 -338l-10 -14l-119 -10l-8 12l47 350h-377l-129 -4l-10 14l12 105l592 735h143l-92 -731h189z" />
    <glyph glyph-name="five.tf" horiz-adv-x="972" 
d="M676 391q0 162 -240 209l-194 37l-11 14l64 529l29 24l112 -4h285l186 8l8 -12l-28 -123l-13 -10l-147 10h-324l-43 -328l134 -26q330 -68 329 -309q0 -180 -155 -306q-156 -125 -383 -124q-92 0 -201 20l4 135l16 15q106 -47 213 -48q160 0 260 81q99 81 99 208z" />
    </font>
</defs>
</svg>
