<?xml version="1.0" encoding="utf-8"?>
<!-- Generated by IcoMoon.io -->
<!DOCTYPE svg PUBLIC "-//W3C//DTD SVG 1.1//EN" "http://www.w3.org/Graphics/SVG/1.1/DTD/svg11.dtd">
<svg version="1.1" xmlns="http://www.w3.org/2000/svg" xmlns:xlink="http://www.w3.org/1999/xlink" width="512" height="512" viewBox="0 0 512 512">
<g id="icomoon-ignore">
</g>
<path fill="white" d="M256 0c-141.385 0-256 35.817-256 80v64c0 44.183 114.615 80 256 80s256-35.817 256-80v-64c0-44.183-114.615-80-256-80z"></path>
<path fill="white" d="M256 272c-141.385 0-256-35.817-256-80v96c0 44.183 114.615 80 256 80s256-35.817 256-80v-96c0 44.183-114.615 80-256 80z"></path>
<path fill="white" d="M256 416c-141.385 0-256-35.817-256-80v96c0 44.183 114.615 80 256 80s256-35.817 256-80v-96c0 44.183-114.615 80-256 80z"></path>
</svg>
